<mxfile host="app.diagrams.net" modified="2023-02-02T07:20:11.775Z" agent="5.0 (Windows NT 10.0; Win64; x64) AppleWebKit/537.36 (KHTML, like Gecko) Chrome/111.0.0.0 Safari/537.36" etag="0Ou7VIHIiYzHcuus25hE" version="20.8.5" type="github">
  <diagram id="21dkpIUv8Dz8cheK0tkw" name="Page-1">
    <mxGraphModel dx="2261" dy="756" grid="1" gridSize="10" guides="1" tooltips="1" connect="1" arrows="1" fold="1" page="1" pageScale="1" pageWidth="827" pageHeight="1169" math="0" shadow="0">
      <root>
        <mxCell id="0" />
        <mxCell id="1" parent="0" />
        <mxCell id="Ukg85vJx6AmNJHNjjrwK-20" value="" style="rounded=0;whiteSpace=wrap;html=1;" parent="1" vertex="1">
          <mxGeometry x="-777" y="528" width="267" height="130" as="geometry" />
        </mxCell>
        <mxCell id="o995Ws5FP9cgEdBSJyOs-1" value="" style="rounded=0;whiteSpace=wrap;html=1;strokeWidth=4;" parent="1" vertex="1">
          <mxGeometry x="90" y="30" width="600" height="340" as="geometry" />
        </mxCell>
        <mxCell id="o995Ws5FP9cgEdBSJyOs-5" value="" style="verticalLabelPosition=bottom;html=1;verticalAlign=top;align=center;shape=mxgraph.floorplan.doorLeft;aspect=fixed;rotation=90;flipH=1;" parent="1" vertex="1">
          <mxGeometry x="639" y="318.87" width="50" height="53.13" as="geometry" />
        </mxCell>
        <mxCell id="o995Ws5FP9cgEdBSJyOs-8" value="" style="pointerEvents=1;shadow=0;dashed=0;html=1;fillColor=#505050;labelPosition=center;verticalLabelPosition=bottom;verticalAlign=top;outlineConnect=0;align=center;shape=mxgraph.office.devices.lcd_monitor;strokeWidth=1;" parent="1" vertex="1">
          <mxGeometry x="262" y="551" width="316" height="220" as="geometry" />
        </mxCell>
        <mxCell id="o995Ws5FP9cgEdBSJyOs-15" value="" style="rounded=1;whiteSpace=wrap;html=1;strokeColor=#000000;strokeWidth=1;arcSize=10;" parent="1" vertex="1">
          <mxGeometry x="267" y="555" width="153" height="79" as="geometry" />
        </mxCell>
        <mxCell id="o995Ws5FP9cgEdBSJyOs-20" value="" style="edgeStyle=elbowEdgeStyle;elbow=horizontal;endArrow=classic;html=1;exitX=0.5;exitY=1;exitDx=0;exitDy=0;exitPerimeter=0;strokeWidth=2;strokeColor=#FF3333;startSize=3;endSize=3;" parent="1" source="o995Ws5FP9cgEdBSJyOs-19" target="o995Ws5FP9cgEdBSJyOs-8" edge="1">
          <mxGeometry width="50" height="50" relative="1" as="geometry">
            <mxPoint x="400" y="46" as="sourcePoint" />
            <mxPoint x="340" y="540" as="targetPoint" />
            <Array as="points">
              <mxPoint x="355" y="500" />
              <mxPoint x="340" y="490" />
            </Array>
          </mxGeometry>
        </mxCell>
        <mxCell id="o995Ws5FP9cgEdBSJyOs-21" value="" style="edgeStyle=elbowEdgeStyle;elbow=horizontal;endArrow=classic;html=1;exitX=1;exitY=0.5;exitDx=0;exitDy=0;exitPerimeter=0;strokeWidth=2;strokeColor=#FF3333;entryX=0.145;entryY=0.145;entryDx=0;entryDy=0;entryPerimeter=0;startSize=3;endSize=3;" parent="1" source="o995Ws5FP9cgEdBSJyOs-19" target="Dfw8BtGnLvOsA7QvDN78-27" edge="1">
          <mxGeometry width="50" height="50" relative="1" as="geometry">
            <mxPoint x="390" y="425" as="sourcePoint" />
            <mxPoint x="527.25" y="471" as="targetPoint" />
            <Array as="points" />
          </mxGeometry>
        </mxCell>
        <mxCell id="o995Ws5FP9cgEdBSJyOs-27" value="&lt;div style=&quot;text-align: center&quot;&gt;&lt;font style=&quot;font-size: 15px;&quot; face=&quot;helvetica&quot;&gt;&lt;b style=&quot;&quot;&gt;视频监视画面0&lt;/b&gt;&lt;/font&gt;&lt;/div&gt;&lt;div style=&quot;text-align: center&quot;&gt;&lt;font face=&quot;helvetica&quot; style=&quot;font-size: 10px;&quot;&gt;显示的是房间A或...Z的画面&lt;/font&gt;&lt;/div&gt;&lt;div style=&quot;text-align: center&quot;&gt;&lt;font face=&quot;helvetica&quot;&gt;&lt;span style=&quot;font-size: 10px;&quot;&gt;此为原生画面&lt;/span&gt;&lt;/font&gt;&lt;/div&gt;" style="text;whiteSpace=wrap;html=1;" parent="1" vertex="1">
          <mxGeometry x="270" y="563" width="149" height="30" as="geometry" />
        </mxCell>
        <mxCell id="o995Ws5FP9cgEdBSJyOs-59" value="" style="group;rotation=90;" parent="1" vertex="1" connectable="0">
          <mxGeometry x="270" y="130" width="186" height="90" as="geometry" />
        </mxCell>
        <mxCell id="o995Ws5FP9cgEdBSJyOs-48" value="" style="verticalLabelPosition=bottom;html=1;verticalAlign=top;align=center;shape=mxgraph.floorplan.office_chair;shadow=0;strokeColor=#000000;strokeWidth=4;rotation=90;" parent="o995Ws5FP9cgEdBSJyOs-59" vertex="1">
          <mxGeometry x="113" y="-21" width="23.25" height="27.642857142857146" as="geometry" />
        </mxCell>
        <mxCell id="o995Ws5FP9cgEdBSJyOs-49" value="" style="verticalLabelPosition=bottom;html=1;verticalAlign=top;align=center;shape=mxgraph.floorplan.office_chair;shadow=0;direction=west;strokeColor=#000000;strokeWidth=4;rotation=90;" parent="o995Ws5FP9cgEdBSJyOs-59" vertex="1">
          <mxGeometry x="50" y="-21" width="23.25" height="27.642857142857146" as="geometry" />
        </mxCell>
        <mxCell id="o995Ws5FP9cgEdBSJyOs-50" value="" style="verticalLabelPosition=bottom;html=1;verticalAlign=top;align=center;shape=mxgraph.floorplan.office_chair;shadow=0;direction=north;strokeColor=#000000;strokeWidth=4;rotation=90;" parent="o995Ws5FP9cgEdBSJyOs-59" vertex="1">
          <mxGeometry x="81" y="-48" width="24.993750000000002" height="25.714285714285715" as="geometry" />
        </mxCell>
        <mxCell id="o995Ws5FP9cgEdBSJyOs-51" value="" style="verticalLabelPosition=bottom;html=1;verticalAlign=top;align=center;shape=mxgraph.floorplan.office_chair;shadow=0;direction=south;strokeColor=#000000;strokeWidth=4;rotation=90;" parent="o995Ws5FP9cgEdBSJyOs-59" vertex="1">
          <mxGeometry x="81" y="113" width="24.993750000000002" height="25.714285714285715" as="geometry" />
        </mxCell>
        <mxCell id="o995Ws5FP9cgEdBSJyOs-52" value="" style="verticalLabelPosition=bottom;html=1;verticalAlign=top;align=center;shape=mxgraph.floorplan.office_chair;shadow=0;strokeColor=#000000;strokeWidth=4;rotation=90;" parent="o995Ws5FP9cgEdBSJyOs-59" vertex="1">
          <mxGeometry x="113" y="14" width="23.25" height="27.642857142857146" as="geometry" />
        </mxCell>
        <mxCell id="o995Ws5FP9cgEdBSJyOs-53" value="" style="verticalLabelPosition=bottom;html=1;verticalAlign=top;align=center;shape=mxgraph.floorplan.office_chair;shadow=0;direction=west;strokeColor=#000000;strokeWidth=4;rotation=90;" parent="o995Ws5FP9cgEdBSJyOs-59" vertex="1">
          <mxGeometry x="50" y="14" width="23.25" height="27.642857142857146" as="geometry" />
        </mxCell>
        <mxCell id="o995Ws5FP9cgEdBSJyOs-54" value="" style="verticalLabelPosition=bottom;html=1;verticalAlign=top;align=center;shape=mxgraph.floorplan.office_chair;shadow=0;strokeColor=#000000;strokeWidth=4;rotation=90;" parent="o995Ws5FP9cgEdBSJyOs-59" vertex="1">
          <mxGeometry x="113" y="49" width="23.25" height="27.642857142857146" as="geometry" />
        </mxCell>
        <mxCell id="o995Ws5FP9cgEdBSJyOs-55" value="" style="verticalLabelPosition=bottom;html=1;verticalAlign=top;align=center;shape=mxgraph.floorplan.office_chair;shadow=0;direction=west;strokeColor=#000000;strokeWidth=4;rotation=90;" parent="o995Ws5FP9cgEdBSJyOs-59" vertex="1">
          <mxGeometry x="50" y="49" width="23.25" height="27.642857142857146" as="geometry" />
        </mxCell>
        <mxCell id="o995Ws5FP9cgEdBSJyOs-56" value="" style="verticalLabelPosition=bottom;html=1;verticalAlign=top;align=center;shape=mxgraph.floorplan.office_chair;shadow=0;strokeColor=#000000;strokeWidth=4;rotation=90;" parent="o995Ws5FP9cgEdBSJyOs-59" vertex="1">
          <mxGeometry x="113" y="83" width="23.25" height="27.642857142857146" as="geometry" />
        </mxCell>
        <mxCell id="o995Ws5FP9cgEdBSJyOs-57" value="" style="verticalLabelPosition=bottom;html=1;verticalAlign=top;align=center;shape=mxgraph.floorplan.office_chair;shadow=0;direction=west;strokeColor=#000000;strokeWidth=4;rotation=90;" parent="o995Ws5FP9cgEdBSJyOs-59" vertex="1">
          <mxGeometry x="50" y="83" width="23.25" height="27.642857142857146" as="geometry" />
        </mxCell>
        <mxCell id="o995Ws5FP9cgEdBSJyOs-58" value="" style="shape=ellipse;shadow=0;strokeColor=#000000;strokeWidth=4;rotation=90;" parent="o995Ws5FP9cgEdBSJyOs-59" vertex="1">
          <mxGeometry x="12" y="13" width="162.75" height="64.28571428571429" as="geometry" />
        </mxCell>
        <mxCell id="o995Ws5FP9cgEdBSJyOs-60" value="&lt;b&gt;会&lt;br&gt;议&lt;br&gt;桌&lt;/b&gt;" style="text;html=1;align=center;verticalAlign=middle;resizable=0;points=[];autosize=1;" parent="o995Ws5FP9cgEdBSJyOs-59" vertex="1">
          <mxGeometry x="78.5" y="20" width="30" height="50" as="geometry" />
        </mxCell>
        <mxCell id="o995Ws5FP9cgEdBSJyOs-63" value="" style="rounded=0;whiteSpace=wrap;html=1;strokeColor=#000000;strokeWidth=2;" parent="1" vertex="1">
          <mxGeometry x="210" y="30" width="30" height="250" as="geometry" />
        </mxCell>
        <mxCell id="o995Ws5FP9cgEdBSJyOs-24" value="" style="pointerEvents=1;shadow=0;dashed=0;html=1;strokeColor=none;fillColor=#0000CC;labelPosition=center;verticalLabelPosition=bottom;verticalAlign=top;outlineConnect=0;align=center;shape=mxgraph.office.devices.microphone;flipV=0;flipH=1;" parent="1" vertex="1">
          <mxGeometry x="215" y="221" width="20" height="26" as="geometry" />
        </mxCell>
        <mxCell id="o995Ws5FP9cgEdBSJyOs-25" value="&lt;font color=&quot;#0000cc&quot;&gt;翻译a&lt;/font&gt;" style="pointerEvents=1;shadow=0;dashed=0;html=1;strokeColor=none;fillColor=#0000CC;labelPosition=center;verticalLabelPosition=bottom;verticalAlign=top;outlineConnect=0;align=center;shape=mxgraph.office.users.call_center_agent;" parent="1" vertex="1">
          <mxGeometry x="170" y="217" width="30" height="26" as="geometry" />
        </mxCell>
        <mxCell id="o995Ws5FP9cgEdBSJyOs-64" value="" style="verticalLabelPosition=bottom;html=1;verticalAlign=top;align=center;shape=mxgraph.floorplan.doorLeft;aspect=fixed;rotation=90;flipH=1;" parent="1" vertex="1">
          <mxGeometry x="330" y="318.87" width="50" height="53.13" as="geometry" />
        </mxCell>
        <mxCell id="o995Ws5FP9cgEdBSJyOs-65" value="&lt;b style=&quot;font-size: 18px&quot;&gt;多语种翻译室&lt;/b&gt;&lt;br&gt;&lt;font&gt;&lt;b&gt;翻译员a的音频输入至视频监视器1&lt;br&gt;&lt;/b&gt;&lt;b style=&quot;border-color: var(--border-color);&quot;&gt;翻译员b的音频输入至视频监视器2&lt;br&gt;&lt;/b&gt;&lt;b style=&quot;border-color: var(--border-color);&quot;&gt;翻译员c的音频输入至视频监视器3&lt;/b&gt;&lt;b&gt;&lt;br&gt;&lt;br&gt;&lt;/b&gt;&lt;/font&gt;" style="text;html=1;align=center;verticalAlign=middle;resizable=0;points=[];autosize=1;" parent="1" vertex="1">
          <mxGeometry x="80" y="276" width="210" height="90" as="geometry" />
        </mxCell>
        <mxCell id="o995Ws5FP9cgEdBSJyOs-66" value="&lt;b&gt;&lt;font style=&quot;vertical-align: inherit&quot;&gt;&lt;font style=&quot;vertical-align: inherit&quot;&gt;&lt;font style=&quot;vertical-align: inherit&quot;&gt;&lt;font style=&quot;vertical-align: inherit&quot;&gt;&lt;font style=&quot;vertical-align: inherit&quot;&gt;&lt;font style=&quot;vertical-align: inherit&quot;&gt;&lt;font style=&quot;vertical-align: inherit&quot;&gt;&lt;font style=&quot;vertical-align: inherit&quot;&gt;甲方需求：&lt;/font&gt;&lt;/font&gt;&lt;/font&gt;&lt;/font&gt;&lt;/font&gt;&lt;/font&gt;&lt;/font&gt;&lt;/font&gt;&lt;/b&gt;&lt;br&gt;&lt;font style=&quot;vertical-align: inherit&quot;&gt;&lt;font style=&quot;vertical-align: inherit&quot;&gt;&lt;font style=&quot;vertical-align: inherit&quot;&gt;&lt;font style=&quot;vertical-align: inherit&quot;&gt;&lt;font style=&quot;vertical-align: inherit&quot;&gt;&lt;font style=&quot;vertical-align: inherit&quot;&gt;&lt;font style=&quot;vertical-align: inherit&quot;&gt;&lt;font style=&quot;vertical-align: inherit&quot;&gt;    &amp;nbsp; &amp;nbsp; &amp;nbsp; &amp;nbsp;①，房间A...Z内部安装一个带拾音器的摄像头，&lt;/font&gt;&lt;/font&gt;&lt;/font&gt;&lt;/font&gt;&lt;/font&gt;&lt;/font&gt;&lt;/font&gt;&lt;/font&gt;&lt;br&gt;&lt;font style=&quot;vertical-align: inherit&quot;&gt;&lt;font style=&quot;vertical-align: inherit&quot;&gt;&lt;font style=&quot;vertical-align: inherit&quot;&gt;&lt;font style=&quot;vertical-align: inherit&quot;&gt;&lt;font style=&quot;vertical-align: inherit&quot;&gt;&lt;font style=&quot;vertical-align: inherit&quot;&gt;&lt;font style=&quot;vertical-align: inherit&quot;&gt;&lt;font style=&quot;vertical-align: inherit&quot;&gt;摄像头的音，视频均被监视器采集并存储；&lt;/font&gt;&lt;/font&gt;&lt;/font&gt;&lt;/font&gt;&lt;/font&gt;&lt;/font&gt;&lt;/font&gt;&lt;/font&gt;&lt;br&gt;&lt;font style=&quot;vertical-align: inherit&quot;&gt;&lt;font style=&quot;vertical-align: inherit&quot;&gt;&lt;font style=&quot;vertical-align: inherit&quot;&gt;&lt;font style=&quot;vertical-align: inherit&quot;&gt;&lt;font style=&quot;vertical-align: inherit&quot;&gt;&lt;font style=&quot;vertical-align: inherit&quot;&gt;&lt;font style=&quot;vertical-align: inherit&quot;&gt;&lt;font style=&quot;vertical-align: inherit&quot;&gt;&amp;nbsp; &amp;nbsp; &amp;nbsp; &amp;nbsp;②，同时要求监视器上，显示并记录除0原生画面，&lt;br&gt;&amp;nbsp; &amp;nbsp; &amp;nbsp; &amp;nbsp; &amp;nbsp; &amp;nbsp; &amp;nbsp; 还要有1、2、3画面；&lt;br&gt;&lt;/font&gt;&lt;/font&gt;&lt;/font&gt;&lt;/font&gt;&lt;/font&gt;&lt;/font&gt;&lt;/font&gt;&lt;/font&gt;&lt;font style=&quot;vertical-align: inherit&quot;&gt;&lt;font style=&quot;vertical-align: inherit&quot;&gt;&lt;font style=&quot;vertical-align: inherit&quot;&gt;&lt;font style=&quot;vertical-align: inherit&quot;&gt;&lt;font style=&quot;vertical-align: inherit&quot;&gt;&lt;font style=&quot;vertical-align: inherit&quot;&gt;&lt;font style=&quot;vertical-align: inherit&quot;&gt;&lt;font style=&quot;vertical-align: inherit&quot;&gt;&amp;nbsp; &amp;nbsp; &amp;nbsp; &amp;nbsp; &amp;nbsp; &amp;nbsp; &amp;nbsp; 0画面为原生画面（来自摄像头音频+视频的输出）&lt;br&gt;&amp;nbsp; &amp;nbsp; &amp;nbsp; &amp;nbsp;③、1、2、3&lt;/font&gt;&lt;/font&gt;&lt;/font&gt;&lt;/font&gt;&lt;/font&gt;&lt;/font&gt;&lt;/font&gt;&lt;/font&gt;&lt;font style=&quot;vertical-align: inherit&quot;&gt;&lt;font style=&quot;vertical-align: inherit&quot;&gt;&lt;font style=&quot;vertical-align: inherit&quot;&gt;&lt;font style=&quot;vertical-align: inherit&quot;&gt;&lt;font style=&quot;vertical-align: inherit&quot;&gt;&lt;font style=&quot;vertical-align: inherit&quot;&gt;&lt;font style=&quot;vertical-align: inherit&quot;&gt;&lt;font style=&quot;vertical-align: inherit&quot;&gt;画面为0画面的拷贝，&lt;br&gt;&amp;nbsp; &amp;nbsp; &amp;nbsp; &amp;nbsp; &amp;nbsp; &amp;nbsp; &amp;nbsp; 插入来自翻译室对应翻译人员a、b、c的音频，&lt;br&gt;&lt;/font&gt;&lt;/font&gt;&lt;/font&gt;&lt;/font&gt;&lt;/font&gt;&lt;/font&gt;&lt;/font&gt;&lt;/font&gt;&lt;font style=&quot;vertical-align: inherit&quot;&gt;&lt;font style=&quot;vertical-align: inherit&quot;&gt;&lt;font style=&quot;vertical-align: inherit&quot;&gt;&lt;font style=&quot;vertical-align: inherit&quot;&gt;&lt;font style=&quot;vertical-align: inherit&quot;&gt;&lt;font style=&quot;vertical-align: inherit&quot;&gt;&lt;font style=&quot;vertical-align: inherit&quot;&gt;&lt;font style=&quot;vertical-align: inherit&quot;&gt;&amp;nbsp; &amp;nbsp; &amp;nbsp; &amp;nbsp; &amp;nbsp; &amp;nbsp; &amp;nbsp; 并形成各自画面的完整音视频源输出并存储。&lt;/font&gt;&lt;/font&gt;&lt;/font&gt;&lt;/font&gt;&lt;/font&gt;&lt;/font&gt;&lt;/font&gt;&lt;/font&gt;" style="text;html=1;align=left;verticalAlign=middle;resizable=0;points=[];autosize=1;" parent="1" vertex="1">
          <mxGeometry x="-58" y="360" width="340" height="140" as="geometry" />
        </mxCell>
        <mxCell id="o995Ws5FP9cgEdBSJyOs-67" value="" style="endArrow=classic;html=1;strokeColor=#FF3333;strokeWidth=2;endSize=3;startSize=3;" parent="1" edge="1">
          <mxGeometry width="50" height="50" relative="1" as="geometry">
            <mxPoint x="690" y="480" as="sourcePoint" />
            <mxPoint x="800" y="480" as="targetPoint" />
          </mxGeometry>
        </mxCell>
        <mxCell id="o995Ws5FP9cgEdBSJyOs-68" value="&lt;b&gt;&lt;font style=&quot;vertical-align: inherit&quot;&gt;&lt;font style=&quot;vertical-align: inherit&quot;&gt;说明：&lt;/font&gt;&lt;/font&gt;&lt;/b&gt;" style="text;html=1;align=center;verticalAlign=middle;resizable=0;points=[];autosize=1;" parent="1" vertex="1">
          <mxGeometry x="604" y="440" width="50" height="20" as="geometry" />
        </mxCell>
        <mxCell id="o995Ws5FP9cgEdBSJyOs-69" value="视频信号线：" style="text;html=1;align=center;verticalAlign=middle;resizable=0;points=[];autosize=1;" parent="1" vertex="1">
          <mxGeometry x="605" y="470" width="90" height="20" as="geometry" />
        </mxCell>
        <mxCell id="o995Ws5FP9cgEdBSJyOs-70" value="" style="endArrow=classic;html=1;strokeWidth=2;dashed=1;startSize=3;endSize=3;" parent="1" edge="1">
          <mxGeometry width="50" height="50" relative="1" as="geometry">
            <mxPoint x="690" y="520" as="sourcePoint" />
            <mxPoint x="800" y="520" as="targetPoint" />
          </mxGeometry>
        </mxCell>
        <mxCell id="o995Ws5FP9cgEdBSJyOs-71" value="音频信号线：" style="text;html=1;align=center;verticalAlign=middle;resizable=0;points=[];autosize=1;" parent="1" vertex="1">
          <mxGeometry x="605" y="505" width="90" height="20" as="geometry" />
        </mxCell>
        <mxCell id="o995Ws5FP9cgEdBSJyOs-11" value="" style="edgeStyle=elbowEdgeStyle;elbow=horizontal;endArrow=classic;html=1;exitX=0.9;exitY=0.93;exitDx=0;exitDy=0;exitPerimeter=0;strokeWidth=2;strokeColor=#FF3333;entryX=0.5;entryY=0;entryDx=0;entryDy=0;entryPerimeter=0;endSize=3;startSize=3;" parent="1" source="o995Ws5FP9cgEdBSJyOs-4" target="o995Ws5FP9cgEdBSJyOs-19" edge="1">
          <mxGeometry width="50" height="50" relative="1" as="geometry">
            <mxPoint x="400" y="50" as="sourcePoint" />
            <mxPoint x="404.9961156348804" y="437.5000000000002" as="targetPoint" />
            <Array as="points">
              <mxPoint x="355" y="230" />
              <mxPoint x="430" y="340" />
            </Array>
          </mxGeometry>
        </mxCell>
        <mxCell id="o995Ws5FP9cgEdBSJyOs-4" value="&lt;font style=&quot;vertical-align: inherit&quot;&gt;&lt;font style=&quot;vertical-align: inherit&quot;&gt;&lt;br&gt;&lt;/font&gt;&lt;/font&gt;" style="fontColor=#0066CC;verticalAlign=top;verticalLabelPosition=bottom;labelPosition=center;align=center;html=1;outlineConnect=0;fillColor=#CCCCCC;strokeColor=#6881B3;gradientColor=none;gradientDirection=north;strokeWidth=2;shape=mxgraph.networks.security_camera;rotation=90;flipH=0;flipV=1;" parent="1" vertex="1">
          <mxGeometry x="320" y="30" width="20" height="20" as="geometry" />
        </mxCell>
        <mxCell id="6O5VOnTtsWv0jZJuEP0G-2" value="&lt;b&gt;ZigBee&lt;/b&gt;" style="rounded=1;whiteSpace=wrap;html=1;" parent="1" vertex="1">
          <mxGeometry x="-800" y="221" width="70" height="30" as="geometry" />
        </mxCell>
        <mxCell id="6O5VOnTtsWv0jZJuEP0G-3" value="" style="edgeStyle=elbowEdgeStyle;elbow=horizontal;endArrow=classic;html=1;exitX=1;exitY=0.5;exitDx=0;exitDy=0;" parent="1" source="6O5VOnTtsWv0jZJuEP0G-2" edge="1">
          <mxGeometry width="50" height="50" relative="1" as="geometry">
            <mxPoint x="-580" y="140" as="sourcePoint" />
            <mxPoint x="-600" y="80" as="targetPoint" />
            <Array as="points">
              <mxPoint x="-640" y="100" />
            </Array>
          </mxGeometry>
        </mxCell>
        <mxCell id="6O5VOnTtsWv0jZJuEP0G-4" value="&lt;b&gt;PHY&lt;/b&gt;" style="rounded=1;whiteSpace=wrap;html=1;" parent="1" vertex="1">
          <mxGeometry x="-600" y="65" width="90" height="30" as="geometry" />
        </mxCell>
        <mxCell id="6O5VOnTtsWv0jZJuEP0G-5" value="&lt;b&gt;Path choice&lt;/b&gt;" style="rounded=1;whiteSpace=wrap;html=1;" parent="1" vertex="1">
          <mxGeometry x="-458" y="250" width="90" height="30" as="geometry" />
        </mxCell>
        <mxCell id="6O5VOnTtsWv0jZJuEP0G-6" value="&lt;b&gt;MAC&lt;/b&gt;" style="rounded=1;whiteSpace=wrap;html=1;" parent="1" vertex="1">
          <mxGeometry x="-598" y="191" width="90" height="30" as="geometry" />
        </mxCell>
        <mxCell id="6O5VOnTtsWv0jZJuEP0G-7" value="&lt;b&gt;NWK&lt;/b&gt;" style="rounded=1;whiteSpace=wrap;html=1;" parent="1" vertex="1">
          <mxGeometry x="-608" y="290" width="110" height="30" as="geometry" />
        </mxCell>
        <mxCell id="6O5VOnTtsWv0jZJuEP0G-9" value="" style="edgeStyle=elbowEdgeStyle;elbow=horizontal;endArrow=classic;html=1;exitX=1;exitY=0.5;exitDx=0;exitDy=0;entryX=0;entryY=0.5;entryDx=0;entryDy=0;" parent="1" source="6O5VOnTtsWv0jZJuEP0G-4" target="6O5VOnTtsWv0jZJuEP0G-18" edge="1">
          <mxGeometry width="50" height="50" relative="1" as="geometry">
            <mxPoint x="-482" y="80" as="sourcePoint" />
            <mxPoint x="-470" y="25" as="targetPoint" />
            <Array as="points">
              <mxPoint x="-390" y="70" />
            </Array>
          </mxGeometry>
        </mxCell>
        <mxCell id="6O5VOnTtsWv0jZJuEP0G-10" value="控制、并与其通信" style="text;html=1;align=center;verticalAlign=middle;resizable=0;points=[];autosize=1;" parent="1" vertex="1">
          <mxGeometry x="-510" y="60" width="110" height="20" as="geometry" />
        </mxCell>
        <mxCell id="6O5VOnTtsWv0jZJuEP0G-11" value="激活设备、选择信道" style="text;html=1;align=center;verticalAlign=middle;resizable=0;points=[];autosize=1;" parent="1" vertex="1">
          <mxGeometry x="-511" y="79" width="120" height="20" as="geometry" />
        </mxCell>
        <mxCell id="6O5VOnTtsWv0jZJuEP0G-12" value="" style="edgeStyle=elbowEdgeStyle;elbow=horizontal;endArrow=classic;html=1;exitX=0.5;exitY=0;exitDx=0;exitDy=0;entryX=0.5;entryY=1;entryDx=0;entryDy=0;" parent="1" source="6O5VOnTtsWv0jZJuEP0G-6" target="6O5VOnTtsWv0jZJuEP0G-4" edge="1">
          <mxGeometry width="50" height="50" relative="1" as="geometry">
            <mxPoint x="-660" y="155" as="sourcePoint" />
            <mxPoint x="-580" y="120" as="targetPoint" />
            <Array as="points">
              <mxPoint x="-555" y="150" />
            </Array>
          </mxGeometry>
        </mxCell>
        <mxCell id="6O5VOnTtsWv0jZJuEP0G-15" value="" style="edgeStyle=elbowEdgeStyle;elbow=horizontal;endArrow=classic;html=1;exitX=1;exitY=0.5;exitDx=0;exitDy=0;entryX=0;entryY=0.5;entryDx=0;entryDy=0;" parent="1" source="6O5VOnTtsWv0jZJuEP0G-7" target="6O5VOnTtsWv0jZJuEP0G-5" edge="1">
          <mxGeometry width="50" height="50" relative="1" as="geometry">
            <mxPoint x="-525" y="215" as="sourcePoint" />
            <mxPoint x="-410" y="305" as="targetPoint" />
            <Array as="points" />
          </mxGeometry>
        </mxCell>
        <mxCell id="6O5VOnTtsWv0jZJuEP0G-16" value="" style="edgeStyle=elbowEdgeStyle;elbow=horizontal;endArrow=classic;html=1;exitX=0.5;exitY=1;exitDx=0;exitDy=0;entryX=0.5;entryY=0;entryDx=0;entryDy=0;" parent="1" source="6O5VOnTtsWv0jZJuEP0G-6" target="6O5VOnTtsWv0jZJuEP0G-7" edge="1">
          <mxGeometry width="50" height="50" relative="1" as="geometry">
            <mxPoint x="-515" y="225" as="sourcePoint" />
            <mxPoint x="-545" y="250" as="targetPoint" />
            <Array as="points" />
          </mxGeometry>
        </mxCell>
        <mxCell id="6O5VOnTtsWv0jZJuEP0G-18" value="&lt;b&gt;触发开关&lt;/b&gt;" style="rounded=1;whiteSpace=wrap;html=1;" parent="1" vertex="1">
          <mxGeometry x="-376" y="30" width="82" height="30" as="geometry" />
        </mxCell>
        <mxCell id="6O5VOnTtsWv0jZJuEP0G-19" value="&lt;b&gt;信道频率&lt;/b&gt;" style="rounded=1;whiteSpace=wrap;html=1;" parent="1" vertex="1">
          <mxGeometry x="-376" y="89" width="82" height="30" as="geometry" />
        </mxCell>
        <mxCell id="6O5VOnTtsWv0jZJuEP0G-21" value="" style="edgeStyle=elbowEdgeStyle;elbow=horizontal;endArrow=classic;html=1;exitX=1;exitY=0.5;exitDx=0;exitDy=0;entryX=0;entryY=0.5;entryDx=0;entryDy=0;" parent="1" source="6O5VOnTtsWv0jZJuEP0G-4" target="6O5VOnTtsWv0jZJuEP0G-19" edge="1">
          <mxGeometry width="50" height="50" relative="1" as="geometry">
            <mxPoint x="-500" y="90" as="sourcePoint" />
            <mxPoint x="-366" y="5" as="targetPoint" />
            <Array as="points">
              <mxPoint x="-390" y="90" />
              <mxPoint x="-410" y="90" />
            </Array>
          </mxGeometry>
        </mxCell>
        <mxCell id="6O5VOnTtsWv0jZJuEP0G-23" value="&lt;b&gt;无线设备&lt;/b&gt;" style="rounded=1;whiteSpace=wrap;html=1;" parent="1" vertex="1">
          <mxGeometry x="-250" y="65" width="82" height="30" as="geometry" />
        </mxCell>
        <mxCell id="6O5VOnTtsWv0jZJuEP0G-24" value="" style="edgeStyle=elbowEdgeStyle;elbow=horizontal;endArrow=classic;html=1;exitX=1;exitY=0.5;exitDx=0;exitDy=0;entryX=0;entryY=0.5;entryDx=0;entryDy=0;" parent="1" source="6O5VOnTtsWv0jZJuEP0G-18" target="6O5VOnTtsWv0jZJuEP0G-23" edge="1">
          <mxGeometry width="50" height="50" relative="1" as="geometry">
            <mxPoint x="-522.5" y="105" as="sourcePoint" />
            <mxPoint x="-522" y="240" as="targetPoint" />
            <Array as="points" />
          </mxGeometry>
        </mxCell>
        <mxCell id="6O5VOnTtsWv0jZJuEP0G-25" value="" style="edgeStyle=elbowEdgeStyle;elbow=horizontal;endArrow=classic;html=1;exitX=1;exitY=0.5;exitDx=0;exitDy=0;entryX=0;entryY=0.5;entryDx=0;entryDy=0;" parent="1" source="6O5VOnTtsWv0jZJuEP0G-19" target="6O5VOnTtsWv0jZJuEP0G-23" edge="1">
          <mxGeometry width="50" height="50" relative="1" as="geometry">
            <mxPoint x="-284" y="55" as="sourcePoint" />
            <mxPoint x="-220" y="84" as="targetPoint" />
            <Array as="points">
              <mxPoint x="-270" y="90" />
            </Array>
          </mxGeometry>
        </mxCell>
        <mxCell id="6O5VOnTtsWv0jZJuEP0G-26" value="" style="edgeStyle=elbowEdgeStyle;elbow=horizontal;endArrow=classic;html=1;exitX=0.5;exitY=1;exitDx=0;exitDy=0;entryX=1;entryY=0.5;entryDx=0;entryDy=0;" parent="1" source="6O5VOnTtsWv0jZJuEP0G-23" target="6O5VOnTtsWv0jZJuEP0G-6" edge="1">
          <mxGeometry width="50" height="50" relative="1" as="geometry">
            <mxPoint x="-240" y="210" as="sourcePoint" />
            <mxPoint x="-530" y="191" as="targetPoint" />
            <Array as="points">
              <mxPoint x="-209" y="110" />
              <mxPoint x="-530" y="120" />
              <mxPoint x="-530" y="170" />
              <mxPoint x="-250" y="170" />
              <mxPoint x="-410" y="130" />
              <mxPoint x="-532" y="130" />
              <mxPoint x="-470" y="210" />
              <mxPoint x="-250" y="120" />
              <mxPoint x="-532" y="110" />
            </Array>
          </mxGeometry>
        </mxCell>
        <mxCell id="6O5VOnTtsWv0jZJuEP0G-30" value="&lt;b&gt;APL&lt;/b&gt;" style="rounded=1;whiteSpace=wrap;html=1;" parent="1" vertex="1">
          <mxGeometry x="-601" y="360" width="90" height="30" as="geometry" />
        </mxCell>
        <mxCell id="6O5VOnTtsWv0jZJuEP0G-31" value="&lt;b&gt;ZigBee Coordinator&lt;/b&gt;" style="rounded=1;whiteSpace=wrap;html=1;" parent="1" vertex="1">
          <mxGeometry x="-320" y="290" width="110" height="30" as="geometry" />
        </mxCell>
        <mxCell id="6O5VOnTtsWv0jZJuEP0G-32" value="&lt;b&gt;Router&lt;/b&gt;" style="rounded=1;whiteSpace=wrap;html=1;" parent="1" vertex="1">
          <mxGeometry x="-320" y="213" width="110" height="30" as="geometry" />
        </mxCell>
        <mxCell id="6O5VOnTtsWv0jZJuEP0G-33" value="" style="edgeStyle=elbowEdgeStyle;elbow=horizontal;endArrow=classic;html=1;exitX=1;exitY=0.5;exitDx=0;exitDy=0;entryX=0;entryY=0.5;entryDx=0;entryDy=0;" parent="1" source="6O5VOnTtsWv0jZJuEP0G-5" target="6O5VOnTtsWv0jZJuEP0G-32" edge="1">
          <mxGeometry width="50" height="50" relative="1" as="geometry">
            <mxPoint x="-488" y="315" as="sourcePoint" />
            <mxPoint x="-448" y="275" as="targetPoint" />
            <Array as="points" />
          </mxGeometry>
        </mxCell>
        <mxCell id="6O5VOnTtsWv0jZJuEP0G-34" value="" style="edgeStyle=elbowEdgeStyle;elbow=horizontal;endArrow=classic;html=1;exitX=1;exitY=0.5;exitDx=0;exitDy=0;entryX=0;entryY=0.5;entryDx=0;entryDy=0;" parent="1" source="6O5VOnTtsWv0jZJuEP0G-5" target="6O5VOnTtsWv0jZJuEP0G-31" edge="1">
          <mxGeometry width="50" height="50" relative="1" as="geometry">
            <mxPoint x="-358" y="275" as="sourcePoint" />
            <mxPoint x="-310" y="238" as="targetPoint" />
            <Array as="points" />
          </mxGeometry>
        </mxCell>
        <mxCell id="6O5VOnTtsWv0jZJuEP0G-35" value="" style="edgeStyle=elbowEdgeStyle;elbow=horizontal;endArrow=classic;html=1;exitX=1;exitY=0.5;exitDx=0;exitDy=0;entryX=0;entryY=0.5;entryDx=0;entryDy=0;" parent="1" source="6O5VOnTtsWv0jZJuEP0G-2" target="6O5VOnTtsWv0jZJuEP0G-30" edge="1">
          <mxGeometry width="50" height="50" relative="1" as="geometry">
            <mxPoint x="-660" y="155" as="sourcePoint" />
            <mxPoint x="-590" y="90" as="targetPoint" />
            <Array as="points">
              <mxPoint x="-640" y="280" />
            </Array>
          </mxGeometry>
        </mxCell>
        <mxCell id="6O5VOnTtsWv0jZJuEP0G-36" value="&lt;b&gt;面向硬件层之上的应用开发接口&lt;/b&gt;" style="rounded=1;whiteSpace=wrap;html=1;" parent="1" vertex="1">
          <mxGeometry x="-310" y="360" width="90" height="30" as="geometry" />
        </mxCell>
        <mxCell id="6O5VOnTtsWv0jZJuEP0G-38" value="" style="edgeStyle=elbowEdgeStyle;elbow=horizontal;endArrow=classic;html=1;exitX=1;exitY=0.5;exitDx=0;exitDy=0;entryX=0;entryY=0.5;entryDx=0;entryDy=0;" parent="1" source="6O5VOnTtsWv0jZJuEP0G-2" target="6O5VOnTtsWv0jZJuEP0G-6" edge="1">
          <mxGeometry width="50" height="50" relative="1" as="geometry">
            <mxPoint x="-660" y="155" as="sourcePoint" />
            <mxPoint x="-591" y="385" as="targetPoint" />
            <Array as="points">
              <mxPoint x="-640" y="206" />
              <mxPoint x="-620" y="206" />
              <mxPoint x="-640" y="170" />
            </Array>
          </mxGeometry>
        </mxCell>
        <mxCell id="6O5VOnTtsWv0jZJuEP0G-39" value="" style="edgeStyle=elbowEdgeStyle;elbow=horizontal;endArrow=classic;html=1;exitX=1;exitY=0.5;exitDx=0;exitDy=0;entryX=0;entryY=0.5;entryDx=0;entryDy=0;" parent="1" source="6O5VOnTtsWv0jZJuEP0G-2" target="6O5VOnTtsWv0jZJuEP0G-7" edge="1">
          <mxGeometry width="50" height="50" relative="1" as="geometry">
            <mxPoint x="-650" y="165" as="sourcePoint" />
            <mxPoint x="-581" y="395" as="targetPoint" />
            <Array as="points">
              <mxPoint x="-639" y="250" />
            </Array>
          </mxGeometry>
        </mxCell>
        <mxCell id="6O5VOnTtsWv0jZJuEP0G-40" value="无线网络的4层&lt;br&gt;及其职责" style="text;html=1;align=center;verticalAlign=middle;resizable=0;points=[];autosize=1;" parent="1" vertex="1">
          <mxGeometry x="-732" y="221.44" width="90" height="30" as="geometry" />
        </mxCell>
        <mxCell id="6O5VOnTtsWv0jZJuEP0G-41" value="" style="edgeStyle=elbowEdgeStyle;elbow=horizontal;endArrow=classic;html=1;exitX=1;exitY=0.5;exitDx=0;exitDy=0;entryX=0;entryY=0.5;entryDx=0;entryDy=0;" parent="1" source="6O5VOnTtsWv0jZJuEP0G-30" target="6O5VOnTtsWv0jZJuEP0G-36" edge="1">
          <mxGeometry width="50" height="50" relative="1" as="geometry">
            <mxPoint x="-490" y="460" as="sourcePoint" />
            <mxPoint x="-440" y="410" as="targetPoint" />
          </mxGeometry>
        </mxCell>
        <mxCell id="Ukg85vJx6AmNJHNjjrwK-1" value="&lt;b&gt;beacon enabled&lt;/b&gt;" style="text;html=1;align=center;verticalAlign=middle;resizable=0;points=[];autosize=1;" parent="1" vertex="1">
          <mxGeometry x="-430" y="190" width="110" height="20" as="geometry" />
        </mxCell>
        <mxCell id="Ukg85vJx6AmNJHNjjrwK-2" value="单个设备上最多有240个应用对象" style="text;html=1;align=center;verticalAlign=middle;resizable=0;points=[];autosize=1;" parent="1" vertex="1">
          <mxGeometry x="-506" y="356" width="190" height="20" as="geometry" />
        </mxCell>
        <mxCell id="Ukg85vJx6AmNJHNjjrwK-4" value="&lt;b&gt;APL&lt;/b&gt;" style="rounded=0;whiteSpace=wrap;html=1;" parent="1" vertex="1">
          <mxGeometry x="-780" y="476" width="270" height="30" as="geometry" />
        </mxCell>
        <mxCell id="Ukg85vJx6AmNJHNjjrwK-5" value="&lt;b&gt;ZigBee协议四层逻辑流程&lt;br&gt;&lt;/b&gt;&lt;b&gt;ZigBee无线网络协议层各层的作用&lt;/b&gt;&lt;b&gt;&lt;br&gt;&lt;/b&gt;" style="text;html=1;align=center;verticalAlign=middle;resizable=0;points=[];autosize=1;" parent="1" vertex="1">
          <mxGeometry x="-801" y="390" width="200" height="30" as="geometry" />
        </mxCell>
        <mxCell id="Ukg85vJx6AmNJHNjjrwK-6" value="802.2 LLC" style="rounded=0;whiteSpace=wrap;html=1;" parent="1" vertex="1">
          <mxGeometry x="-770" y="543" width="110" height="29" as="geometry" />
        </mxCell>
        <mxCell id="Ukg85vJx6AmNJHNjjrwK-7" value="SSCS" style="rounded=0;whiteSpace=wrap;html=1;" parent="1" vertex="1">
          <mxGeometry x="-770" y="611" width="110" height="29" as="geometry" />
        </mxCell>
        <mxCell id="Ukg85vJx6AmNJHNjjrwK-8" value="&lt;b&gt;MAC子层&lt;span style=&quot;color: rgba(0 , 0 , 0 , 0) ; font-family: monospace ; font-size: 0px&quot;&gt;%3CmxGraphModel%3E%3Croot%3E%3CmxCell%20id%3D%220%22%2F%3E%3CmxCell%20id%3D%221%22%20parent%3D%220%22%2F%3E%3CmxCell%20id%3D%222%22%20value%3D%22802.2%20LLC%22%20style%3D%22rounded%3D0%3BwhiteSpace%3Dwrap%3Bhtml%3D1%3B%22%20vertex%3D%221%22%20parent%3D%221%22%3E%3CmxGeometry%20x%3D%22-770%22%20y%3D%22541%22%20width%3D%22110%22%20height%3D%2229%22%20as%3D%22geometry%22%2F%3E%3C%2FmxCell%3E%3C%2Froot%3E%3C%2FmxGraphModel%3E&lt;/span&gt;&lt;/b&gt;" style="rounded=0;whiteSpace=wrap;html=1;" parent="1" vertex="1">
          <mxGeometry x="-780" y="680" width="270" height="29" as="geometry" />
        </mxCell>
        <mxCell id="Ukg85vJx6AmNJHNjjrwK-9" value="&lt;b&gt;PHY&lt;/b&gt;" style="rounded=0;whiteSpace=wrap;html=1;" parent="1" vertex="1">
          <mxGeometry x="-780" y="749" width="270" height="29" as="geometry" />
        </mxCell>
        <mxCell id="Ukg85vJx6AmNJHNjjrwK-10" value="" style="shape=flexArrow;endArrow=classic;startArrow=classic;html=1;startWidth=11;startSize=2.97;endWidth=11;endSize=2.97;entryX=0.25;entryY=1;entryDx=0;entryDy=0;" parent="1" target="Ukg85vJx6AmNJHNjjrwK-7" edge="1">
          <mxGeometry width="50" height="50" relative="1" as="geometry">
            <mxPoint x="-742" y="679" as="sourcePoint" />
            <mxPoint x="-720" y="650" as="targetPoint" />
          </mxGeometry>
        </mxCell>
        <mxCell id="Ukg85vJx6AmNJHNjjrwK-11" value="" style="shape=flexArrow;endArrow=classic;startArrow=classic;html=1;startWidth=11;startSize=2.97;endWidth=11;endSize=2.97;entryX=0.25;entryY=1;entryDx=0;entryDy=0;" parent="1" edge="1">
          <mxGeometry width="50" height="50" relative="1" as="geometry">
            <mxPoint x="-737" y="748" as="sourcePoint" />
            <mxPoint x="-737.5" y="709" as="targetPoint" />
          </mxGeometry>
        </mxCell>
        <mxCell id="Ukg85vJx6AmNJHNjjrwK-12" value="" style="shape=flexArrow;endArrow=classic;startArrow=classic;html=1;startWidth=11;startSize=2.97;endWidth=11;endSize=2.97;entryX=0.25;entryY=1;entryDx=0;entryDy=0;" parent="1" edge="1">
          <mxGeometry width="50" height="50" relative="1" as="geometry">
            <mxPoint x="-569.5" y="748" as="sourcePoint" />
            <mxPoint x="-570" y="709" as="targetPoint" />
          </mxGeometry>
        </mxCell>
        <mxCell id="Ukg85vJx6AmNJHNjjrwK-13" value="" style="shape=flexArrow;endArrow=classic;startArrow=classic;html=1;startWidth=11;startSize=2.97;endWidth=11;endSize=2.97;entryX=0.25;entryY=1;entryDx=0;entryDy=0;" parent="1" edge="1">
          <mxGeometry width="50" height="50" relative="1" as="geometry">
            <mxPoint x="-717" y="611" as="sourcePoint" />
            <mxPoint x="-717.5" y="572" as="targetPoint" />
          </mxGeometry>
        </mxCell>
        <mxCell id="Ukg85vJx6AmNJHNjjrwK-14" value="" style="shape=flexArrow;endArrow=classic;startArrow=classic;html=1;startWidth=11;startSize=2.97;endWidth=11;endSize=2.97;entryX=0.25;entryY=1;entryDx=0;entryDy=0;" parent="1" edge="1">
          <mxGeometry width="50" height="50" relative="1" as="geometry">
            <mxPoint x="-719.5" y="544" as="sourcePoint" />
            <mxPoint x="-720" y="505" as="targetPoint" />
          </mxGeometry>
        </mxCell>
        <mxCell id="Ukg85vJx6AmNJHNjjrwK-15" value="&lt;span style=&quot;color: rgb(51 , 51 , 51) ; font-family: &amp;#34;arial&amp;#34; , &amp;#34;microsoft yahei&amp;#34; , &amp;#34;\\5fae软雅黑&amp;#34; , &amp;#34;\\5b8b体&amp;#34; , &amp;#34;malgun gothic&amp;#34; , &amp;#34;meiryo&amp;#34; , sans-serif ; line-height: 21px ; background-color: rgb(255 , 255 , 255)&quot;&gt;&lt;font style=&quot;font-size: 9px&quot;&gt;service specific convergence sublayer&lt;/font&gt;&lt;/span&gt;" style="text;html=1;align=center;verticalAlign=middle;resizable=0;points=[];autosize=1;" parent="1" vertex="1">
          <mxGeometry x="-730" y="633" width="220" height="30" as="geometry" />
        </mxCell>
        <mxCell id="Ukg85vJx6AmNJHNjjrwK-19" value="&lt;font style=&quot;font-size: 9px&quot;&gt;Logic Link Control&lt;/font&gt;" style="text;html=1;align=center;verticalAlign=middle;resizable=0;points=[];autosize=1;" parent="1" vertex="1">
          <mxGeometry x="-710" y="571" width="110" height="20" as="geometry" />
        </mxCell>
        <mxCell id="Ukg85vJx6AmNJHNjjrwK-21" value="PHY" style="rounded=0;whiteSpace=wrap;html=1;" parent="1" vertex="1">
          <mxGeometry x="-454" y="750" width="240" height="28" as="geometry" />
        </mxCell>
        <mxCell id="Ukg85vJx6AmNJHNjjrwK-22" value="MAC" style="rounded=0;whiteSpace=wrap;html=1;" parent="1" vertex="1">
          <mxGeometry x="-454" y="698" width="240" height="28" as="geometry" />
        </mxCell>
        <mxCell id="Ukg85vJx6AmNJHNjjrwK-23" value="DLL(Data Link Layer)" style="rounded=0;whiteSpace=wrap;html=1;" parent="1" vertex="1">
          <mxGeometry x="-455" y="640" width="240" height="28" as="geometry" />
        </mxCell>
        <mxCell id="Ukg85vJx6AmNJHNjjrwK-24" value="NWK" style="rounded=0;whiteSpace=wrap;html=1;" parent="1" vertex="1">
          <mxGeometry x="-455" y="583" width="240" height="28" as="geometry" />
        </mxCell>
        <mxCell id="Ukg85vJx6AmNJHNjjrwK-25" value="应用接口" style="rounded=0;whiteSpace=wrap;html=1;" parent="1" vertex="1">
          <mxGeometry x="-455" y="530" width="240" height="28" as="geometry" />
        </mxCell>
        <mxCell id="Ukg85vJx6AmNJHNjjrwK-26" value="应用" style="rounded=0;whiteSpace=wrap;html=1;" parent="1" vertex="1">
          <mxGeometry x="-458" y="477" width="240" height="28" as="geometry" />
        </mxCell>
        <mxCell id="Ukg85vJx6AmNJHNjjrwK-27" value="&lt;b&gt;NWK&lt;/b&gt;" style="text;html=1;align=center;verticalAlign=middle;resizable=0;points=[];autosize=1;" parent="1" vertex="1">
          <mxGeometry x="-560" y="538" width="40" height="20" as="geometry" />
        </mxCell>
        <mxCell id="Dfw8BtGnLvOsA7QvDN78-1" value="" style="endArrow=none;html=1;rounded=0;" edge="1" parent="1">
          <mxGeometry width="50" height="50" relative="1" as="geometry">
            <mxPoint x="240" y="210" as="sourcePoint" />
            <mxPoint x="90" y="210" as="targetPoint" />
          </mxGeometry>
        </mxCell>
        <mxCell id="Dfw8BtGnLvOsA7QvDN78-2" value="" style="endArrow=none;html=1;rounded=0;exitX=-0.25;exitY=1.346;exitDx=0;exitDy=0;exitPerimeter=0;" edge="1" parent="1" source="Dfw8BtGnLvOsA7QvDN78-8">
          <mxGeometry width="50" height="50" relative="1" as="geometry">
            <mxPoint x="300" y="154.5" as="sourcePoint" />
            <mxPoint x="90" y="154.5" as="targetPoint" />
          </mxGeometry>
        </mxCell>
        <mxCell id="Dfw8BtGnLvOsA7QvDN78-3" value="&lt;font color=&quot;#0000cc&quot;&gt;翻译b&lt;/font&gt;" style="pointerEvents=1;shadow=0;dashed=0;html=1;strokeColor=none;fillColor=#0000CC;labelPosition=center;verticalLabelPosition=bottom;verticalAlign=top;outlineConnect=0;align=center;shape=mxgraph.office.users.call_center_agent;" vertex="1" parent="1">
          <mxGeometry x="170" y="160" width="30" height="26" as="geometry" />
        </mxCell>
        <mxCell id="Dfw8BtGnLvOsA7QvDN78-5" value="" style="endArrow=none;html=1;rounded=0;" edge="1" parent="1">
          <mxGeometry width="50" height="50" relative="1" as="geometry">
            <mxPoint x="240" y="104" as="sourcePoint" />
            <mxPoint x="90" y="103.5" as="targetPoint" />
          </mxGeometry>
        </mxCell>
        <mxCell id="Dfw8BtGnLvOsA7QvDN78-6" value="&lt;font color=&quot;#0000cc&quot;&gt;翻译c&lt;/font&gt;" style="pointerEvents=1;shadow=0;dashed=0;html=1;strokeColor=none;fillColor=#0000CC;labelPosition=center;verticalLabelPosition=bottom;verticalAlign=top;outlineConnect=0;align=center;shape=mxgraph.office.users.call_center_agent;" vertex="1" parent="1">
          <mxGeometry x="170" y="110" width="30" height="26" as="geometry" />
        </mxCell>
        <mxCell id="Dfw8BtGnLvOsA7QvDN78-7" value="" style="pointerEvents=1;shadow=0;dashed=0;html=1;strokeColor=none;fillColor=#0000CC;labelPosition=center;verticalLabelPosition=bottom;verticalAlign=top;outlineConnect=0;align=center;shape=mxgraph.office.devices.microphone;flipV=0;flipH=1;" vertex="1" parent="1">
          <mxGeometry x="215" y="165" width="20" height="26" as="geometry" />
        </mxCell>
        <mxCell id="Dfw8BtGnLvOsA7QvDN78-8" value="" style="pointerEvents=1;shadow=0;dashed=0;html=1;strokeColor=none;fillColor=#0000CC;labelPosition=center;verticalLabelPosition=bottom;verticalAlign=top;outlineConnect=0;align=center;shape=mxgraph.office.devices.microphone;flipV=0;flipH=1;" vertex="1" parent="1">
          <mxGeometry x="215" y="119" width="20" height="26" as="geometry" />
        </mxCell>
        <mxCell id="Dfw8BtGnLvOsA7QvDN78-12" value="" style="rounded=1;whiteSpace=wrap;html=1;strokeColor=#000000;strokeWidth=1;arcSize=10;fillColor=#B5739D;" vertex="1" parent="1">
          <mxGeometry x="420" y="554" width="153" height="79" as="geometry" />
        </mxCell>
        <mxCell id="Dfw8BtGnLvOsA7QvDN78-13" value="" style="rounded=1;whiteSpace=wrap;html=1;strokeColor=#000000;strokeWidth=1;arcSize=10;fillColor=#B5739D;" vertex="1" parent="1">
          <mxGeometry x="267" y="634" width="153" height="79" as="geometry" />
        </mxCell>
        <mxCell id="Dfw8BtGnLvOsA7QvDN78-14" value="" style="rounded=1;whiteSpace=wrap;html=1;strokeColor=#000000;strokeWidth=1;arcSize=10;fillColor=#B5739D;" vertex="1" parent="1">
          <mxGeometry x="420" y="634" width="153" height="79" as="geometry" />
        </mxCell>
        <mxCell id="o995Ws5FP9cgEdBSJyOs-28" value="&lt;span style=&quot;background-color: rgb(181, 115, 157);&quot;&gt;&lt;b style=&quot;color: rgb(0, 0, 0); font-family: helvetica; font-style: normal; letter-spacing: normal; text-align: center; text-indent: 0px; text-transform: none; word-spacing: 0px;&quot;&gt;&lt;font style=&quot;font-size: 15px;&quot;&gt;视频监视画面1&lt;br&gt;&lt;/font&gt;&lt;/b&gt;&lt;span style=&quot;color: rgb(0, 0, 0); font-family: helvetica; font-style: normal; letter-spacing: normal; text-align: center; text-indent: 0px; text-transform: none; word-spacing: 0px;&quot;&gt;&lt;font style=&quot;font-size: 12px&quot;&gt;同样&lt;/font&gt;&lt;/span&gt;&lt;span style=&quot;color: rgb(0, 0, 0); font-family: helvetica; font-style: normal; letter-spacing: normal; text-align: center; text-indent: 0px; text-transform: none; word-spacing: 0px;&quot;&gt;&lt;font style=&quot;font-size: 12px;&quot;&gt;显示的是房间A的画面，只是该画面原有的音频被翻译室音频替代。&lt;/font&gt;&lt;/span&gt;&lt;/span&gt;" style="text;whiteSpace=wrap;html=1;" parent="1" vertex="1">
          <mxGeometry x="431.5" y="551" width="130" height="30" as="geometry" />
        </mxCell>
        <mxCell id="Dfw8BtGnLvOsA7QvDN78-15" value="&lt;b style=&quot;color: rgb(0, 0, 0); font-family: helvetica; font-style: normal; letter-spacing: normal; text-align: center; text-indent: 0px; text-transform: none; word-spacing: 0px; background-color: rgb(248, 249, 250);&quot;&gt;&lt;font style=&quot;font-size: 15px;&quot;&gt;视频监视画面2&lt;br&gt;&lt;/font&gt;&lt;/b&gt;&lt;span style=&quot;color: rgb(0 , 0 , 0) ; font-family: &amp;quot;helvetica&amp;quot; ; font-style: normal ; letter-spacing: normal ; text-align: center ; text-indent: 0px ; text-transform: none ; word-spacing: 0px ; background-color: rgb(248 , 249 , 250)&quot;&gt;&lt;font style=&quot;font-size: 12px&quot;&gt;同样&lt;/font&gt;&lt;/span&gt;&lt;span style=&quot;color: rgb(0 , 0 , 0) ; font-family: &amp;quot;helvetica&amp;quot; ; font-style: normal ; letter-spacing: normal ; text-align: center ; text-indent: 0px ; text-transform: none ; word-spacing: 0px ; background-color: rgb(248 , 249 , 250)&quot;&gt;&lt;font style=&quot;font-size: 12px&quot;&gt;显示的是房间A的画面，只是该画面原有的音频被翻译室音频替代。&lt;/font&gt;&lt;/span&gt;" style="text;whiteSpace=wrap;html=1;" vertex="1" parent="1">
          <mxGeometry x="275" y="630" width="130" height="30" as="geometry" />
        </mxCell>
        <mxCell id="Dfw8BtGnLvOsA7QvDN78-16" value="&lt;span style=&quot;background-color: rgb(181, 115, 157);&quot;&gt;&lt;b style=&quot;color: rgb(0, 0, 0); font-family: helvetica; font-style: normal; letter-spacing: normal; text-align: center; text-indent: 0px; text-transform: none; word-spacing: 0px;&quot;&gt;&lt;font style=&quot;font-size: 15px;&quot;&gt;视频监视画面3&lt;br&gt;&lt;/font&gt;&lt;/b&gt;&lt;span style=&quot;color: rgb(0, 0, 0); font-family: helvetica; font-style: normal; letter-spacing: normal; text-align: center; text-indent: 0px; text-transform: none; word-spacing: 0px;&quot;&gt;&lt;font style=&quot;font-size: 12px&quot;&gt;同样&lt;/font&gt;&lt;/span&gt;&lt;span style=&quot;color: rgb(0, 0, 0); font-family: helvetica; font-style: normal; letter-spacing: normal; text-align: center; text-indent: 0px; text-transform: none; word-spacing: 0px;&quot;&gt;&lt;font style=&quot;font-size: 12px;&quot;&gt;显示的是房间A的画面，只是该画面原有的音频被翻译室音频替代。&lt;/font&gt;&lt;/span&gt;&lt;/span&gt;" style="text;whiteSpace=wrap;html=1;" vertex="1" parent="1">
          <mxGeometry x="431.5" y="629" width="130" height="30" as="geometry" />
        </mxCell>
        <mxCell id="Dfw8BtGnLvOsA7QvDN78-26" value="" style="edgeStyle=elbowEdgeStyle;elbow=horizontal;endArrow=classic;html=1;strokeWidth=2;strokeColor=#0000CC;dashed=1;entryX=0.855;entryY=0.145;entryDx=0;entryDy=0;entryPerimeter=0;endSize=3;startSize=3;" edge="1" parent="1" target="Dfw8BtGnLvOsA7QvDN78-27">
          <mxGeometry width="50" height="50" relative="1" as="geometry">
            <mxPoint x="540" y="410" as="sourcePoint" />
            <mxPoint x="520" y="460" as="targetPoint" />
            <Array as="points" />
          </mxGeometry>
        </mxCell>
        <mxCell id="Dfw8BtGnLvOsA7QvDN78-27" value="&lt;font color=&quot;#b5739d&quot; style=&quot;font-size: 12px;&quot;&gt;&lt;b&gt;多路音视频融合切分器&lt;/b&gt;&lt;/font&gt;" style="outlineConnect=0;dashed=0;verticalLabelPosition=bottom;verticalAlign=top;align=center;html=1;shape=mxgraph.aws3.router;fillColor=#B5739D;gradientColor=none;fontSize=15;fontColor=#0000CC;" vertex="1" parent="1">
          <mxGeometry x="440" y="420" width="60" height="50" as="geometry" />
        </mxCell>
        <mxCell id="Dfw8BtGnLvOsA7QvDN78-30" value="&lt;span style=&quot;background-color: rgb(181, 115, 157);&quot;&gt;&lt;b style=&quot;color: rgb(0, 0, 0); font-family: helvetica; font-style: normal; letter-spacing: normal; text-align: center; text-indent: 0px; text-transform: none; word-spacing: 0px;&quot;&gt;&lt;font style=&quot;font-size: 15px;&quot;&gt;视频监视画面2&lt;br&gt;&lt;/font&gt;&lt;/b&gt;&lt;span style=&quot;color: rgb(0, 0, 0); font-family: helvetica; font-style: normal; letter-spacing: normal; text-align: center; text-indent: 0px; text-transform: none; word-spacing: 0px;&quot;&gt;&lt;font style=&quot;font-size: 12px&quot;&gt;同样&lt;/font&gt;&lt;/span&gt;&lt;span style=&quot;color: rgb(0, 0, 0); font-family: helvetica; font-style: normal; letter-spacing: normal; text-align: center; text-indent: 0px; text-transform: none; word-spacing: 0px;&quot;&gt;&lt;font style=&quot;font-size: 12px;&quot;&gt;显示的是房间A的画面，只是该画面原有的音频被翻译室音频替代。&lt;/font&gt;&lt;/span&gt;&lt;/span&gt;" style="text;whiteSpace=wrap;html=1;" vertex="1" parent="1">
          <mxGeometry x="275" y="630" width="130" height="30" as="geometry" />
        </mxCell>
        <mxCell id="Dfw8BtGnLvOsA7QvDN78-32" value="" style="edgeStyle=elbowEdgeStyle;elbow=horizontal;endArrow=classic;html=1;strokeWidth=2;strokeColor=#B5739D;entryX=0;entryY=0.5;entryDx=0;entryDy=0;exitX=0.5;exitY=1;exitDx=0;exitDy=0;exitPerimeter=0;startSize=3;endSize=3;" edge="1" parent="1" source="Dfw8BtGnLvOsA7QvDN78-27" target="Dfw8BtGnLvOsA7QvDN78-13">
          <mxGeometry width="50" height="50" relative="1" as="geometry">
            <mxPoint x="490" y="480" as="sourcePoint" />
            <mxPoint x="500" y="560" as="targetPoint" />
            <Array as="points">
              <mxPoint x="250" y="560" />
              <mxPoint x="500" y="530" />
            </Array>
          </mxGeometry>
        </mxCell>
        <mxCell id="Dfw8BtGnLvOsA7QvDN78-33" value="" style="edgeStyle=elbowEdgeStyle;elbow=horizontal;endArrow=classic;html=1;strokeWidth=2;strokeColor=#B5739D;exitX=0.5;exitY=1;exitDx=0;exitDy=0;exitPerimeter=0;entryX=1;entryY=0.5;entryDx=0;entryDy=0;startSize=3;endSize=3;" edge="1" parent="1" source="Dfw8BtGnLvOsA7QvDN78-27" target="Dfw8BtGnLvOsA7QvDN78-14">
          <mxGeometry width="50" height="50" relative="1" as="geometry">
            <mxPoint x="510" y="501" as="sourcePoint" />
            <mxPoint x="600" y="670" as="targetPoint" />
            <Array as="points">
              <mxPoint x="600" y="580" />
            </Array>
          </mxGeometry>
        </mxCell>
        <mxCell id="o995Ws5FP9cgEdBSJyOs-19" value="&lt;font style=&quot;vertical-align: inherit&quot;&gt;&lt;font style=&quot;vertical-align: inherit&quot;&gt;&lt;font style=&quot;vertical-align: inherit&quot;&gt;&lt;font color=&quot;#ff3333&quot; style=&quot;vertical-align: inherit&quot;&gt;&lt;b&gt;视频分割器&lt;/b&gt;&lt;/font&gt;&lt;/font&gt;&lt;/font&gt;&lt;/font&gt;" style="fontColor=#0066CC;verticalAlign=top;verticalLabelPosition=bottom;labelPosition=center;align=center;html=1;outlineConnect=0;fillColor=#FF3333;strokeColor=#6881B3;gradientColor=none;gradientDirection=north;strokeWidth=2;shape=mxgraph.networks.load_balancer;" parent="1" vertex="1">
          <mxGeometry x="305" y="390" width="100" height="40" as="geometry" />
        </mxCell>
        <mxCell id="Dfw8BtGnLvOsA7QvDN78-35" value="" style="edgeStyle=elbowEdgeStyle;elbow=horizontal;endArrow=classic;html=1;strokeWidth=2;strokeColor=#FF3333;dashed=1;exitX=0.3;exitY=0;exitDx=0;exitDy=0;exitPerimeter=0;startSize=3;endSize=3;" edge="1" parent="1" source="o995Ws5FP9cgEdBSJyOs-4">
          <mxGeometry width="50" height="50" relative="1" as="geometry">
            <mxPoint x="384.9899999999998" y="148" as="sourcePoint" />
            <mxPoint x="320" y="390" as="targetPoint" />
            <Array as="points">
              <mxPoint x="320" y="90" />
              <mxPoint x="590" y="330" />
            </Array>
          </mxGeometry>
        </mxCell>
        <mxCell id="Dfw8BtGnLvOsA7QvDN78-36" value="&lt;font face=&quot;Times New Roman&quot; color=&quot;#000000&quot; style=&quot;font-size: 18px;&quot; data-font-src=&quot;https://fonts.googleapis.com/css?family=Architects+Daughter&quot;&gt;&lt;b style=&quot;&quot;&gt;——Design by baizeIntelligentHome&lt;/b&gt;&lt;/font&gt;" style="text;html=1;align=center;verticalAlign=middle;resizable=0;points=[];autosize=1;strokeColor=none;fillColor=none;fontSize=12;fontColor=#B5739D;" vertex="1" parent="1">
          <mxGeometry x="-38" y="710" width="300" height="40" as="geometry" />
        </mxCell>
        <mxCell id="Dfw8BtGnLvOsA7QvDN78-37" value="&lt;font style=&quot;font-size: 12px;&quot;&gt;2023.02.02——&lt;/font&gt;" style="text;html=1;align=center;verticalAlign=middle;resizable=0;points=[];autosize=1;strokeColor=none;fillColor=none;fontSize=18;fontFamily=Times New Roman;fontColor=#000000;" vertex="1" parent="1">
          <mxGeometry x="224" y="738.5" width="100" height="40" as="geometry" />
        </mxCell>
        <mxCell id="Dfw8BtGnLvOsA7QvDN78-38" value="" style="line;strokeWidth=3;direction=south;html=1;perimeter=backbonePerimeter;points=[];outlineConnect=0;labelBackgroundColor=#B5739D;fontFamily=Times New Roman;fontSize=12;fontColor=#000000;fillColor=#FF3333;gradientColor=#E6E6E6;gradientDirection=north;" vertex="1" parent="1">
          <mxGeometry x="275" y="31" width="10" height="339" as="geometry" />
        </mxCell>
        <mxCell id="Dfw8BtGnLvOsA7QvDN78-39" value="" style="group;rotation=90;" vertex="1" connectable="0" parent="1">
          <mxGeometry x="460" y="130" width="186" height="90" as="geometry" />
        </mxCell>
        <mxCell id="Dfw8BtGnLvOsA7QvDN78-40" value="" style="verticalLabelPosition=bottom;html=1;verticalAlign=top;align=center;shape=mxgraph.floorplan.office_chair;shadow=0;strokeColor=#000000;strokeWidth=4;rotation=90;" vertex="1" parent="Dfw8BtGnLvOsA7QvDN78-39">
          <mxGeometry x="113" y="-21" width="23.25" height="27.642857142857146" as="geometry" />
        </mxCell>
        <mxCell id="Dfw8BtGnLvOsA7QvDN78-41" value="" style="verticalLabelPosition=bottom;html=1;verticalAlign=top;align=center;shape=mxgraph.floorplan.office_chair;shadow=0;direction=west;strokeColor=#000000;strokeWidth=4;rotation=90;" vertex="1" parent="Dfw8BtGnLvOsA7QvDN78-39">
          <mxGeometry x="50" y="-21" width="23.25" height="27.642857142857146" as="geometry" />
        </mxCell>
        <mxCell id="Dfw8BtGnLvOsA7QvDN78-42" value="" style="verticalLabelPosition=bottom;html=1;verticalAlign=top;align=center;shape=mxgraph.floorplan.office_chair;shadow=0;direction=north;strokeColor=#000000;strokeWidth=4;rotation=90;" vertex="1" parent="Dfw8BtGnLvOsA7QvDN78-39">
          <mxGeometry x="81" y="-48" width="24.993750000000002" height="25.714285714285715" as="geometry" />
        </mxCell>
        <mxCell id="Dfw8BtGnLvOsA7QvDN78-43" value="" style="verticalLabelPosition=bottom;html=1;verticalAlign=top;align=center;shape=mxgraph.floorplan.office_chair;shadow=0;direction=south;strokeColor=#000000;strokeWidth=4;rotation=90;" vertex="1" parent="Dfw8BtGnLvOsA7QvDN78-39">
          <mxGeometry x="81" y="113" width="24.993750000000002" height="25.714285714285715" as="geometry" />
        </mxCell>
        <mxCell id="Dfw8BtGnLvOsA7QvDN78-44" value="" style="verticalLabelPosition=bottom;html=1;verticalAlign=top;align=center;shape=mxgraph.floorplan.office_chair;shadow=0;strokeColor=#000000;strokeWidth=4;rotation=90;" vertex="1" parent="Dfw8BtGnLvOsA7QvDN78-39">
          <mxGeometry x="113" y="14" width="23.25" height="27.642857142857146" as="geometry" />
        </mxCell>
        <mxCell id="Dfw8BtGnLvOsA7QvDN78-45" value="" style="verticalLabelPosition=bottom;html=1;verticalAlign=top;align=center;shape=mxgraph.floorplan.office_chair;shadow=0;direction=west;strokeColor=#000000;strokeWidth=4;rotation=90;" vertex="1" parent="Dfw8BtGnLvOsA7QvDN78-39">
          <mxGeometry x="50" y="14" width="23.25" height="27.642857142857146" as="geometry" />
        </mxCell>
        <mxCell id="Dfw8BtGnLvOsA7QvDN78-46" value="" style="verticalLabelPosition=bottom;html=1;verticalAlign=top;align=center;shape=mxgraph.floorplan.office_chair;shadow=0;strokeColor=#000000;strokeWidth=4;rotation=90;" vertex="1" parent="Dfw8BtGnLvOsA7QvDN78-39">
          <mxGeometry x="113" y="49" width="23.25" height="27.642857142857146" as="geometry" />
        </mxCell>
        <mxCell id="Dfw8BtGnLvOsA7QvDN78-47" value="" style="verticalLabelPosition=bottom;html=1;verticalAlign=top;align=center;shape=mxgraph.floorplan.office_chair;shadow=0;direction=west;strokeColor=#000000;strokeWidth=4;rotation=90;" vertex="1" parent="Dfw8BtGnLvOsA7QvDN78-39">
          <mxGeometry x="50" y="49" width="23.25" height="27.642857142857146" as="geometry" />
        </mxCell>
        <mxCell id="Dfw8BtGnLvOsA7QvDN78-48" value="" style="verticalLabelPosition=bottom;html=1;verticalAlign=top;align=center;shape=mxgraph.floorplan.office_chair;shadow=0;strokeColor=#000000;strokeWidth=4;rotation=90;" vertex="1" parent="Dfw8BtGnLvOsA7QvDN78-39">
          <mxGeometry x="113" y="83" width="23.25" height="27.642857142857146" as="geometry" />
        </mxCell>
        <mxCell id="Dfw8BtGnLvOsA7QvDN78-49" value="" style="verticalLabelPosition=bottom;html=1;verticalAlign=top;align=center;shape=mxgraph.floorplan.office_chair;shadow=0;direction=west;strokeColor=#000000;strokeWidth=4;rotation=90;" vertex="1" parent="Dfw8BtGnLvOsA7QvDN78-39">
          <mxGeometry x="50" y="83" width="23.25" height="27.642857142857146" as="geometry" />
        </mxCell>
        <mxCell id="Dfw8BtGnLvOsA7QvDN78-50" value="" style="shape=ellipse;shadow=0;strokeColor=#000000;strokeWidth=4;rotation=90;" vertex="1" parent="Dfw8BtGnLvOsA7QvDN78-39">
          <mxGeometry x="12" y="13" width="162.75" height="64.28571428571429" as="geometry" />
        </mxCell>
        <mxCell id="Dfw8BtGnLvOsA7QvDN78-51" value="&lt;b&gt;会&lt;br&gt;议&lt;br&gt;桌&lt;/b&gt;" style="text;html=1;align=center;verticalAlign=middle;resizable=0;points=[];autosize=1;" vertex="1" parent="Dfw8BtGnLvOsA7QvDN78-39">
          <mxGeometry x="78.5" y="20" width="30" height="50" as="geometry" />
        </mxCell>
        <mxCell id="Dfw8BtGnLvOsA7QvDN78-24" value="" style="edgeStyle=elbowEdgeStyle;elbow=horizontal;endArrow=classic;html=1;strokeWidth=2;strokeColor=#0000CC;dashed=1;entryX=0.5;entryY=0;entryDx=0;entryDy=0;entryPerimeter=0;endSize=3;startSize=3;" edge="1" parent="1" source="Dfw8BtGnLvOsA7QvDN78-7">
          <mxGeometry width="50" height="50" relative="1" as="geometry">
            <mxPoint x="385" y="248" as="sourcePoint" />
            <mxPoint x="573.9749999999999" y="386" as="targetPoint" />
            <Array as="points">
              <mxPoint x="574" y="280" />
            </Array>
          </mxGeometry>
        </mxCell>
        <mxCell id="Dfw8BtGnLvOsA7QvDN78-23" value="" style="edgeStyle=elbowEdgeStyle;elbow=horizontal;endArrow=classic;html=1;strokeWidth=2;strokeColor=#0000CC;dashed=1;entryX=0.015;entryY=0.015;entryDx=0;entryDy=0;entryPerimeter=0;endSize=3;startSize=3;" edge="1" parent="1" source="o995Ws5FP9cgEdBSJyOs-24">
          <mxGeometry width="50" height="50" relative="1" as="geometry">
            <mxPoint x="460" y="455" as="sourcePoint" />
            <mxPoint x="550.7192500000001" y="387.04999999999995" as="targetPoint" />
            <Array as="points">
              <mxPoint x="551" y="310" />
            </Array>
          </mxGeometry>
        </mxCell>
        <mxCell id="Dfw8BtGnLvOsA7QvDN78-25" value="" style="edgeStyle=elbowEdgeStyle;elbow=horizontal;endArrow=classic;html=1;strokeWidth=2;strokeColor=#0000CC;dashed=1;exitX=0.833;exitY=0.432;exitDx=0;exitDy=0;exitPerimeter=0;entryX=0.985;entryY=0.015;entryDx=0;entryDy=0;entryPerimeter=0;startSize=3;endSize=3;" edge="1" parent="1" source="o995Ws5FP9cgEdBSJyOs-63">
          <mxGeometry width="50" height="50" relative="1" as="geometry">
            <mxPoint x="395" y="258" as="sourcePoint" />
            <mxPoint x="597.2307500000002" y="387.04999999999995" as="targetPoint" />
            <Array as="points">
              <mxPoint x="597" y="290" />
              <mxPoint x="580" y="320" />
            </Array>
          </mxGeometry>
        </mxCell>
        <mxCell id="Dfw8BtGnLvOsA7QvDN78-52" value="" style="line;strokeWidth=3;direction=south;html=1;perimeter=backbonePerimeter;points=[];outlineConnect=0;labelBackgroundColor=#B5739D;fontFamily=Times New Roman;fontSize=12;fontColor=#000000;fillColor=#FF3333;gradientColor=#E6E6E6;gradientDirection=north;" vertex="1" parent="1">
          <mxGeometry x="490" y="31" width="10" height="339" as="geometry" />
        </mxCell>
        <mxCell id="o995Ws5FP9cgEdBSJyOs-3" value="&lt;b style=&quot;font-size: 18px&quot;&gt;房间A...Z&lt;/b&gt;&lt;br&gt;&lt;font style=&quot;font-size: 12px&quot;&gt;音频来自摄像上自带拾音器&lt;br&gt;摄像头视频及音频直接输入到视频监视器A&lt;br&gt;&lt;/font&gt;" style="text;html=1;align=center;verticalAlign=middle;resizable=0;points=[];autosize=1;" parent="1" vertex="1">
          <mxGeometry x="311.5" y="260" width="250" height="60" as="geometry" />
        </mxCell>
        <mxCell id="Dfw8BtGnLvOsA7QvDN78-53" value="" style="curved=1;endArrow=classic;html=1;rounded=0;strokeColor=#B5739D;strokeWidth=2;fontFamily=Times New Roman;fontSize=12;fontColor=#000000;exitX=0.5;exitY=1;exitDx=0;exitDy=0;exitPerimeter=0;entryX=0.5;entryY=0;entryDx=0;entryDy=0;endSize=3;startSize=3;" edge="1" parent="1" source="Dfw8BtGnLvOsA7QvDN78-27" target="o995Ws5FP9cgEdBSJyOs-28">
          <mxGeometry width="50" height="50" relative="1" as="geometry">
            <mxPoint x="500" y="540" as="sourcePoint" />
            <mxPoint x="550" y="490" as="targetPoint" />
            <Array as="points">
              <mxPoint x="470" y="490" />
              <mxPoint x="470" y="510" />
              <mxPoint x="500" y="510" />
            </Array>
          </mxGeometry>
        </mxCell>
        <mxCell id="Dfw8BtGnLvOsA7QvDN78-55" value="调音台" style="shape=image;verticalLabelPosition=bottom;labelBackgroundColor=default;verticalAlign=top;aspect=fixed;imageAspect=0;image=data:image/png,iVBORw0KGgoAAAANSUhEUgAAAP8AAAC1CAYAAACQyynAAAAgAElEQVR4nMy9eZxsWVXn+117OBGRmXeokaqCEpR5npRGfdCKQjHIZKHynNqPdiO+tvF9tLsV+7VCKyr6tPEpCI8PKqA2jYyKMstkCwUyI4UgQxVTzVX33syMOGcP6/2x9omIzJu3blFFFW/fT9zMjDhxzj57r3n91jry6le/SjlpCCAoIOJQVfvdCYKgKLVWaq1E53DI8puqB5zuVhwVRUT2vCcKIrLn/Vorqrrn/VrrSd9dnqO9f7r7cfs+1oNPd8ohzi3nBuCcQ0RszVUppeCcwzm3nM947KnmfluO9TmM8xrXGex+aq17jheRPftxa89vfc3G99bXc30u6+tfa10ed6pxS+n9dHc/7v+4buv3okBxFXHgEKNFVdBGh+Ko7bjl9RQcRrcyfrZ/Evam2Mt7xHu894iAUsk5QS5QdO/Z/38yQgh47wkhALaIOeclIa4T5C0Zt5R015dunK/33j5TZbFY7D3+Nhaupxvee5z3xBgREUoppJQopRghfoPHyDDjGAWp9375e16jjeWxt+HcT0dDzjlCCIQQcM4tlULWSsqDHaRrr/WTrp+8fS6AB8LqU10eq3uOFnwIxC4i3lFLpu8HY/yRf24JB9zSNRZMQMFyw5z3hBjpYlxu6Lhg61rzQKm3dp6bMnT5380fIoJvDBRCWDLRaJns11x7v3zLrn1L5x4n3ZKRSinkkikl24dOVmspcvK6HvTe1zpO8/WDNP6Skbwn5UTVStWK6ppCcHtp6tYcp7uEioBzy1fJmcUw2Hz93mOX3KysmPkUNBLMCFC889Rqmxa9IxVbiMl0iooQnCOnRB4WSC5mWnw91uVrId69kmntb10yszGSw3mhtn8pJ1JKy+/I+sbe2vewf84HHeKF0AWcdxQt1FJNe+Zy065xS8ZNPK+4pkHbvYQY6LpuqYlSGsg5k1Ne+9bajR9ELF8PApJT/D7KHCdobX84iBMTsKrKkPq9ltWetbgNrZb9e7BGM+IdsYvEGAFY9AvSMKymN5KIjs76auwRAM5BE24hBKQqAbE3i9bll0ux32ezDZyPVFVqruQhU/qCA7yDqqb8v1Y/92aP/fsx+i0VFMV7R9d1e03Qfmgm6NrX6m24sfvNsH2fOe9O0vi3qWl/OsE0ysmyOjAET/QBL45S69KlKqXs/fJtcRt6it/Ht4oiYgQfYyT4gFY1RZbzN95lPUBgjdpanGMymewx9fe4qwJST30aaDE7FO89FfP5U84IEGx3BdWKNDERxOFjIPpIxYFCGgZqgTHkF4G0vNhtw/37mWI0iceQTBBPdAGnQhoSwzCY2b9vhut+4C0JOOm+n6eY9I0eNAkd3nmkQil56S+ravNobt213b82+4eo7Dkm+EDwAS8eqhETRdFc7fe1Od8WAT24ceNFURyOzkeCC2hRSs6UlCm1nJZyb835K6dWRN5b7Cf6uHSnUkrUNQErCr6F20d3v47CerxGO38ZjFulxTlqrQS0mn9TbKGCc0ymUyqORS5UIFXQpCAeJFCcsjv6dfttjVtz7NuIMUohMdJ15nsWoM+ZoWTziaRNUvZ9byTQr8u89v29V/SeFJNABGl+p8RIxQKSQy2oSdiv7/xudMiNX8MivCCCjxHfdTjvqU0T9TmjJe+d8+jLy2nO/XWZ/il88/a+jx0+BAiBDOScbZ0FM4VPM8PbZP7rdN1owzdrMKuSK6RabDZudayKYJ6hrPhQ1sL4LaglIjig1oLWurynsK6/zFd2SAiUCnG2yYnju4CD0LXwgDNbwznYmsHu9q26NqcfQo2eRXTgBUoBKRAA72+bqO2NMf/ymLXglnNoDKQYSapQK1As/xLdycd/I8dImM5RvGMesP2v1daZAuEgDXBbpyEPvl7Z6Cgi9KjRBhlcNVq+TTXXKca68GqBPfWOIQiDU0gJtNiaH7TOfp3x1z5WzCePE3R3Qam6tBG88xSUABWq+UWT6QSAjFJ94PZ3vgsPfcQjyT6SxVEFch0IXnBSuP8D7sORMw6hcvOJVMaJ3sg4yERf5jrX8/drOdpxjP6SXUb3KeVbZ+OX5i8rLME4r9GkH9NMe1zWNRzCeOyYqjz4Ql+HZMlpTrCe/tqPnVBVVE5+f/xs/M6tOure66zv/f5I//73wAJq38ghajS87suPeX1Yuaj713N8z/tAFSgCxRL9OIVQYVKUP/79F/APb34rzIe212oWABBQxYnQdQHvHUWVpMogyqHzzuWcb/lm5i5QYkcSpbqK94JQuPsjvgs3UarcvJz510IW6/7jeOO1VGQEaWA55zFHvn/xqurqgl8nn38UXDem89ZBIiUXaimrwJgIPgZwsme+6yCTmzK/mysARivxxsbI/CNxrgNhoAV7v0FgI4GmuPYKpP3p3fXc/kngr30K4bYcouCahTcG89YVwDjnUw61lFsVKA6qGPOPjL+RlDve6278w5vebIdj2t87Z5o/OE/sArELFK2kXEko5IFFLpTYsVBQ7xmoaAzglPnuLnMvuDAGGVrgcLyxtSUVVp+Pkxj/v6lkI3tQhJaRqKi5OMHjgqc6TwJqS2m4Fum02cie8yj6dQlIncT4+yhpzB2rmuBUFLwRoziHeIe0kGWlriwFJ5ZSuZXH6e4+58ZMoss0qve+BX6lWZf1JC07IkFPN8ZjZPlz/H8vPa2c2D2223Lt1gNcWtpPrUgwgJo4h5PxWF26VCrrNMsyeHzylVbvr/+9/vmpjt8/8z0WuhoNqwi1imVVHPhgiszooSkxlDJqfMQEByaALSJg656draqvQl8L1ALBI1WpJaO1IOIIXTfBBYd6qFkpqaKlgncE58kq4MIy+pxzIXSeSQiIFnzTfFWkyZVxGSrSTBBRAfW2mQIqSpViWztKunXBUFdiwTnXTPu6vNlSChSL1LomzR0rH9kxmkprmnO5WysiO5DxT5e33MfdJzP7yQRfWzqM9Ws26W4bX5dz8qeBk97scdB9ia3VyLyiq+svNVEpOBGca1aVrIR4ZTXvk9fypuSAljFqhFWqWdSDBhRnrrAfr1apZHObxOPx5FrwLjQNrlAqASGlTAyBGDsKShGhtGMECDgQoSBULGMkVEgF7xzqfTteyDUxcQFBSBQEweMpJeOc7LnPMdru260tTXI7O7Rrjc5cAbQUJFcL+XhTZMVJg66vhIQKlDW6ce09mgWhjYtEzQoooquwkWZK+8MDaCUEHwwIkwZSLtTqoKX3BFDxFATNhcnG1I7rB6ITypAI08BemXfQ7+MCmZOq7aaWR9a6L2orTVcbmMCLwzmParV8cspLVJw4Z8HO8dU0zsr3b8x+oBL6WrW+ttOdSv7vdTfsdvSk95cmnfNUNdfl1hoyMuspLJza0N9+aQ6PdRvmorhGfbIWnBHMXB5/v7l2sy4FyUpPru/TaFCqVlQKSsXh2gcWL4nO43H0w66ta1VSqcQYGg00BdDcW1rYy7XrznOPC2bJOIXOB5xAQkmayVrZcpsMeRdVmMQpi9KDd0QfKNqE+lqcZ/3vMZ8gjekdggfcujvVmNc7Z6AkEWrjD7/PpDiI8lZWLUshX4WlYNgzmo4UIHjnKTkzlIGasQhhM4+qKkNOxI0tKo6+79FamW5M6Jxn2k0omilSG89WVBuxNPKwGzfTZUQYLbW7GGOrrJh0NM1oC1arUqtNq1Zj/qqWknSN8bXRj+4P6cnBmni1agc5HvuP3/f3nlVXRA7W1KP/tg7MGP3/pWBA19KRt85YofIOvshozq8Xa9X9OIMxDsFo3t4I3PhrmVsVlMBKnKxjMhQlI44Gvy1t3QKiAVVvLp8OeFcJqRJiRB0sUiJOO8Q5I7naNG2z65dWZikcDRtktfy5F0d0QsqZQqWLAVHoyy6d8wTXgDKl4j0MeUCCvefZL8ZsCIKvimCmugdcUShKqoUsiroWR/EOdUJtVgrQbOnVWrs9O9lcqzVFuidJNMajDtDHCoSSMyVnxjSiXUFAzKToJhOOpwGoeO/ZmE3IqWe330b7xKzzrCDRBxHEqHlXJuJ6CqvUBhXa5zOqyQa8D5QWJFNVpiI4iXjxSJVlxPnU4zScdWNf3vPRQfcmez5arxYcX+Z+GON78SbcxvWqBwmfW2vIybdg3N0ExEpQiYJzhtc3AhJb69H3VGNRXWrTmzdM5FdGkhb1q0+k1aPpGJJr+lqbtFePQ5ECogkGRUsiB8fGdEoWzHKUuqx4q9UCv+pWbJrTguicoVVTQp1j4hwdHqogEunTwHQS2FnMKd7hWyzGB09uxvY4Q3PjVpp3VA2+Cl7Bq6JlJWBdSzkGbzEgcxH2x8NkWY3nR6/xAGvg1PbowWsfhr4na973iYmMqkoqGR8noAVxjqEfQAuHNzb55Ac+jKQdvI5IqXWp3fZo1P+i7QZakE6xzXRhr9my/ltdlYQuI6HYpkozR5da/wBNtD/td/DYa0CdeqkO+twuPkaW95eErpe4wt7I/3j8N7JKb/3KFndpb+6b9/j5aEDo2mfL792c60tBJbWLBosL6UgPikhFtay5HI2rcAitwo0MtRK9Zzv1HLrDedzjWx/EdWWXeZmzETr8WqBvyVgieC9E5yFZBeI0RqYIi+PbXPPVK7nu2ms555xzOHrWmfgtmDhB44QBJaMs8kAMcTW3tQUtwrKc1osjeKAouRYKleqNW4I4vBO8msLLa1xtwkRWLoWyjLG50f0c92Pf2o5YHzmAdEfBEnLNKFYTrPsOEhFyKbipZ7E7ZzKZELwniGPYOcGzfukX4cqvQM2NYA4wkZecvmZvLP9c496TpgbgYDo1sI6IgTSGAUpdHXYLMAarSa5f+6BxEPOPItg1kE4bMUIINmewOWcj0DE1szqF7P37GzW8X827qs03pQaY2sfa+9yeW5TmkwZeGX1TbYWmyzcqBnCBZZBodEt9B8FDF2BI4DykBXd/4qN51h/8HpMzjjD1kaHuLhVRhebCuGZOW4BvQwJf+cJlvOHVr+VvXvc6Fv/yOchtv3KBo0fZvOB2PO4pT+ai738SZ154AX42ITlhHamhYhbGilqkkbpAVbQqpSpZleoE38x9m4tYOhoTUuN7B6nFpYI9wJjbs7zLie37yVLc3vhwzpFRQowGnx0S/bDgrM0NO0OqtlAjRy9513zFJXGM0nu5E817kQp7cAKNoFrO3lfFNTs5p0we8hLYsTr+5jLQMljQ/lxfpZtoMWhd/e49vjpCdWb+qdL3jYkO7B9wkFP2tc5//eepLJQbGc7jnRBVkGxZiWEYTADcFMF0i7yWA4Tp6BNJc9ZZ5yYB8bbOTnBVkFQpRZEhk3PGDZmjW1ucoHAizZn6uGSSCivGrxUZEjpknvfc3+KNL/4zuP6Y2dUj6nJUUFddz87VN/DKjz+XVz7nv/OU//B0nvxz/47DtzuXXpOde6QdNQHgkSavBFcrPiuaCw4LrnrnEW/udW2u4eiBjsHIZv/sYfJma+5ZsqXsPGCFT9qeNX0TZClL1he5cXADofSlELxnd3eXzdkmipJ2Fzbboga0YHzZAoyLbReUlUAYfbYxDqqcxLzilE6ErmnPkqwk18pF99/OaN8cQIWnJd61FV8/100aa+uFtiIMT3AOUasaK6MGHe9rDcCzMqm/lmueav7r1sTXwPgKGxMry5WqlJIpfd9gsDfVbeLmz/9Aal1n/j1qFAF8cLbOLdMz5ETue2qqDd7dEKsqzOJk6XMXDAwTgU4VmSd0Z85PPOWHOP6xS+H4wBTPoljUW0TwYhq7al1StxsGXvV//wF/+/a38IJXvpwzLjiPwa+i84ri1NAHosa4VGN8LRX1WIbKW0DAVIc2bpAlBFdGwcOoL/fb7aNNsbKU11XASaGs/XpBwI0x1n070I5boedqrUy6jpTSMptvEXs70stKjLh2Qx5d8eQYBVnGK3UpD9YnGIJjNp0SY6BqoWom51Z+2Q5yTiy/un63VU9+rbsYp3rt/eOmj6XFq3hvCMkYPSJKzgMp9aQ07Dm/qqXQDPhzClfoa33tf+OAY5am4tp7MQQ2NmYteKXknEhpoNa1qrGbytQ3e+57zdhlrYC0LkDtOC/mGwvKpAvW08ILQ16w2N2mlmTMYUAFxny/qOFMcs4oMKFDFz3TvjA9vuAnH/UEjr/vo7CT8VqpmkELYLiSXDKlxbMcFU/FUyAVdj90Kf/+cT9AveYYMdd2Dy22UCudeAKClArFeKhQIXrcJJDsL8CRtVIdxom5ECoEBN/iSUULvhnppZZVvKthIyIeWvWqa/Gw2tLnS+G9zNqsts3tJ/s9+72PH/aYHiPhGYrHbgBj6VFOOqmIlvYyCbUUHKht2Nomi4CThh5rWnIYBnLJe5T43r5r5gLerJfsex3w3nJdDggNWBQfK4hyllMurZON5ZcPuMZBr5s7/5t4b/tDDc6t97CzOY8Cdv24qnrwOn2d5u+EpWd7IN1pA2xVxTs4dGgDHwGv7PQ7LNKwl2BHAdDI0jXtuRE2GGomMXCom9ANhd/4T8/khk9+Gk/A54wDCtarYtJ148VxQVhhGpTpZGpKLSs7/3I5v/VL/5U4VIIKuobQrKWgLZOWi8XVcEKVvf0w6/g+QnVumR6oqlQqznlwwqA9OQ/WHIlCrZlODLVXciI6S0tWWleiJd2OJsmaQmxj6fOfpPd0bV1lzdJYH6JAsmZgLqJDpggE59BSlwCFlR2xgt4qoyY3SgjB+teF6O3TlIwgSz3Jet9TvHHg5G/muJHz7PlIbN4iMJ1O8N6k7di/LqVy8EkOGvus9ltlLEMDsmwcMvZjzIMx/fqc1wFY697JKc99M+evavXodvoWYBuBP9owEShCYTL14KxUW0IkU8092WMByZLenAqqwpATQ6xmaqP4qnzkvZfwnr98NWQoOhBjIKUB5wRqJfXDkglLVeI0kBeZrouc6HcBISDkIXPJK1/Lh5/6g9z7UQ9nkEoMAR0KRTNVoLYOr06MXiwLUKDhO2opqBOSFBwe75Z2opXTa89EOqJ4slSzgvAkMrUkOgmU2hKmIpSWRQohkId0IIpVwLpzHaT5l5bCcpdOtXtgaMCKDgVU8A6kVrxC1NYptG2ikg3O6KCG1vuzVpxAjIUQBtwYPFf72TVaOJUJemunysfsnNbVulgrtYpzEP18eYxgPpy7kVqM/UPHL96ScROYz2KoSowD3g+rr4735FfHNVd3dVo99RRvyfxFwTc3o7qWG2+kL9XgrsHDpANxiVxgcwLXHuvHMzBi423OY8xppah8CAwUJsxQ3UWGwp+88EX2Pe/QbOhW5x2+fX+CVcXl8f4WpqiGISHe8PdKJfhILpWXvfDF/O73PhzvzVTPbVFLKVS1+5iFSMA6H1U18JpzipdIFc/12oMovpqbk8XiAJvSUVPPpgSCBvq+B5SOVtFn+XB2Tmxz5NDZ7EjfIM8TKsNJ+7NMMFU15t+zIawJ87aI6671aAXo6LDXQMgZQ0srriQC8K/uf4gffsqj6OoOkWwY8QDJLTh0zhS/mamuQu1Qdc0PriZ9WzBDtSxNexgJtQU39jj8X6+xRjXrK9LSkaqCVksV2UvROjTT+OTSy5sSMPv6zX4/B65502tIxqUZuNxlI/FlkZOsvjOWHt/YVW7J/AVaVLiiPqGuoew1QIk49UakwZgMd5hFOsKzfu2lfPbzK4jxOJG6duJlhN8JnkhiIOTC9nXH+Ke3vQ1ErQlJ9JAyoVQ8yhQ4P2zxvff9Vi444yyuPnY97/74h/iX4QZ2HeSihBAo2VqX0UU+/bZ3cP2VV7N1+9uRdhd451HvKGlgNp0yU+HCeJgjdEA1Xx7rnJVRdrG5JCeEbO5QY1uiZl78u3/IB9/4dnwuEAXnHQHYLZly9DAve82rYHOL7eEE0llnqO1hh7O6bokUXO29Lnc+rEzCfTt5Omk/jjKWEziDLpLoBM47e8oD73k+G7LNhB5NidApg9/lrAu3iEcSxWe0TKyaSQsiFswzZmpMvxQERsAjmnBVmnkQw96SsfdctaqFXsQAnLXYe+ZHF7y3RhzjfA6qbT/t1W6x5l8xuo29jK8KtaziJIbe881iSW2tR+eMplBXQmx9sgcy/83W/OM8C9UlVCpVBTQgpTNToBa0QqqCC+eQ9UImboTrepKWvWQrDQou7YWSNFFK5miY8NF//BCMjVFFDaPiHVIqU+Cum+fyX37qZwhXHuNInLBzXuJhD34Iv/GKP+bS41dZHCpnRJxpo1RAHB967yU84vsfT86F4iFTcdEqZSnCRhTOxNwcoyRvwgk4DlyelRwbczoD/DiUDs+Vn72Mr1zyYbuWH7Mgas097nQHNBcqhWnXsVsLznli11FT45sD9kc4RZ5/XQ7s1/rompslgB+ltWdRBjuhQqHHx0KoiY4MUvCiqA50kvC+p+qCnOeAWwXOPE3jWx5ibMYhjSDFmeYFC1bJOKGv21h3hMR8tea86KhOWpBSqA1/dLCPf7qSYT3pl1syRgtl7e8WLFsxcgv2ibMecQ6qGnR7GddZ/zprQmBtqqNpPZ7z5uKUFAH1LeU1NEHl0OqhJovWS8JHiF1H1uM4WaDWgoasFjGv4wQdZLHa9tJ+eiKpJg6FKVt4PvX+D9NKWO07kwnMeyrQAT/68Is4cs2CQ9rRZU9A6ZLwk496Ir/2qhdzrSo1OsgV54OVD4cJl37k43zX4x5NcI5BK4Nz+KZ5RYSAI2IuxfigFxUYbNokKr0Xu2evDGJxhZAs6EpRvCqlKARHFzxDSXBi22oGxDGM5b/tX6lpD0mMCFmwGETYu+Pmc43I4jVdsPp0Dy2b1s25QTSlUkZi0ILTjCs9joQ236fqAFKouVA1MQkdWvPSdBYq6mxLpa2SrlGatKou8+/GUsxGSKtZtXmumTzLYNA6GSt7j7LYxOoQQcSjWqgtRoPSSlwd4hTnWmpqzcTXVvCznqu1k+81U9f19fKTg9IKjFpyqc9ZFU41Jj8pMOJAHbUWg4iK4jwmPJvGL1oJnpZ+HNemWVzOwCci4+rtFWJrmJZ9dHLwcQfcqe2eY8/7FUO6WUC4EmJhyAsmXkn9CVI9tmR0XcPh0Oa5hP43YZYYiM4TcOxu73BiZ7sBeJomW/TgPa5Wpgj3OP+bODpXYsrU0jPb6NjZnnOHw2dyO7a4lvZ976i54HGUxYLc96Q8oN5TvViqulFuafsV8LhRTzTv1knLerR6g+ocKs1ywFG09UrQSsBqLlJqAdrOweYWJSWKBwmR6AIDmVwKG97vFdRrqx+Cb+0A1/Zt1Ypbl5snjcnH6jvLnzYnqxhTIxl8bSgqiARCqUwFgpalZKpB6EsBnULqrOuIQGzmUPPUUMkoCe+UWhKThvarKZH6wUAeChMfcAVcEVwdseEeWtsxvLFJVVB1iAakOEhKdHGdTFtE1oM6qzhToeSK4KnF/H1taA7LTpjFkvMAmnFOqTUxItNqVVKuOB8p1fxF16DKquDdWtchBVXB+YiKp+LIdVWjKCq46gxBWCDUauuK9VgYtXkqGR8iJSt5UIJsINrh1BNDIIRqFlddgCtUKqVUnHR4sQ63TiANc3NpGgR3VAnjfLTRw2i6VqoVupSyjKzLMpZgJdlUu4/gDEZcizWULEWJdATt0IVaAsl5nBdcDKgIpQoxzhhhCHWNoB0sHX6PINUKjpzClEAZLKteu2C9Hp0V2sSxmE1Wiq6UQqmWP3eyEnmVMVwNEsISsRlxhOmEEITqYR4VmU4ICrFFrrW1xXcwakZwSnFKakXVtY7tOMCr0FVHV4WgzY0UXfYdcKwJvZIJDQ07CuKlwF2P79SVnHUhWCPWUXOuRpucjIurq/f2sMpo/hkDLGdkQgopQsThtJL6BSqCeE+uFRVh0S+YTKMJFXRFTFKprjTCEnJSPJFhkRCgi56tzZn5sCr0iwRYasMH11yGhhlH6fuFSVURa/zRRG2IHYs+maBwvoEVi2lKgeACwXV0YcawKMaYzqNUfPRkNWBJ6jOzbhNHoGa1ZhhqArKLgRgCThyTbmLPPki2WaVabl0EUkp4H8i5koZCKXX54JGRwVQEFUdFlt1nFCOM2XTacvSKk8Du7gIVR+giQ+qBgriG4CsV7yMhdiYgVemmE0IXmC8WphSrMO02KKkuLY6Th1GAtKIQiymMbo5BvIo6cA7nPblkXLB69b5f4L23WpEYmUym5KT084RzQohCJVM0k7IJMxBKLkQfmcQV/e1RXq0IRtZIWLUy7SaAQ4NnduYRmHRUbSW2IULKjLbGZ6/5Kie8suuVOo30TmFjwuXXX8M1zG3dUybEDhEhTjq62ZTJxgwXA9JFEgVKJbbG2uamtmYeQcALBmeyz1YA8SbsxTV3s4F8qnFuRhmKRQRdF0yQzOdmuTU+XwwLvDimfkrJuVVmjq6bGEw/ButsdIqdvUlDcSCRXN1yA7xYJFKrY0iFVAZr+CGABFQjgsPHgey2ybEwRCUFIXnIvlBctc5AGoFNqJt0cYucC7n07MxPmFntOqTboLhAXweGskBlgQ8JJxnRzOZsCrUgrlDoWdRdkmR6qch0SpZIdVYHXshUSU2ACDUL851M8FNKqeSa8RNHtxlJkpmnBDohsMliR5ES6NwUr45p17GY7+ClMt8+wbDoOXr0TLwEdk7ssLk5I0Qx10YtqHho87BtkHPkPMf7JgzFfNjsIHnovWPhI8kFFoPBiEPw5FzoJpv4MGXeD+z223RbBTdZICFZZ2aZUdKE3AdK9qgT5mnO7nCC2aGJtTwnIrKBYwM0IupXzKYC6pD2ChLwEghuAnjrtaOVQqTQUZxnu99hYKCvC6qrdBsTci3MFwvmw8CxnR2SCn4aKX5gYBuNiTjziHeEEK37jUBwkAcafn5NDu0RSau3xgeKDM3/vdd97wMlQYxkrJ+9iKMA2yh/+ta/5oajkSvcwA0T5Wp6jk+El7/1rzlBe0COQukHDm8dQqNnd5XJEPQAACAASURBVFhwr/vdF+c942NrY4jUXAzhV2GgsgDmQA8MCAO6qvzzAcFRRazFuEAShejR4CAGNASr96cZOs7BkcP4aUeqVo7ddR0OYSg9XYh7FLsP9pSl2JrCnraw58ZHM2bEM2Kya6mWPHKHCLPbkdJACH0j0h6iIq4ynXo0JAYtVJzdjtRmusjy3KIGSMllF0SYbW2yvdsz7yHEQ/TZBEoI0bRnKZShLN3fIUMpA90EStlBpKebOHIeGNKC4KfU9lQX58wP0uJIWalFwUUDMDGwsTFlqAuObx9DvLC5sYX2nu25Mtu8gFo9OwurczreK5tbd2GowARKdXz1im02ZmezuSUcO3YlsfOILHAxkIvS97t008h8foLphmM+3yF2s2UMwyykFd7MqSMGT/CBrJU+DWSUopt0G+eQUmVngC5MQQN5sMetdN0ElUwuu/jS433PYnEdoYvmuokiLpBST+g8aB311oq11HZpsTtn0nXm1aZKkADtQR/qIrV2xO4o4ib0PRQ6pHYMuRC7iblkNZNUyKmn1BtwoUfUWohFBzUn8lBQZlTSqgimgcn2U+T6iCGSa6I6oVblPg94AASHFsgJnA/UYp2helU+O1zHL/3R7/GI+z2Y846eyfU7J/i7D17CZbrDAmN+7xyHNrZY9D3h0BZozwMe8m3UJcTdeKKQCd5a3m+jXENtMGFzkwRHobLLGlJ+OaymoIjj/DvfiQse+iCm2WpIxHuKwE7NxLMO02vBT7q2lgbrFTV3Yxnt9w7fnk9YtVJSvqXMT3NfdFm0Jm2BLv38cV795o/xiO+8G4fcLi4eo+oO3TTjpSdUoe8r0im4VeTGqTStYr+X3Juf7As+eq49doLp5pnEeCYndja4/KuFf7jkX3j3Oz7Cp/55zvXXW21HQ0Vy/u3gnnc7gwc/6I5c9MgHcIcLhOPHLufQJoRoDSBqNpfDzEtPUcjqwHlKVhbzXUL0KI6aK9M4wTnoF3NSdsw2z+f4fIuvXqH8/Xs/xzve/TE+/8Xr+NJXYHcXJhGiwO1vB3e+41k84P534Hu+517c+c5TXPgq00li58SCLgScUzN7c+Hw5iH6wYJTVhphMn90iVCPl45+nqGDycZhTux6+nyI+eIM3vnOT3DJ+z7Fpz9zJV/+kgHiUoGhwNm3g7t+i/DAe96Zxz3mIdzj3nfjxPzLTCeFxbBDWmRmGzNKe7TTyvXTxvgWPtqYdNSS6eIErZ6UzGVzXaZPQklns5vO4u3vuJR3/8OnuPQzV/C5yw1dUAoc2oILbgfnnrHBve/xTTz6kQ/mXvc8C1+vIMj16HCcafD46SZZN7hhaFZQgJxMabh99LisZQdyyeYPY7X8Z97uHO752Edz6Wv/Fjam1PnCjvSWetvOmUF3+fOPvmcZz0BgB5BgtvVkMqUqxI0ZJ4Y597/ouzl81hmcUMUTKCiLmvFdx4LColgLsq/WStGMAQkLQTwBT/WehVakOqKCuGrCwBkO4Eef8dM8/ed/lohjGJIJWhkh2koNjhu2j3Nk6yzUVfphQQgeUnPDQrCYWgioQErZrBKP04pVG9ndCoi1k37gY7+P73jKU9mJcdlkkgpThWk/5//51WehX/kyrvYoprW74NBkkclDESYOHvvIC/nxH3kkWxvbOH8Vd7nLGeR8LZtHInMWrRxy1CbaGhhYim3aTbnh+A1sHJqyO2SSznDhXC79pxv4oxf/Da9/I/StHsPSTrEVpRW8M5PLiz0LwwMXPxl+/uefwu1v79B8DVsTQcvQWnt7qrr25HHrrOKDQS67LrB94hjBC13XsZgviJOj9HqEL34l8YI/+ite9eoFJ3YhK0hn1uUYYpUqOFUmzUiaTeF/+074uf/zu3nQA+9ArSfwboFnTj8/zqGtLXZO7DDtZsCqamzMX6tYgDOUANrR18B237G92OIVr3wXz3/h59nebtXEjRnMVDRDrTW5YVJsbR7wIHjmf7mI+9//HCbdDl4W1LRo2A2LVqPrORUrtNGS7IFPRSlVmE4Pk6unT8JQjvCyl/09z3/B5VxzDPwEtnszaSVGnBM2JhbEnXoY5qY57ntv+JmnfStPeNwDTQi4HUruqf4M5nohj3jcH/HJz0OtEXJqDwMWNDju/f2P4bf/9MUsOk92wtAPTKcz5qWnc45ZVj7z/g/zHx/7BOgLJIg+klsR1hgfk/F5Lwo+thUYCl3s2JhuMAyJhbfs1W+//pXc/V8/lLm3aL1gMY7oJ02AFAJCrRZ4dA6kFKIL1FRx4lHnEO+ppcF+1fz8Pvd0MRpysGacizgCQ02GHPSOeb/ATzZQhDIMeHFMYoefL3jZr/02r/rDFzFzFjBP7bFfpHrLfP4xuieItdVSSMm6lCwEjlVYdI43vOuLPPUn/5i/futn6evtWeQjbB45l34o+Dwh5o6uKF0tdEWJVQjV46uw6LfZODRle0gUdwZV7sxvPvfNPOFJf8PrXt96e7QisFodpQQsmzpFawfYU4dLMUvgL18FD/uuV/E7z7uELPdkvvA4KQQPWhM59agW6yGgiWE4xpBvoB+uJsQFk4kwLAYm8Qj94kxe9OIP8vBHvJI/ffmCeeszEjooA9Yko0SoE5RAccJCYQGc6OFNb4eLL34H//E//TU7/XnsDJHsPNPNLfqFsjk9ilPBq1p0v0IskS5P6HKHr5ZWun63ou4uvPUt1/Kkx/8pv/3cz3PsGKRsgqjVypnerpbiroP9zGrC85L3w8VPejM/94zXcOVV53Fsd0p2nuLUilE0AKuuSxb/rvbYdhFmR49Qu8g2lTw5l7f9/Q4Pe8Rf8OzfuJxrt6FX2O1NrwAc3vRsTDw5BZzb4oYTsJtAJvChj8Mzfv4fufiHXszlV5xLjXdEZlskycRuQgxNktV0sp2/okwUmE6nCC1YK8JA5T7f9iC+48d+uD3txlFSXjbPiCEwmU7G4j7D4/cV7QuHZpscnm0x9AMuRmotPPSHLub+D/t2sncUMeivYAJFtSC14IqZ8Bmozrcgs2WWfNehzhlmAMhOSM7iO1mUaZyhKEPN5Gqtuw3d4Ai+Y1EyfmJ4gkETk26Cd45FPye0R6cTzKpJuT2/sllztyzgJ2KRciwtto4M6Gae2ZFD7JaOEg9z3Rx+7/kf5Fef8xd89boNjg2blHAYpbP6ZwXXfEtpCXUr6YjM0xTf3YnLvzzjCU96IS980TVsLwxyncb8O2P2xfyquHymmafPjsKMnTwhIewO8Acvuozv/8Hnc831Z7Lbn0XhKKlOyNW6qMbgCQKHNmZMoljasYvsDoGs53DV1Uf5t097Gc/5rU+xMzfQ2KI3LTss2iLk0aLR1mXYesUVgaEGBhW2e/jL19zARY99IZ/9QmDen0OfD1PZwJ6EPvaKWeuZoILUgOoGO4vDDPX2/OIvv4Rf+uV38OUraG4LqAvm/8gqZwMsI+KikCyzRiKQFP7qDbs8+rF/xD9dOpDqeRQ9TKFrFoe2tuuWkanOfNLiJlxzbEAm57ObL+C/PPsV/MTT3skXvmoBrhNZqH7CoCaED29NKEMPJeMIzOeVoo6CcHzh6RGOJ3jvh+CxT34Jf/XGz9Hr7VF/NvPBnk8nrOoR9uah9o5aK4u0wIu3opcYmWvmF//br7B133tBgNpFLKFrQdN+3rOEORcrfz60uYWokHOhegtiHr77N/PM5/46Cy8UZ7j9zndoUTwWj3BV8To26FjFs7Row7q01l61kKs9LdvS5R7BWVapVjoXrWio1NbEzJOzuTQOv2zFV7UuIdn9ot+zDkNK6NoTq0/L/PsfIXUQ7LNi0mUMvWxMN4h+Qi2WHz62vWDAs1B45yXKk3/kBXz0c5Xj5SiDeKqvVt/sBfVKdgmNhRwcGs5gyHfgTW+6hic+4ZV85KMwT5Cdpzpr+eSDp1brQmVPZdulsgMtnhrjBANANiIHdubwwY/Co77vFfz9+z3X717ATjqEn2zRDwNkmPopkoUygLiO3UUgy/l85FL47ov+nLe9ExZjVzFZLWgUCAoTVbwOBAakWJMMEds6Mwc9STzHF/CZz8D3P/m1/NXrv0Kpd6b6I8xrZQA0RgZVwqxj0AW9LiBEFsMhPveFLX7037yEV7/+GLsJ5gWKH2MEudW528SWgBJWgI8qZpxklykdDAJfvgKecvHf8NI/+QR9Op/MJgOZGoa2V5niCsUpC4UaD1P9uXz+ixN+4idfygtfvGBeoXeQI8s9RZRDW2dSU0CKxyP08xOUsmjYgIakDJHiHAsPX70Wfurp7+LZv/ZmFv2dcd2ZZIWuM8vFUnqr/oNL8BFjCt8qGStWaltQavDUacefveF1nPHtD4KpQ6Vdu1WZGoMYPmE6maE4UlWK8yzSgnMe/m087/X/g3rGFr2zVt+utfK26rrW/79WZqGDbM+4sEZlwkQ9rujyMefBRZuvs34E1qbcAndBHGjBV5j6YN8rSrTWxnasOLxYv8u+7/fWZqTEsFig+7pJeYc8S9GVGFAzhRDh/LvejQvvdR9SC5iMD9eIIoSSed+73gX9AkpCNeGDZzrZwLuAVmsooLWy6AeUCRlHpXBsB/7naz6Gizdwv/s8AO83KLrBkCdknaFyiOqOstMf5oqrZ/zmc1/Fbz73kxw7ARlBwmGLaho+1R5YoNUKbRplN0wJvrViFpEWKS8mf11HKYWdXXjr332KG45fyX3u92AOHzoLrR3TyZksFkIqE1w8k6RHGfJ5/M7v/RX/+Zkf4vg2zGtoFeAW3XZOlnnxTiyqGlua1VvKm1LBylUVCd4w3LGjlkK/gLe//XI+9akP8OBv/VdsHjoLcZvsLGC6cRYndh3VHUH8uWzvHOKlf/a/+M/PfCdf+ooF0HYHWr8Uz6qzaR07sS9NZCcQg6dUBW+AI/Mz21w9lAzvefcVfPhDH+TBD74f5557HvPdArJFLlNCPEouR4jdHTm+fYQ3/O0neNpPv5FPXmqXzhWWT8GNQFE2Dx2m350z6TyOgb7PrUaigUOQVeJ+0qFpBCxVPvWpE7zxTe/izne9J2992we46pqVBFvWJTjh3HvelUc++Qmk4ChOxvL+pXA2F6A1WXWO//3Hf5QymfDJT3ySstg17rQyU1BleuQIuyXjtjaZ18TQeZ7yjJ/hF37vORw+7wJ6KRS394lQgiyXP3pvVYMos9ix6OdItb6BAUefM91kSp8GutBRqpXtehxaC9E5gjhrm1EUr2MXYMEL1JpbFqiBgcZGNkCoysfe814++d5LWoejVVTeIacP+H37xT/Ebtetniqjsgz4Pe9XfwW+8kVzIAVms0j0G9RsAbuUeoa8gwLOO0qpTGeRRW/gFi9wp/Ph4ifem+995EO48MIzOXJ4Qi7Khz/0ad78lvfz6td+kRuOWQBmKKDOU+so4oUglqrxXsjVKgdVVmXBVAjekbMFUpxrflyBSSd0nTGIA844Ahd9zzfx5Md/F3f9lvM468zDzBcL/umTn+XNb38/r/jLz3LVteY/5+oQH1HfrxzqCo5pM89725xRpmKMJS6CeHJZGK1Hb73dWgDOVetJuTGFxzzmAp74xO/kQQ++K5U5G7MtPv3PX+Vtb7mE177649xwDIY64fhOpi8G9PBRKIMgsmmP+2ZOjKtA1ujLoqNLYYFaF4Kta4ssdlEgJ4LC5gwe9p3wIz/yGB74oHty6NAGfZ+57PLreM+7P8XL/+zdfOGyZkXQvB0fDY3nbWGm0ylelOgUx0AeKot+DT6mRiPqIbW9Apurb6cJDmIHQ8UeIVfHNbc5V++4z8WP4bde+mJ2O0duXXHR9iy79tQn65IDriilH5io48RXr+bv3vwWXvfa13DNxz8BiwSTKQwD/uyzOftOd+CiJz2eix7/fRw+/1x2O2E3G8Oa8G8G1lgB2oSY5sLMB8rOnM3ZlEwliCOkSi6FIdo8xQdSKZSc6WJnWI+SqCURg8GPyYqXsGr/7gQJMNeMFfoKUqw1uAjMsvLyX/8dXvPf/9D80rV8olN306P9daxca8w/Wezy+8/6FfjK5XRekVAtf5wDeahEgb7ftX6IzgKruuZkOCfNN2qmqMDGzOa2WLCn8Uiua8Uba8ONRNHM2qNnwl3vLtzxjufRdR2f+fRl/NMnYGdn1fDXB2urNyrH2cYWaejZmHr6+YI8GJF5YGPDUnW1mh9dFMR7huKR0KFlAS4j3kAnQUwOeoHDh+G+99nk/AsOsbEx5YtfvpqPfnSHa65ty6wrKLWPjjJYkZDmvQ+AEA9hYkS/mMPRI7C7A9MY2N4RdpM9vKTonNAZAEYUgnjQslRi974v3OlOR9jcOMrVV53gwx++jmM32NqmbHEIHwM5KS5MqCm3iItBiFuCgBDNMhiSGYi5WA9XwawyFaUoxG5GGqxmYzZ1dKG37zu4yzfD7c45zLm3O5vLvvRFLrsscfnnbU2ygIsw6OiamjZzZc04JTSgrQkW1yyA6h33vvgxPPelL2Zn4shiWlJUlhV+oONjKQgYCrWmQvSBtFjQOUeocMXlX+LE9Tdw9jnncMa5ZzN4YBJJwbGoheAnDCRGL34kz9HyG4VBEIdLiZc97/l84O//F1mL0UpWQheZi3LeXb6ZX/r1ZyMx0vkOe4JWIgh03nNUZhwm0iGt+YkJmwLskLiqHGO7ZHvce3MlxAuHquMlv/IcXve856+6ES8tIHf6PP9Bj15eb/ahtbK5MSVLISVrh7Qxc2x1hTLAsWNQi1l+uZpscUaXaNvssTI37aw2WFzrDTqGJdtxWmDaRVKfiMCGh3vdE576w/fiSU/+Dra2Mqk/gahnOn0UNxwr/PUb3sf/+5JP8unPQhqg6xwZ4ciRM8lDwTvh+IkTtEcUgrdg4s4Ozae06xcFpx7nHTU3zU2HDoNtvMCd7wj/7t/el8c/7sGccQS8L/TDgjidsdt73vr2j/LSl36If/yACaRUwdVA1YGa7WZzS611nQU0UzKTfnMTju2ASOR4H9Dg0bKgqDXnyANMPUiBzhXOOAI/9VN34Ud++Ls5ejTjXaYUAY04N+NNb/5H/vhP38cHP2oR/0XKeAcl74JYFWPG04VIygurPkugydZpSCxbM4bOkQeLQuMdKS0IXWQWOzzbnLEFP3jxN/ODF38bd7nTETa7juMnjuFnE4Yy4WMf+hL/4xXv5JWvOU6fwIXmIrWYRXW2b6WvOLUaPMFTWLC0r2QPGmFPIFAw3L8pFPtXFDQluhDZHhZMZxNche3tHba+6Xxm33Qezjm2xfr7i/cM7fHWQiHoKgXrlhfTZgHYNUsZ2MTz+Q98lK+85d0r32/sWiTKlZ/9Aod+6zc5LpVdNYGiXoguoH1ia+K5gMgmKxR9wZCC19FxXVakaXtzI30z7d0e/hVYuniqetNBPvsfgwxWmOJmm/T9Ao3CbGOTE9efIO1U/vX33I2ffdqP8icveTFvfMsXWTTmKL6VUyvEbkpKFuypxWZV19o31bGQIhrBabVFzb3lhWcR/sPT78HTf/rRTKZXkvJn2IiAGygJpFzFWYc2+OEfuD9PufgxPO8PX8/v/+G/ECeVVB07x49Ti2+LZhKp9VtkBB2irpks5o9aAYZVnHmxXfCYqf7jP3Yhv/zMp7AxvZpJuAbRbcMYyIB4h592PP4xd+R7v+uBvOZVH+E5v/FBjs+hpIEutPb+CM5FSk0sBlN3XmA2CyARFYeqJ+VMTgszN0SaSdii0w4uelTHc/7b0zjv3AWOK+kXV9NNPRIj/ZDp4gaPf+wduehRD+Mv/ud7+N3ffx9XXGNMtkQTVk+twk6uOKK1ktJs1WpVUPKSGodUER/QLAQR1GU2u4HODzzkwYf5r//XU7nrt3gm4Up0+GdyL8w6ZaiFadjiQfc7zAPv82/4gYuv5hm/8Aouu7rNRVnGoBaLYtk5KlGEpMteOyPf2Q8Z76EFrMegYHsUetWxjkSoDsR3hJljd7FgSAUJnhwdfS3MplPSsGhPU4baGp7klIkxksainbVrr09IvOAKdLm2WmOsHFjEaGk2YbNae+8YglkVLlrdSE5MRJji2QQ296RsjC5OoGifEKn4GFAv+BAM77/kW1kqseVqyU2M9h8kAJxz+NghYUY3OwwhcsOx44aAEzjsFxyN1/PLz3gSv/oLD+HsqUXAx4cDSTD4KGCdVqsuU3w2tzVhk0B0itMOB8wmcMbZ8PJXPJ6nP+OhdFuX4yc3sLFpcYZSaqskcwRfyflqQvcF/o+f/U7+/C8exx3Oh61Q2XCKl8qQBgNXsIo3taQszrW6BDJoQlwhRG3tyszyOOcIvPD5D+fZz34csfs0qpeRhuvQktFsvlrEM3NCzMc5Z+sYP/HUu/OG1z6Ze97dzOhaoAumNWrrTRYnHTE6ui4iRFJf8AilNwCOoFirBOs44B1sbMGv/+b9+d3nPZUL73QtuXwG527gyOGZRbs1MdkIZJnT16uYTi7jqT9wD17zqh/jfvdlCWyxoICZpkoFryx0QZaMm4H6vAcc7l0HWZhKxOeBczZgBvz7p13Ii17wFO52l2sp5VJEjjHd6NBg3XtCTAS/g+NqDm1cxUMf1PH/UffusbYl+V3f51dVa+29zzm3b/f09PQ8PDOe8Yzt8QPZHmIICaAQGwgZjI09GGIb4WAQJpAg4UhBIIiSIEcoiYSiQBSUBJMHOGCjwUjGxFIESElIomAFYeIBz8vT8+jr6b597zln771WVf3yx6+q1lr7PO6599zb41Tr9jlnP9aqVVW/9+/3/f2dj/0QH/k2WAObgKlHqSO4O6gGq+V3WwiWXNa0s0tGQyJqGAz1swaaOXaeL8WzAi8nRAENjt0w0K16Bh3p+w3ZGzPoXEeQwJgtC88pxQG3ZAAqVrUXBc7GXSuNrv0QOu8NtWq3R2IypCvAp4xkyw/ofTA8BmbJVYbBZfUnthJWaCTOqvuCL85tu92FxqcTMc+0lStG7SIyjw3XenbvzTodhsiwH9DiZcwK4+4+G3eOH77Ib/n1H+Iv/Cc/yK96v2eNMQGPYQC4cs6Ecl2xuHZKtVFkeV939G6gE/h1vxb+7s/8IB/+8IZ+9XmEewhnVobqioUqJh3HcWCzEZy8TvBf5Fs//AI/9l//Pn7th73pyXmHk0hwBSs9O7z0gCsayWi2s3PFhgONNZEDvuUb4W//zR/gOz7y1Uj+JEerBxwfKZqs7FgVVv2KNETSsOd4BS69Tief4+u+NvA//fgf5Lu/a01nCd8EIo4BIRMHy+jyrivMTBj2O1K0CscOpWOky4le4Gu+Cv76X/tuftfv+lXcufsqD0//X9brHSmdM46RVMqUxzgypj2rVSSmz9F3n+fdXzHyk3/jj/Jv/t63sA4WrnRE0nBGCKUtejHB4lgM8OqcUEhxwDMS5JyTHt7+Evylv/jb+SM//K+w6j9J5z/P8dEW1XN2wznbYYcLFsLKeUffj8R0j9B9kRdfvM9f+M//AH/iR96Di3BnBWu/Q/M5IlqqKs0Mqyd6JhCRJu3LK0XaW/SphKvzhFvhQ+B0d2YxdicMOXN8cgdzKHfs0sCQTSPYpT2JxGq1YSzVdBeGTqXYtkxidRPJzrz3zgROzuCc5ZWIY9zv6H2gcxYhMGAOXRJtdZBRYLwxP4M4V8KEVjdQ0aOnKMeM8ek0t0LlXOCgpnHZK5XDuWxY6CIGw53HER0H8m5EZi3/nFfQgY4dq/w673974i/+uT/EH/joe3jnMXTR/AC1Z2IWiKpEtdBFrUV2CY57SxN++0vwH//Zb+av/Lc/zIt3v8gm3KPTLR2KxEzvAjk5tNT0u9BZuM8H4i6xFkXiPb7q3Xv+0n/5/fzpP/Vu3vqi5d6bk0wQVqRsJY+qEcSAFslWAtmLYSjcPYF/94+/h7/5k3+QD7zvDBdfYe1G3Ahpq6y6DSlq2aSMlMaXKUWUiA/geJ0Xn3+F/+LP/xv8Z3/u63nfe8r1UToydzZ3SvzXMaaB3bBniLFslaW5bYC3buCHf99L/NTf+MN80zf0bLov4PU+m5UrQJFrsvaYLF0hGsyeTCPCgPdnbFb3CfIp/qM/89385f/qX+Zr3wcbZ7mSEiOBDqebkrHIZHgWo7fzcHwEqyP4nR99jr/64z/Eh7/1mBB+mVVvFZZWhGMh465fE5OAekRdQbqNqN9CeI2++yX+rT/0L/G3fuI3883fYGcllFzFsWb51CE1mlEcelhDTId5+FVAgm+qu0davb+kiAyj4dllxQVPWPUWGSjGZ/C+mQu+NpIhgjdNoWbkaZG0xUjEZ1iNmY06gxnvfTEdK/RdcQ76gM9CjyNrYp/3+FUgY6G+CtySpZT15syYzPRKmBadg2V7iq+2vUGyTx2wjV6r45acLwfwbA69khk2b/rXurJmJeXImAZLsyxfrl5s1OPU04unlxFN9+nDjh/63b+WH/i+b+djP/t/82N/7R/x6utTOAwHIgpquG1SvO5f8RL83h/4er73o7+BF1/YInyGzWpLHM9Ag31RK48s3tDSNSgl8AlEHaTEOkCOr3Ln6Ijf+/2/hu/4rt/Kf/NjP8tf//FP8sorisrWavsxUz8ESyZxMuKAtz0PH/3o+/nB3/9bePmtI0E/i5ezmYepJqtMDPTyoYjsubvJvPHgF/m+7/kwH/n238hP/OT/xf/4V/8P/vknAd6g97AtSFu92JxElS4MvHAC3/2Rd/D7fuDbeN9X3SXmL9L7B4Sw58H9+9x97jli8lgDTBMDVRpMq2VglGm8z1uee4GHp5/ht/6m9/KbfsO38JM/+b/xYz/2f/KJT8CD08E8ML5kD2LmiqrS9cZAv+s7X+L3/+Bv433vXtN3b9D7h4ie41JCJiiJdmc7VwUjX6SEHRXRhMcQoH7Nt7zI3/irP8Tf/dmP8+M/8Q/5+//7ngfbsq4lolEdffX8LiV/3RptDJ5CHKoWipNS2y+lU664GWd5hGqss586f7FcIjiPKSvjvQAAIABJREFUeEWPeovjhpKnmdWcfyFwliMRcMGcyQ4YSezGkSMCBmtjp2oQyM4yPXcCmYD2HeqFRG5AuRUdqEbJTCNYrtO1Dr+rOt+aXZoZc4S8NfCCyu6yIfFqXiPpCI0PiHnL8aYnyhuE/owPvu/dfOBrv5l/54/9On7xk5/l4x//NJ/65Bd4+HBg2Jt69tLbnucrv/JtfOhD7+SrP/gymu8j+mk2ITPuTvHZ0fljy+ETaTBIlREYzJfBV42jwVTFmDm5c4ecM+fnW05OVgR5nT/xb/9GfuQPfzuf+tQ9/tHPfZzP/NKrnG0HkzCaedtLL/DiC8d8yzd/LV//oa/g7PQLnBx/Ec1bxEXkCYsjBWV8w2CZO30df3TO93/0A3zf934Ln//iGf/PP/5FPvvKPV6//4AHDx8QPDz33Jp3vfNtfN3XfYCv/uC7ON7sETnH+4f0biCNO3JKPLd+EUZHR2GOgPVnqoRm2ZF5DBwfHfHw9HW2Dx7QeWEcTtms7vPdv+Nd/O7v+SY+8+n7/MLHP89nPnOPe/fuc3q+xXnP5rjnbW9/nm/8xg/yVe9/J8dryOMDOt7g2EEahlJT7pHZsTNCMfVVjZuhNVlC62ktqu14j5P+Id/zO76Cb/tXv4b7p2/nO7/nP+SffRIy5o/Qayi0tntXrdIWahw5lxp4J6Y2+wL2ctM2ZVXU1AYh1aGmUvD5Bc5S5Gzc89YPvo+jX/2NdFFxBUg1dD1DzLzjA+/jjEjyPXsiQwHh3HRWPbgDXkcJZHaMZDGIuyiOMwwLI3uxYqB5Bm5dRlN3LPGqDr0h8asstQHUltxaaB0YPfVzZUG6UmGEwv78DNefEob7+PQGkjo++LLjAy99Nfy6bwBWCB2WsLhHZEcIe/LDT7M7f507xytwPflcwK/ZpUz0ah7blpJpT6vlqeMYrdXY6ogYI6e7PV3XoWPg/PyU4B0pPcCJ46ve1vG+3/whRL6FnHt2+0Tfd2je490WJ1vyg3/GKu3wZx273R7p1odW2Y2HU4fTI/quZzgbGeOO4HuSnvG2I8+3/4vvI+sH8d6wCpxkNO8wKIgRp19geOMB/coxJGXYDxyvj8ipI6kBq1hot5KHFilQ0lnV41nzpXtbnnv+LcRxxxDP2WxWDG+8QUfH/o37vPv5O7z7W99J+pb3oNrj3QokMKY9hC378ZQ+vkrYgo57y3fYmb2cUsYUbbt/o21yQSaamhyY1je3ThNdJwzxAaOe0fEiz/nnOAJOApzGxAK++5ptmKDSLAkmFcIvb1qOvDcmmW9A+NMeToRfp18AzMhA8B1HJ8f8wR/5Y/yRP/7HLNW3QJ3FMRJcxx4lH63Y6oBIYO1W7NizywN5yMDIg1EhRnYlzhq8Q72H9Ya9ZFvHii1ZV1sP1mauCnEl8c/0lvmrM++hloQCg1KdlIq6nZ4twe3oJJL2O1IWjjfPo7Lm3qe2nOZMWB2RBi2hjW1rdWR4ZJkYB3KOrFYB1ec4jxHNEU8gOCuIUFdUxRLSEK1cW0ooVYgx0veOEGrTgz1935e0UmUcR8Rlus4ALobxdZw7pus2PNi9xqoXgt+T0hmaR/oQeH2/ZbXaMKTxUZrhdUcHNKA6IuJJ2TNGm4vvAiIjquYgUs1WdqqZzgdDn8k7wipzfzyn9xs0r4i+L7kLjv1+S9eVsMQMBAR1lPQqHBHnVrz6hZFhjDi/InSOODpUR9arnt34ANWHOOkQ6cyvkh04s9NxmaiJcb8neEdwvmSqdcUJPJ26hg9Z5pNK7nEloJoJZp9LoDu8d8SYCGvhl8+/RNgXU4xxqW4f/F7PqdVT2LsplYaZGBK0K1Ghqupf6AZ1MBp/YulEW6DHFwaQKQg++ZTNZkXCcZqT5bp0VsMgUVmvjng9nlqHEkoKpiort8KtEkPMjNHqKaIXCHaWxXlSHIjzW/tSCCYCpfEJ838zsg4yU8gWs8fCJMaIJ7aRD7kJE26/BU90xuWtfvjk6Igx2aTiEBkVVusjdHQc+Z5huyMT2aw6IDNst4BwstqgIpzf37HZHOOcY4gDIThrsayp4CrNN2cifsAcNA6GMyvDvBM21jttmxmGAe86TlbHQGR/tkUUTrq1AVOcbjlyjj454l5ZuTXj6OlXGzo88SzRl5rtJxmKQ13HOGac6+hDR+cK/HJMDOOW4BVkRMj0zpnUzR6yIxOIZ1uOumM6XXN+tmdUj6OnW3V0fk1Og6nUYh0ULZXTm9qvgoiFmYSO43BEjkrcjazChq53DGfnVnXprNw1RSWOESc9/WpN1szpGw/p+xUnqxPLNc/m9ZIsLX8DZopZtcLL2ZJStizFZ1LBKpBMkGPSLnIU1jy8L9w5eQslumf1N/lyIp1uWH5VRUutieYMbopY1cK1era1JuBcMeYMoF3/UjeBaQC9W5PI7Mc9q67HucA2j4gTuj7w2nBK31vqL+aqxokQNeKyEpMxBOk9KQjSeVIxpqxMzEA/KPNK5EaRPkNJbzxwSlyF2y+CFkTQ+ndTmbK2RAfzqlinFXKN/VhyTmLFSM9Ax4NhR0yJ0AV8t8JLT3Ydw36P10jvbEXzcI44ZRMCOQtptyOENZvQ47IyDjtUB9QLGcNek9wj6hvBGxeediKOI5vNBvHWg03HWOL/jtX6iN1+JI8JxDapNtzMeU8IgvcQxz3ETL/Z0PdHxMF4beespvtJm4ZYQVVCQyanSIqjVXmNERE46QMiaWr8mUEYLWdfPcEFvLvDsEvghc3qGC/CGPfkfI5iyR8iVeZX1mwqNZLxfrS1xAAtum7N+njD+facs7Mdq3UwfS4ndrGEHlcrchJOt3tEHUfru2SNDEPEB2HMprF1fVcEeTHFmtiZZKahNilOU5GVgvXO6VACY8qgnpw7nF9xNij7bHj3uXfoPk/G9mVnGdDaIiuZc08KmKvzUwbcUkW+mRlXv5HnGnH1+EtxgRUnY6Kk3WKNO2rikXPeNF5AsqFchxJJG6MBrqJWBOaCwwW3qBdxmPaSU81/lgmcFCEUwhcVq+TQad6XEr/zjuQcriQMXPbA0yLVJIvaY9wepHrM3aonDTv82mz5WFA1BLWa+azUzB/vXEnhNXwzjxCHga5fGeqsg75bkXUkZkp1Vs08n/W8n03ZhcB2u6XrAqvVqpkWKSWSGuAhYNh/KVnTTTIVpCSNEc2Zk6Njzs53OOcLGmv1Wtd48eMPRa3DS84EH6y9fBzovCVspDiameNrx6CyuWJqc9YIyRmQCkqKe6Jaiq64TErjpM4W789kjRqZ5TTSd4FhSISuI+fI6eneNIfVEcO4M6e6MxizVGDOEId4Ryc1Q9KQZ2IewZUmG2m0Ut15UYfOdc1pTqY1xuIIBMRAL7z3DHGg74RQKiWdB9/BMMw8WAf0ujBxtaj72VplueLVrzgHyy/OHFw32cPCeA41gZpA00kgphHvHH1Ysx92qFeCeMQ5hjRwsj5hn/YEcXgVNCdyLHBfYLgZ3mHYGbab9ozFjV/M19ZcptCkzn1gZui0tVcg1FLdeoCdOFbrNbvi/KjtsJ3WpJsZpyxZU75c3mNdUJyC9yPeRWLeEXyyW6viS41lHo075XJ/OwSuMRKbTE2F3luOvxgYBLJCWM2atJrBWEuO55suAvQWLgGlZRX54k3WgpfutJRxl/ZP4q11lIB42I0DzlQUex1Xsn/lwsYvDode07VHPTm7UpJsLZm9L4ScEqoOcZvSwqqcMkmoJJDIlN1mklykAG0WOHTnawi0hmJmW1+7DOWOcXS4Uk+eUSRISRRR8L5ojPbcqq4cIofzSmY0s8JbxpmWsmqDaDegl2l/i1hsaYSK1RAoKgmpNlztvElmTCOboxWazo05u40R1mhFWunA7LsMfyKl3KSrK1Di6i4zd7kx4U/OvaUPoE2//tRMV7o+ac7WpKbQjcaMd56YIx2+QY7nIu1zMvOkhSBnWXnzUGZCFwk+LSInSqpVatSivmIrUXL7VY0onEAf+tYi69Bb2P6cn2WxSpJc9quYewz0PIw9Gl7Ay1E5MNahzBZOJtuucLDJeWKrINRGIdghwZX4vS/gC1ip8VTutQAskFLuNQsuMekuNWlyIiqpx1zNEUftulNDURU4EwfaFSaRpjledkiuCBvV1lTOr8vzj4haJZ01SSlZWxIsHFYIRyWhErGMKi1Yh0Aj0aVUZaGlVE1lWocaIrW9U/D1/ZIroeWZnTMJVJlIOdhBDHlJJbeEkvr9hXrfjo0WJlWQmiRY3oIOjfizOKIYZJjvlCFmvApufZf9bk2/sac9JHyY5aGUNc8pNcevdwUP/zKJ/wSjCZnZPylvNAdm/YzOV50mSCtzdIBmJeZoiUlqtoNYS+gmZFymlA3bSDIxoXbdss9Z4GEeLEtut7dFk4DurRCsqf3eG8xx5zsreChqcJt8ufCS2zkgmMdWlCwJvLJV+Ic//yr/wZ//SXzaIhjcEyoE1UbcbZNlItLaIUiK3mIgGdYVN6uV12oRx845c/6VDc85k9MUwnHOlUKcKvPqv9mmiZRDWwvdQfCQO2TOVaqkFTVJql3xLcxhrS85IDMJVB1M1ZeieFIs+ARqmX9mApXYM67gMlSEmTrnUsiOtrbSbet19vvhv3Y6KyssACgNkKBqdqU7kYKUdfYhmJtHlJRGcrYQqmjV+5Qmutr1q11ffTFVvbf5ZzHMOhDC7FArSnbFnNJsiM6jx3fH5HDML/ySJbtQy9APKblIzSwUKGs3OfdMRcQAMHhSd01dxOYemERKEyfTx4R2P6CFwcHOnlDSjzUZ/j7ZIhEF1FOb6TYzZ9SKkkZnRlzV7abQoxAd/Nbf8z28/+u/lpV39PvIu/oTniOwKp1+GxGFEECx+H0crVMI09Po4VNJlYJVna5SFD7zKnz+i6+0EsQajmjpheX1NLukzH7Kwd+wBMYI3rLv+t4OaUpKjKUyTqfvzc77ZXu3pJX6+cc4ENdo/BeGoQAXuDExybo9zw274LJrz+d4+LN+5nHmcDgOr3X4uxfogkFhVcIfRwq+4MVrXDYu20tjPZQKD1oq0nyv6971RetUvlSg2EC9sPBezdRhTVYPmgvR1PCxOFeQfSZCvC0DkNnhnRO+zh5WqVnQpZqgvO5mCUiaTdgmpkiEiDRiWU5RimJXWtGVVz1LjSMJfMWHvpp3ffB9HG/WrLcjHzp+Ky/S06OE4AM+SMF5tJZIQ8yQU1H5riGgGhLJBR925j605gZiiKNgESasQKttFFcf3usOtDigA+kCUTxjsjhojBPWwE1Hu48ufjz687Nxk1t6b2AZyZvDLEVrVjpe7bN65PXbUlZds23UDRehaBXtarMJCMaspFsRXWeoszkzRGFMw1LlvYxrzIjykPAX8y9zj+qo3W6MTBLVhNgX2dIHa8LivMepFA1vvoBGMDnnIm0Nel3c5LieJwXNtdl2icdk/NX2VlkyrPaZQqDVzaqUKujKDNSKpqzNdjZuW6IQ1XbX2VWbEetcgbw/ZNoFukws+c2t1uRV4I004DpHR98+G7quMxRUZ06ROGZiKvbGTUIemqnBB81MCVrqiDWmLBlcpDlysmWXWeWR1QVocaLVw9gspKKWqhrRe48xq64DH9jvU2tG0SR+VV1LgkddvuXO2u+u2jEyt8nmIbG65AeqfWHhjzorqkoIga7vTbPCNKshJmKcqeyXUEhTqJh9qFF7+TcLpTXCb+q3wlUmiWILmosu5qDpYYL1K/Ce0K9QNWitGJNBbBUuL04Kkc40xPnzlDM77e3BQwrUAi4wh+LUDiSgkvG9kMZ9g1ZIApIsyu1mxpxzjuz9ormmd86qPIu/oja6tHr+hXdkWpbH1ARc1YgPrlUZgznU56dJ23uoGs1k85s4kQLj7ZoUbxWCzd8k4GYgIgdL3rYfIQnsGGxtRdmlaKn4KiBC8N66SMSUrMAjKpSw0qPzmxWytf3xwbGPuXHyjk35RCLrHF/bcpvNsSU1YMDE7VMlS4pug9V0ASIWfvSmUYzRsspqSnNTuZo32WL20zvMfgLFeWg2Taovte9On8+Lb9fFte/r8poHwznXVLicMyklxnEsqdEHUlPdpCIVoyjPTqJceAapLtzlaOJYmDra2TyX7Kra39LKsQFCCBZrFiAPxqyGwRS8A+ZkYby58X2ooE7Q4+3fIcSuXtQCFStGSkN50xWQFUwj8dmeJGL8w3tPDqH5U5xz1k1XKoOYreMjmPZNNYHmcddJrtWTU6v7cjYAVRVahYNkxSWz9VMyH5ijOvdKylyewoWltheQdo9UGG5X1iS52XxmnHfIibVb0zlHF6yDdCcdoIRUGkWmlK3nty2vXSKXZSvce1LJ6g0EnCPlWJgGFjJIjoj1Ls9V+lxYxAqmdHBkFnp4uYcKOI8PgdAFRJQYjYBSLUWei9DLmJbMRNGMeOyVoincUF1eKFuP0I5W63U7kBMRlXWubFsomSI1Ji7U3oeU8Ol03/kkLiH8C+MyzrB8d/7c3vnS8djAJoY4MI6DAaLOKXSxcZfp/Yd/HxD+fBsunVlxY0ldl0r5hiwMEycS55EQ7J/zOPF4EbKTedVxoR87H43RqCxmPJ/DVU9yOOervlPVdc2G6LMgzeIEtsKiKcU4F4ZeNaBaoGPRtOUMFsVKGMpQbpqPneeN2zCyR2O0RjiVGSuEvcuk/d5A3OrMnEIWOnHEHMH3iPiSqmne9BBKXXemJPVC81y5jOpYnHxleWYrlOe6yoXDc7i0NYMrEYeBODBjx2VL5eDgyFWHsep0S/Gll36WSZ24cFIfSXFtbLfbiy/OXcQ1YFyZU42/t2N1cG85uAZcIKLl+0vNRw+uV2MhdUTNxP3eAOLgoui7cNq1XWU5Qcq2H6xbe6SZ9iLT5xaCZXF2pP2uIsQinh2elKyCEKecnW/xzpKkojiGJiMnMrEuSPbagpFz+VLOx+HOz0NtbWWNfJgzZ51/oCqzWlCSqcdSZ85wLdegudbQumxavCNCEi2dfcuaicxMgWxp8wTWAmx3sLIuwF6EkMZx0qeUKQkGgYwVduRsoI04+n6NxIHT01Neet/7OV/3dHlSmXN54EZiTaWrm6sNYw1KGOi6LJk3YTzp3fXg59MY1y3FpW/dRPg/03H49Bdncx1rv+wKNx2CKUiu69jmxM4pJy+9k9cfDoS7J7z24CGy6hvxWxjMfvpqhcpyzS9qoMs3Lnv5Nsf3SrPixo4HI/5UcgZC6QnpSlh1P5zz+c9/jjsIz2fHp18YeOBXbHyHIE5RQ3BXsBAKAXLgw7/tX+fDH/0uzrsVa1mRorVvdpJ5btWzfeMNuuBnSTsTk560Ozk4oLpYsKeTbvHkI9+SciqDe6rjkhP25SXwy0fdx+seXy75bfH+44ZnDoYh9bgCNOLIXnBdYEiJVBx7aPEgFcKfbGMludr1ePZcVyz2IR6e3HJfbrJ+1w2H4rPp3anA3xmeoL0eNPGxn/jrfPbv/z2zlYYRYkaSVd6GMFO7M1P3lmprrXpr2OjUIcEx5MSQIve3W47uPsd2jFO2XSXlOfHXtE6dqUVi90IMtPPLxQBUJnvwSUa1kG41h0dcf/H3l5dPXhg1vHUVBVz0LnDhFVkkKT3m/cFsaXHEGAmhQ3Pm4YMzjjYb1r6aqksttKniYgCuVG30yrkvv9cIX27HAIpR+0jN4ap1dGpwb6LFmWgWFJ5MINGr48VwzGe3mZoLL2kyLcK8uebS3hJUhHEYGJxnnyLrzTGucwT1aI483O/wziOapsy/NluZ/psxGPvM5CV3fPmIv/mgnvDrB2bdk91eLm7+VdqEHr53C8b1VIbeYK5t1DM1/5DeivgRZdhHg6qOkZQinQu8cHSEU9idnRtDKOs0tTevlXiKy3OTdJrqpeuqy19vq40ZrVyp95cfcvCa3bk64ZNa2LVmPGRnjUH7qhXk+ZuWcZDKJYMVqOTDZ2u72pfGCzFCIrHbWdXWZt23ctaJccwpYXaqa9y9PrTIbPGmb385htxiC5+OKj49u8xeuuzah8ymOoK+XKtXJeDFVy+xndUMPmHBu243FNb9ihhHOu+t6i8mEomYMkdHG8ZY8kgmmTbLRQHJgtNJas4uffGpZh+Yl/A+ueaoV2gOM0dkI/7lT6MfKanxhaacwYWrCk7UWtbHEhWpoCnOWR1GhjB6pXVorE/Tni4T08BOIyodWQXfeYv/pgQxWrPJ+aKUqUlRAYT5w8m08OXVKc/5yzEOF/bxRp32k/sNyhbqJQyg/q6Xvwa06tMvlz+gqb8zStfZ3k5aIMx/XarX11dFXjtUSKMlrTjvGcbYwpTjOPJwvyV0YeGLAkOfVqoPYKo9mM/vSuY7XWbK0nvC6QvVF1EpZf5m+TsfRiQO9ORZHouq+fezWOJdkpJ3IwIpF1++Qq5VOZJpGWGNyyioIeV4TQab3Dl2+9G6wkSFlDjqOssJ08ozJjXOiLr+PnH8quZWtuDyvAj3zR46M0GeYMiV+XM3vf1iK9v2HjiWuOT1+v0vZ6DkotSyCc3X84IqrcvXbrN+RjzmqvbiyXnAqTLstoQQcMHPhFozPJhITSatW2dzfMQ951xC3DUffuS1Jsm/TOGFGoKuNfkN5+DwGuUBHILkUgUrGU9CKkBK6WU+fzYvEGrbXt8FQ5BxVmSA97g4EoY9J0cbhvNTTnxH3u9xCOvViv0QDdOtBCFD8MRhT+cMlikALudWxlshBabKwFKm+wyJv1bTxWigGIu/Q0GCV6XrOs7Pzw0brWTjhRAmkMfLrs3t1T4PaLJqxPV6TRxH67XuDQcPLOMujfa7VSrm1olGxbLI6nPVuQMtP/yZjnK/Wr2Ys9L1K8635/QFPAXmkpf2d12/J761giQlOE9Oe+4Utb9TcCmTcyrvJYI46wqVM50zphA1EkNJSPMGgDmOIyos9r4+mzn5rDTYMCwzXQmtPcmovod8sC5ze1+8YxhGstKSxXJNWy94FZWBZIHOaq3xmuhzxOfRKD0p6hzkiPiSWeiCaE7akqgEWi72297/fl76mg9wrhkpWHPBd6RsmUkf+e7vQY6eg35FTiOSE04zK+/47Cc+wT//+X9CD3jN+DzV1beKKoQsz5b4KxHHGBvheO+tXNkJeE8sxPT666+3lObF564Ztzq8mHbkEIL3PP/8842wHYY21Io7ZqAg9fdK8As1eobD8MwJn+JAmwFo5JIm/KXXXrsgSQ99Sre19kSx5iNZSTmz2qyNoeeM8wKayclAPGonHF9+N2JRRqdsx13pSCQTEAilI44I+93egDhWK2s1XojfI/jSxOZJhoq2JKH2Wl2cQhNjimy3W8bRUI4mtCq3SL+vJcKpqN1OE31O3Pvnn+C1T38Gaoq9gHMeUiL0yZow1DOuYJhvmnn1k7/Iq7/06WIOlMYP3kAu0ET/Xd/JXgcrnMgjWUeCMxv23hc+wz/6X/+e9XjPmZAVNwvrTUnCconT6OmNlFLj4pUYjo+PbZO9I2EHR1V57QtfsJrgxx23Mfrq6HpeevnlNkdXJGqMkWG3b4S+xCqwWoFW/jm/9AzN5lkNFTg+OWnzqfdLKXHvc58r1Z6LWR38rCr5ra1mAI7e+lbuPHeHnNOlWdeCmse7MEgBOh8MA2LGwFLOxddmpcCvvfYau4enuK5jvV43huy9J+WD7kGPM1qa8dIFOheG+2Fg2O4Kgc5u5Ar3lPL8eelds9TbhCPTYd2HIibYpWBiBEvwsevk4kBCLf0vqaKNK2Rrzr7fG7aWE/L2DH+0IacRp4ax56JpAPH0IXzpHgwDMWeiGkNpG32w/89yOEe1bhCBNW9hs9ng1LXqRUV5Iw0GmFgdFI/Y1IsOr8cbKlgtT7Z2VxuigTFmww8UJzw4f8jZ6/cnz/6Bs8+g6GyiKb35ntO7nVswH2tJlpBxb3O91Cauzt5ZhdsTDDUKNLgrEdZ5zzr1E0qvqklpKNh/NteUozXnUMGPQ8swFWeLmlKeVP8xsh6t5yPjwHB+DjPBddA54LGGzP5dNbwL+Dz1x6jhc1VIalBp5jRu1QBIM6bNaS9A7XjtnGm6UFrNBAmMWlv6FieCKkGEmE2yZI106hkKaCTiudP3JPHshozGEa/GZY5D4I7vrM422bXaRtel09vbfDcdc6aogDqx3m3FxgvFF9AgwC5zS18y5pWETzLKMoOUnHo1nPWU60Y53Kog4FZH2ew5kFLGfMhQ39ShBF/BMNUarWrtNaDGkGTx8fq/xl9vtX5MDuvX33iN8/NTO7sFfyBFQ43OOXN0fMzR8aZgUlr5+Jjg/PSM3W5nmIcH2pJzjv1+ACllzBUvoM3a3WrZjTyvHgaoY9JdkInV1AOgtYKmQILNnIYVx3HMkdY+QaMJvPWakBAqnh6U0shYmmUWraA5vTRaUk4IJCd86zd9Eycvv4vkAsELnWCND8eB1z7xSX46plKhNEFIzunqTZNTl3nJsxI1E1wonYEV7wI5RZybbNfrxg0VhBvNz+FsLq7Uf5aL5jlazQER+RDMKVgm0dT8ZhYuS3WfxUgpt4rrnBScSc447w11xRRuu34KlNZEkBWNiV3cQobgi4mklOrPTL9a4V0AqSagEFae8Y2R7X7LPGx3lcl0uJy3iVRVAr1uVDzN5u8pE7BzkpvWlCt+os7S7FGT8tU6qm84T7/qCWMBu6hGUk41fJINImimtg1a1I84gnM8t17Tx0TMEU2GROLJrILnpOjaMsvgq/xyLsEOSyqfyWiC0aSTV08gkAs8N9mIxHo+2t83ndNtmVit3HVJkAjOCyG7xuEl0tzBh3b983eeZ9X1i/LQ7XbL+fm59W1Ltzucjx6KE4+4SSo653ENYGT2nFde4ZZCQBWfLzJrRVpn5KrVDTES1eLhFTGZHNmPOzKJ1WpFTKnh5w37vdXYA1Nbb9qzziMrTzweYfPkUso8L4IEcxZag9GZ9jCzoaY0/elaTqHD0Yf6uL4fAAAgAElEQVQVOap1JgY1YLmYJoKo6C6azCCtBd0yofDtTs84Wh1b89Hg8eKI4x4drH64pp8t8XN1Nqmn4PJ9jFEtNbOfrd99zW/KWi2leRhF2uJfO24huqxpQ0LEoyrFNzGpkoIv700QZYa5GHjuzvMNG2ByACrb7d6uLe5m83/y6ZNUyDrd2/nSI1pmMXYOt/nA4XMr0a9tzRRbh67veeGFF9hsNozJMBTu3buH8x2IIUgZDLlaarAqoet4/i0v0K9WRdXf8+qrr9r6zs0qKVpGLQWX9r8nfIBHGD4tk0vMuZdzM00WZmed2wX1UKxq16ABOVpvcD5wPgwEstKvVgz73SRZxJk25fvi0VTCZoWII0drftB1gd53dCJEEnmIJM2sVj3jkJAQeOHFl4rzarLxajpwHTUR6FmNBplcfnZdx3qzwXUdPlgjSeeth9+dF15ku902B1YNtcH1vonbOHwqXMFms0a6Fav1ujWR9MExaOYkv8B2t8P70Oa1OTqGbk2/NkZRn++FzTF3X3xp8mi3g7IMAdo/pkYlMzW3og+BSbYHD085PTtljLWBiDRv+fr4Dl3peygihNBxfnbOnbtvYRiGBkahy6derN6t1g/a5igWJl2vV3TrI7r1hqDKmB5y5+5b6Pse53vWm75FSoL3HN15wdahO6JfbQid9Y5cbXYLye5mmtf8XClLrezQZ3BoPjxOKLYy9Un1n77jpKITC7lCq6uYOYDiRK2X33jOZr2yCJIThjji+w5xzmslUFe6umaE1XrDb/nXPsIP/5E/SkxaYLOVYRg4OT7i7PQhX/ne94Iou92uHa5xHOgLXt12e95w62aPPtu8G3rWbjHcTG2bh8lq6+acsQ64bsp9bok+h5v2lOdmzupAjomYRlKKbaOrKea9L/Nx7ZCp0to4DcP+WuZZn2vxHO3gTmiqjaBniUFZlRC6os5bswugqdiC7b0rDElLslRNRvFlHeuBrd86mM3jLtvB800t5YygY4NvV508/nM0pcrUax6HOM9mY7Bzp6enxlw3m3YOLlu7+vzz9b209RdXE3tjzNc8n4WoLyD11SsvC+pmer4j41D+0z/3o/ztv/Ux0rhvzT13ux0xZULDtXeOlDPeB0jKfrdjc3TEdrdrKnHX9RwfnxBT5M5zd4lFatQHqRsf42he9NBxcXNnHPLpucyuHMM4i4OLbwkcOVs2mne+Zf+t12u6rrP4ejkgh80Wnu4woqkY/TFaX74KM51KbLfvPc7bPKVm/6U9+/3eDvVMtZ8Tb+1QfJmEqWpjzYGYwE5Ny6y5DzHuWK1WhK4rUgycMybhRPB+REtiUs6ZcbRCmn61KslVEwrv1Sruk8v+uVSsPgctIeoYE6qZMN/XGJdaUIEtSykRY1y0czNNJrT1yjnPmHMh3jxcO8NrOzbd4Mmd84QgZX2L8TxjzlzCcOZ9LJ5//nn2+z3r3gTcvmhjOaUJt3+eNOJDT4qZYRzout4cOs6zPd8RQkeMiWG/5+WXXybGgdB17Pd7hu2WruvoV+uW7PFIzeYZe/tckVx1NBU4W4hInLfmowopKy7X9k5aHD/+mU4zjqNh4nuH81aEIo1ZKb7rrBozpRnTMoJebzaT9XyJdBERun61UFHnjEGk9GhI06Gn3MMZlntD8VWsnyEqjQnEnFsrrBACXegsPbZIoGGMJkye4frNnZ2T5J0cfrWSLCY724rgypxyzgamWf9W8KFrv2c15gBY3gBKytqyPl1ZwzqPOg4zMc3PpBc+18yy6x5QpmeR2kKt3VQmzaMY/m1/i0YxDAPee1arFefn56aple8E3EWPZYoR/GQT73db+vUGnDAMA/1qzTjs2e8HvBe6rm/qIWhTAdfrdUGpverxZFbk82zG3OaaN2xUTeC0ACNaRyDV6eBXT3GM8ZkZJQJ0/ao8ve1BzopqQprdTXNkuSKZDfQxEHxxFl5x/aukznQAbT3qftl79r7znlBNjsqMtHr0XZOu4iw0XM9QTYsWZ7n0WUvc4hkldLgCdV3nlXMmDYMlwKiBY9a1jDE2yV+7QFUNb64xzTWJSuj17KRZRygt2o/55HSx3nOGNJfEh/c5NC2XQ6DUHVQmW+du11M01dqJOo9izuWIpthM8PPzc4ZhaPOAkuGHzHPgp5TM7XZH6DpwHTFlVusN435kt9vbRbueOO7bw4M2h1C9yWU2Zx21UulZhqPSbHOrE0s1ImIHMxePu3mp3SJpJudUOG4Z18Wrnnh+dkgtccSkfkVlFXEMY2QTOkRcI9Lai2BMEV9yFK5K461q/zwLLxX1t9rFONeeWdQOdAjBTAIqQuzE2OdrWlVmpOaUzXseqDGBWeziqa5f1Vyg1TjknC1iJTVaVZi78zgfEJdm3vOJYdheLNOR58VSlbBrcRhMfoZDW79eMzamWJiLm9bsKv/A4bA2Y6Exq3pf+1nbclfin5hCfb7dbsc4jgy7HTAVB6WUCY1dUBdSoPRm6/ue8/MtR3fusj/fcr7ds+r6Zldtd3v6ztF1pjaN4zh5hIsP4VqPplhSwrN0+NWHhaUtVDfGyZSJ4IuUO9zc6QJXeDBuMX0jImMw4goeYs4ktSYZfd8XhupQLWprY2LKEEczW4rJdujRryZdkCl8mHJVX4vp09bGDmgIoSTDCF3wzDUFhMaAnPecnp6atK9MXFxjBFJ6z89DWk91/cRagVeJeBhRcM6TYmKMqTmsxbuiwlsMPWcr6+66jqyw21mRT1eiQXNhMKnf0/DezSTxTLKnhENJYy7NTcoqlK6783O5GAcaUtUOFslaevF3Y3yTo9OVtN4qjOd1F7WCMTDjVqpmA+dkqpP3nr7vGYaBrl/Z4okjxhHnTN0XSewqVwm+OPnKFlwj9Wezv8FnnnwchrisS5BtmvfW0SWWctlKLCknw1ov3Ho+08tY2Q0iNtdMcOnBTznjnOBkIjqrSCymSJXeRUqtVuvmrFIoyC02KXHmRHROizkzHVJtD7OUyhZd6JZzKvfyIRBC1xxfYwHPmEKKgCRyqbLzzi881U97/aqkr5qIc9bRtkVyUm5anQ8BUiSmSRv03pdcDy0arzQBAMIwjKzWq3Y/t3gWI+dKh3PT4aLNT/v7ekkvB3tSMm5ztvNYz2K7Z+nUwaTuz8+6E0dKmd12h5T5p/oZ1am7XnOEpUTVJeb2jpbk4OoZz6WXX8rJ+qHRqvWnh51P+NLdq2CCz44B1Hh09U5nKR1RCwGkGUdVdCHpLwWluOwet5ifYNlpdZO98yiTB7t2l0UcOc09227hzTdp7UmhdF7KqZUxQyGSwtTqayKuJBg5nPOLDsK5JLLU+yvV7s3tuyLafATV8+59IKf6HNetX3NV3mr9tJht1XQC84LXuSs1430C7jAn5GSj17MrznpVmqRenl0pz1eba6RYJCil0WrRPvrenJ7eB8YxFo2tCljf1mhiDDbPcYxFS/OtUrPuG9DmMqX3mkTPpdNUjV7pjDFYBrBO89e8uGZoO/OE3DeEgPXSy+0QoEW9uY7w23i2kn/u8KsSC2gLT7XnbjTXN3/M4/5zT339admIEwk552xXY6mwK4e5jnaIMIbuSz1BqLkOimkNMpN0l3i0F2/8Ch9Pc2/ruo3DSHTRfCazUX0Cj7Ll65i0KAuRVgbhiq+k67vF56WU8rbra4EvX2ggrljz8zZLB/MRCDenvSscSmkkxmHyF4BhBrilM+XySx72jnv6Yx6rP8x2awwA45CatTlQxE0SAS5dvuket5phswYvf7dKMal0OZOYLVSkizkLggSTVNldXP+5rPXBtxZdMB3G1j4qX9Zq7arnmP9cjovrd2ihP/7Q2f8P7zX9Pv9LGyNtr8xDdLPPtvNw4doyaVG12c2c8aLV18a0t/PrLF+rZ9I06br+ln9ymbN8OpPK5OtYpn475xB99L4dpt89eix2Sqewj2p5YCmOvJuqE8/W4XfIfJZJMFMiDVz0D9xkprci/Esfe/niYh5a+8xOh7ZKovpZ55xhBGhx+NZPXSKJ6vvTYS2HsRz8TF4QgLjZB+GC1CsqiP0UhYMz8LTXb369tk7VRFVm3ad0ObcLF5oEgdTvNKCGcrad2dfipjUzk0Oa6XOomd1kLNN/63pp9ZsuhFebrkzJTblW7bH0N9xkHo34J3nyqLHkXIcZTxYbrZVI10u1afuenfo45541q236PTYHpcXRJ95/VYz8ac907m6rFdnoBHU2bWideG72PhgEmNY+7WLXUM1oTqQYp/zvK5haThExw82cY8VRWD3Mhypzq9MoTiPDfijzV7B21HNpd5EBPM1xeL3prnNTaRaEPDjgKsvzvLhCS3+efp+/JtL4g+1b1hKtsQXRAiFWL9nWqH2nMO+59iGVseRSsHSRIqtvrfqtBGm5DsC1Amw+QlvAw3tcMBGqsjibPUrXBZxbL2KiC+DDPF3hsvGsrcZD72sdc/X/8HN1XvMY7rOf7PLwTRI7Lz4z2XNVTV0+U/V+1xz2uWSZh3zqqOFBy/MoDMAZhmBWLY6y2emdnQu9xqSrB5saypX5O09vXGRQipKbBiB+WZBz2Tzb75cx+5k0n0vbyvy4QtJettaXP8DVZ9CY+EVjaXLATzZ+zUQ9NGuuG+G6ragHcDqQ1Zs/MYAYY+GogqYlpNGs+pmrJHzmFrjtNxk65Q8uFtk5NFlYrb42/0yLEtTvPsMpztW9dsfmicakvQtNiuWaYqqTJK5zroezZaHNnnmOTDzX2JrtqIpzaXaQKMjMRYsuMe2qH10rWeoRWVjmz1rTm2z6SdKbs+RKp99MwxesmLoRl2gBoyn1/xS8yZr7a3dsRDtPpGph40cAwLqCnFvv2zSDWfFUm6oWhmAcwM7nLPmn3rd++FGMZ7L5rzS95Yrf2+6ag2lh+09c7zKuOy/xfTRRXU1+xjTmwcKL95pi0BPHbmG/lEpceLpOu+vBvIWqOS8lsx20q55Qlu8ulq++cz0BVft1zsBiTMRxSlI6lP51/nMUGO+9NVUVwwyIY7RMuGKz5oJ0m5NgCCJyEKYSVD0SOsQXuKjbgNa3B5yv5fKwH3xyMep65ELgbRU14dSAZYxoL5/jjaQyS+1vCpFO9vVhhl/VCDSnQtTZNBFozrpZys+FuVwfKaja6vSK7Uup7Zep1oDCKNofFy9FqEdwOjTld5kdczXMviInFtdYAk1IU4OqWppzogueH/3RH+WnPvYxy4gSteq1YEkIc64Zo8Wiu647cBrOvPTOknWywtHxXX76Z/5nNGfry6bKMI6EUsVlVW8lpXW/J6U4pWzmTA6eruvxvgJ7zKqmysa6xsgmTU9z4jf+hl/P7uzBEh20rMPv/Oj38u/9yT9FZQAz/QNQ5ukiS8ufxe81825StqRZXU5csVmrXVtNAft+zWrbrNeWOOSEH/j+38Mv/JN/TAiek+Mj7tx5jtD1jFn5mq/9Ov7kn/rTOGe5XzVDU8oc50SaGyM8kBpCq9e4/AjPnlEBzdy//xrf8ds/QvBiCM9S98GVdF1a8s6c4Vqc2xKROm+dpJwTXn757SAOFcd3fOfv5Hd97+8u2Ywl83C2t4gxEOcMtVe8K0Kh4OUVJ2fMU0pzUkPGyKrtc5qUo82GlDLeOf67v/KX+R/++7/C8dGq+WEofSo++9nP8Xd/9n/h7vMv2PlQxfvQ6mDmzMbyDUrMv2rWjfmAOSunBZ0stGU066JwF8KVIn9hownacOUu+fyBlNQDbl5zi3fbswLnnMtDVmbD9LCFAPdyCM00SbR2S3GE0DMOe5xzDINJ9hCCEayUJBiM0KUcDjG2CFitt0gtYaXdQ5y0bjDLp50XImfMqVHKotuBd0XlrI67uQExf56rCH+59ram0yyc83SdvT7mxILUmjpq0vnoeIN3zghDtJg5iTgmTh8OaLYGrOI7ci4w51rU/BLuMwla1m6m1ioXpWqbZXvu64dqZhwH9uen7MvZaCsilNoLc31PqcLabuRLxuG+5Jn0XWC4e4eMI+bi/NRZwPZA4mu719LefuxRGF7TxBQDrVWDsqtnfvlv9mUOHLvz+c21aZkSkybf2/w6LF+Tg79n40Kor0nbGy7G+fn5xRe1sQxyjnTBc3R0xDve8Q5DjcEWxFJtZZE1Vh2HrS67SBhjFBOWvQhWqBHWUy15TO39lC0n2pdMqOlATdxGRFo9giItBbbru6biHUYL3uxxqFJaPb9r8VzfiKGsYZmith0wv4x3U1SgjpTgwYNTHjw8Axd4+7teN8bpgzEP54pjybSeMqE2n6cxLMV2Kiyaj/rSsj7A9p2S0Ve7GtWjWtONU072HFfMsxHTDQzP+nmb09JRfNlnHmdc5pk/NAMuOBKZJ9A9+T6Ew5u1m8xKSm8zasbT0gatRFWzkUpa6CxPux70SeKXeRXHlXNmc/brNdvt1lJZZ4g8NY0y5VRUZGn20YKTzsMsJSuxovnU61w1biUpbjEWGX7ttWKPHhC/D76F/DRPDUlc6RfgvRCTQkqM40jf94gz6DZVyiGbNIuaOqvcUlKWMXdO1mfyrqYXz4mufmAC5JyPesb6AimWUqYv4KaPMw6f6aqQ7+F3bsMMr9M6lmHA8pmnJIPCpTcQO/xXVh49xrB89YmgpBzCnGOrMEopN3y6CVjE5mQILIZwUz/fdYYQNJYilq6gzFQHVHXueV8kwbwL8SXzQ2QhKRviS1Z8WK6BHoR33swxdzK1Kr4ZcYpI6ydXXTDDMKBlD3JadiNybtbow7myrmampTzZmnVlKHeSxrifzToc5mPYJEwbzAeViz50xJIauzSNphLoJxmXhYenuU33v2lM/ab3O7xX/bmQ/q6q/bfTwC6o/QbeEBpe26PG0dHRxRdnar+IMg573njjDT796U83m985SiFJYLfbLfridV3fIKtyrXJrXs26IGajH999EdUCHJJyYzKrrAV1yMAbcjIGMl8rVWWz2ZTsLdckXQ1n5ZxvrBY+63GoCtbnwpeU0kL8rXC3tHHyoQBroKSoM43mwCLXyT9jGlSBxCr+kepg02Y3Px3V/7DVWHU22zNTHGGmveVZ2KzmI1TCr9WndU7ee7OyF8RZYv9y8V7TZ5ZjHsG67rX6/bmv6yajmrnzvy+sx8E9rnrvccdC7fe+cH/xqNwMk9zU6CvfxdX68Ir6Wuw7C7tFxln3WZPYFQnICNy0gNTs8TkDcIVhHB8f2wIO40wyKmMc8TMYLiP+ZfixhssacylprfW9pX01jVs7iJ5wzGP5qkpM5v9owUVdEmk8j4TqCRflhRde4OV3vIMg5sRLKTPGzG6IbDbWzUacFm9/Ykokat7QNpebnI9HjUO1355x+n1eM9KczTUKkLOhTcVxUUufUrK6/Sec06VmsCzrQh71/Se5p4hw3aXn7z8NodQkv3MylXSKJ+rNNreGSxajSf5Siy4lkSRnfPBWVxwH49wxcXR0xHvf+17W603hhL7ZnzFGPve5V7h379ULGXfzjKthGMwH0PcmvZyUjjZTeeShila/W7Wc2uGm8m/XHF6/MocxbGvbMCd+G/ZKFzqLZsTRmqoUjAbJqUSxHP2qY7WBk5MTi8yMseDXuUb8TmjOwLZeT4H51RwEnKOFGdrz2fvvfOe7eOltb6dCcYnQGpkO48jHP/4LxGgawGq1alL/0FF22fpVZjb5mZ4OQ38zBEP1nz3paJJ/s1k3FWwYR/YxPzI7qX73Mi6ZU2K3PQfM3jw5OeHd73kP5plOuFL888UvvgrARz7y24tKOnHY6gP4mZ/5O9y79+pig+aOuwpBlrI2WKeWgOGmOuz685AJNGZQUkVrscxhWXLlvAu1bx42Kk7Kp6UST9eUxbNXpGERIdZc85rQMQv1IcbMxtGAWXwpF7WQWMc47JGDJJgpr2Bag7qOtbY/69IZd9uRczY7pDgq5jknWeHrv/4b+PCv/hcWZo8r9u75dss//fl/QtcV8NDC0MV70iyT8bLmJdU3UplK9TfN966erfk+zLMnRSycvFpNKe41ueaCB5+La3aYODR/vfqe6v3LlSZMBrkYGnycEUzaTw+dUiyJNk98zTbmxHL4ep30ZrMpoAfSEn7mRDlPQz38eTOkoP9/j8MQ0zzkBRSGuQz1VW88JSzUdcFU/DjwpS99ic9+9rN0Jd+hojOrGCSXMVxfqspcY6Z1DtVB+maZPfN6kel8cMHpOtXDu0YYTzq967z314X4njTUd933nmV4OaxWK7MZCweLMZUmizcnrEurv+RibvNcTakP3HU9+/2wADGon53bcYdct37mzRyXhl2+DGN+2FKJgTdvfJP89j8t2WVSzLoYI+RMLA6/cdy1xKTdzjD6xfmGarzqV8vrl99uYvs+jTH3CdScAF1kAS73oUaonjTEd1mo70nGbez+N2u4WuxRK8FijFeGxS4b1yVRzFWaq4bZaKHE7t0FYq9QyYchlnLzG8/zaY1H2ZFPexw+96O8vVXytSSgMIFCNGTlppGZqV1HSukCqMec2c7/PvTSv5mjOoabJgLNJKnq8tOy3y8L9cHFc3BZaPBxGMdlc33W6xtM1U+kNDbPO4+R4Xc4ai2zQJE011+jOqBq3DrFyalnh/XLJ+l/pY66VjnnC6G+VqtREqgwLX1BMFcxzYmYpiq1p+HRv82okaJ56ne1rZ0LbX6H83TO+k0+znjUeb/u/D3bnIen54icjxBjtKSONE6vXsLFrhp24Ao3ZPb7wi68evI1Rq9a+sKVQ1vj++JCK0U9tPnfrKG6rNy7ziZ8FuNQ2rcU5pSwpL1lko99yeL85VugmS44Tk5OeP4tb0FK1dk4RrIKSYX1el1yG8zpV+sbqn/GCk1M7X+zmEKM1mW3Ihg32PIMKpmu6whdRxyHNseK4T/3V9x0PErtPyTGuSPwSUY1hR91jWfBAMIwDFT8sKc1agjl0I6qjMAcUpVJOI42a8ZhQpp1pX8eKFmXTSK+XJLotmGV299bFget/vNF8jeHHzNTofpXKHDVZCP+559H40hO1k5LcYxJuXPnDuM4WmurWYZfzRC0LrfhzXP4aW0e0pWoRAWuAIoJst1u28drJKQ+/5MQ/4UpzNT8m+a9PM1leaYOP3PIKYuoVfMq33wIlzzxTPKrgAoHMEpTnf29e/caRnxtqmj5+/DgwUNyvmxRZ5Lt0qGPeP+Sd3T5u7V8EpQ8S3iZ6vdKUK3pPpPaXaenUL47swbLWjxq/rOpzA6hZUcWRJ/qAKOEmFpegtn14zhaWDAoOY2FKBJBrFGFtSh3BJHSscmKnKq2M593MwVmfoinczRrVoheeDnGyOv3X+eVV15hP4z46r8oh2GIA3GsDUwL5HwF4phfvt1mGS25jE4f7e1fFmhXdCVpe8181ezfoip2euLpKlf4zg7+mmval67ZY4xrATxvwtlVp9g40KCFczk8/WrN9vysfVY146VivJsdF7pg1XWlCURN02weXYzrW/TgIjefiodm+OnrFdvt1uxF78gx4UrMuh4g+2wiEOhKSasTV8qDB3ywkFGMI8E7QvClBXQs3W0TguIdpAzivRGOuIKnnluCkzkvFRVpDVByzrgFo10ezLpmMM9Vr57vgqfvZiSq06FrpCu2Zpod/dGa1157nddeex1f+hT1fQ/iEd+1rr/7YQSZmrfOnbfzUJ+F1CZG1873Y43ZNwro55xJgmVmxhTpOkv19a72VUylBkSa2RhLhWjfr3jjwdlyLVuW4szvURCoXBcWDLb+XuPssTCefRxxzNOohWG0tvWaMt4LolMVpJXCT5WLItaVKY57nJhIUc2lWYpnt9uyXq/Z7XaWbauQY8IXfAtz0haTrmjYT8oAHh+99ybjwBk/9+I78Va1hbbUXdVM3/fFiZWoCSS1qUTdiNY5phB7VqE6LE3NnXVrKUAeV3nna7x4tV5PXVFULV5cGJI9RKbvAuOwwzvQnEqhERNDKAVGufSsM3PFGF1OkdVq1cKYSWEc9iSV1gzjJmNu8y18AItFv3i1mjFJYaQxRs7PzvGiOFHOz8+tqk88Z2dndF3HenPUgECsKlJLPb8xwxrqe+om2CWLId4VQI0iPAq4hy/e/THNKxXttWEYGQbLEL3yJm25Zit4YFoBrNdr9vt9SZu2jMlx2LPb7VivVqjCuu9xwJBGK9sv4VdfUtt3u13JPI2EYIVonQ9ISX8fR4PCsxRsiONAOCgoo4Req0P94CGeaDwb4p+NKetJS8/jgkiSU2kdZOG8rg/sB9fEiDTtwE91ATOHnx08196vxF+7n0xZfVrUd138q9fZ7Xas1mvA0YUeoVYgej7/uVc4Pz8leEMk0tIL7bnnnuP8/JxcesALEIJHxVsRSkmOeeWVV/BO2O/3xgAUfOjZjSPvfs9XlqSV67fv0Nn3uKFG1dI8FUo1pWXTpVbB0D44awRqUiXnTBe6YlbUaELVRm7v9KzqcbOOZq+3aaVsRVkxGdKPVJRlLdpToqrNKU3di4ZxvGDzP55WMjGAnDOrrkfEqiTHYeDk5ITPvfKKIUOV89kFz2a9Yrfdcv/+6+ScGMeBzWbdwFStWjTzyU9+gu12izpHTLkIIGW/tya4L7/8MufbbUOnuszJeNvxzIm/OmGqmlSYuBX4AKHmpoupP5rroZaWr10P5aQpVO495QHMswHtp/Vpk0ZdSyIqF6DrQskyTO1eKSUePniDf/AP/j5/9t//M1CRWMT61aWiHUA2xpDMjlYyEjo0ZX76p36Kn/7bP2Xqj+n+ZQ5WQfixv/MzvP3t75ggwK5Zv+WcZ4xsZkM+atR1CaE47GbWvKqZLJWJ1q67Phy03Fqo5DdjPjcbk+mziKqU/zmxqkQzAUs9gyqaSvt3mTSBnDN9bw0241mcGIsurmoqOHPrfXku6t/DEDk5OW5aU2X+2+2WH/mRP06MIylFfvmXf5m427UbdV3HyckxIXj2+10JZ8NqZUzkD9zkVbMAACAASURBVPzQ75+p7eWf97z7Pe/l277t2/i+7/9+1qs18SDF/kLHnluMZ0r8ghUMBWcqjmaTipq1FJUYDporHmvvPVEjiqmqPrhSTDJFCeDAA1sOtQ+h2RnWQkwaOKV9Njd0oPpdBcaYGAbzN5hJ4ulDh6zXnJ+dlg1SQh+Iw540JFzh0qjVwxsfK+GnlHAFREJjxAVPHkdcKDFp7yEpXoRxvyf03cJmVlme04w2/LhDBiB5wiGwQ77MxKs2vxVVRYTMZrPh5M4dvCiaLcKSMmTchIKTjJEpNCSfC/X8twbvvNmoNu6cMbUqxQrJRkbEm0+ghPzM/1Ph1eZuNhaAn+6CNJ28g6rmExmHyKrv2Gw27HY7Tk9PWVdzMY1s9zvibgsidjbGSIwjXfDEceD46IjtdouII44DKQ6gdmZTrSfJCppJcSDG0WovxvFCrcHTHG+K2g+Z3W7L6empHboUW2bZmDJ3nrvL+fl5cQBOWG0iMI5D0QBq0cySAI6OjhY2qKm51oUsxxJSVDvE8+/m8nvf9w0DIPgOzUoqiDdWDmyAHnHYQ1GhDQTUX5hLtcFyOYAAOcbicBztfR0BR4rRpMEjbLapx/t0QKdEF1+e42rin459xjurpbh79y6dl0b8iCdmw2ZIKTHuB1qSEDRPtkn+ifh15th6liOn2DS5LOYALKypEXiMVqXofYEo4pIEJeWRXkkRKQ5mY7hxTKxWPSGE1o58vV5bFSmFwRTnrjnnSnOPEooUER4+fMjx8XHTUs3xbJWWAJrLHnm7sxbf13yvVUuDlsV5uR1TeJOI32yZhw8fIJoWEEwKDGPkn/7Tn2+OsXrIa3x/uz3n+PiYu3fvLqQA4kniJxAHqRVoHpCCpDo5/XRWJFTHMAxUzMBadmz/bANwkMYB0ObcE6DzniHXDqllG1xR6xeHTsnJJMgwRhBDn9nvtgTvGGMl/yWxUl7TuWN69lObH6OuYv1AJf5yhUf4DMZxxAcxL/TsPeccoesYh1ny18G+znMJbj8WuvlsjvDaa6/x6U99yrrrliiJ5mQ2eBobujJUZ/BFZt+ud8lzTPey9W/FQZianVJivzeQ2OpEtE68btJAvLMO102zpOBjGDDKblciT2IAJMdHx5yVKBhl/gbKlAlFE7YzuXyGKZGurv2vYIefoeIUyVwSTeYb0HXmDf25n/u5RQXfPMykalmAFWZqzhGPiz02jiNd3zNV49tC/X/NfduPbV1W12/My1p7V9U5p7vpNN30FbUV2sQATRBUBJ4hJhil45ORoI8S9R/QRHw2KChGbNsHjUYfNCYSkAfs1geJUZsEA9rQNA1BhK/Pd06dvfdaa158GGPMOdfae1ftup/xpb5TtWvXXnPNNcd9jN+Iad7PzxWElSmSuhjWcqEREfuMSWrXU4SxBjklhBDhnUGK0iZLhNgesCTdMkSobZH8e9YUbBnEccCLF88xjiPIONFGjd2vlImDkM14ZoVzVogxtWCu0vyMSxAQpgHjOOLNmzeMJy+aP4OzD5oatc4jg10qxUvUFtoC7AkBTYmHhcON6UjgOmfgK1/5Cr785d/geyl7yqAs2TDwqrOE3W6H169fS9DVYRiGky7d+vpEFcdRm6S6rgNyQtet8O67L4HM7tM0jsg58b86RKUUskmKUoKO3jsRSAl91+PN5k1hZFYCATFMRchoDOyQdM2NgLkLPYrmVxOmarZaGKPpu7aDbwnoqP8uzV7rbMH1G4YROaHUCfT9CinWqkH+DNMEuSQw03XSGSept6Q4BnXYQkoJztrS8UjgIFTKqQSlyvnJrQablwW3Z3scx5IrzzkjhgjfedFqysAVdqtM4G3s7JxzKXa51uy3hL5zePnyJV5+7WtAjmVtIm6x2Ww45ZoyyDRpyOXnUi1mGnaMtNNaFVw8VCf/HKOSOWjORkYWAM/mfe1zR+03TZmtKhBAxmK3GzGO74glxlaYnhXnPKbdwC6LIP+2qWAuF2YXqtXw5f5lqOtqtS7uxTvvvIM4bTHuto3xpRYIp/BUoIZpQtd5TFPgwDDpfdUyZGMMXr58iTdv3uD8/BzDOIHIlviK4ircGLn3QC2AsfbhmV+uDqjGWPhhXLk3x+fj1+cNG9vtFl/96ldLxJo7zAC3PsfZ2TlWqzXndlc9+p5zsxcXF3MfqViplUFDSo1vSwe3c1lcZI1BlDTYJH6bApECvLGEXASbbv0h5aZFM4qRz++vD1jv/xCc2LH1Pib1fQ/Fxtc1aY1G2+txkEj3lgdaqLXUGlNadQiwUCGwlUfgTNEY48w98Z7dK57T50rfyDCOPI7cWXSOob+niWHf2BTk0p2lq0CgAgRixCLQ4S0hBGxevy7v5TIII5WqGa9fc2UqBwajMDya9+8HcTXbVGNXvJe5ff7tEk/U/sv7cs49LPOrQcpahKDNJhkopjRJbj40TMS5+qnkbBWogbX6xGYdOGfe9ytsd1t479GvV9hstjg7OyvgnYfW1O5X8e/y0t8ubyiotySxopC4XPe7vutP4Oz8TNJuCvjJ5tpv/9ZX8au/8isFdFKMwb0VKAPXJhrMtbvObFPE1nIfT832TKXabEE5n7bGlGXrjWFQkTAVVwag2TPkc5DhnUMKQdJghDCGklLeDWxR+a7HNAa8fn2JmDKsd3C+wzgMCDFKgZab2WjqTgHL/VYTXNqkTW2BB1CEQU4oUGkf/ehH8clPfhI6UdkYghVXNoaIX/iFX0Bo7rUowBgREt+XMWxhZZo/e8iOnxJzoYXE0X26H+a/SgoRIYaIzguSaqoSXrWkmmDMrFORfACKEFAaR46YqykcQsQ4jliv11ySKv3oKWWM41Det1wf71k1lzVhVINYC2NdVLYxBkm1u7H4lm/9NlxcnDN8FHhMsnUOMUb8d2Pwv375l68VzO31lFlymh/C/S1/OxgfqAM19nP+dBDkZUkcwHVAjMgGUPXYpjaNcxxJTzx9l6cw6UFmnEbNwwP8fKdxAozD+uwc6/Mz7IYJ08TMRoQm8s7CKzX+9WHA1habosZgOAOVJMBnMQU+v+973/vw6U9/e2lS0+3hyuKEL3zhCxjGAzEJ0vYMybbI9faDl1p0dfVZOKTxtTDuXjR/a87mxXE3Kl21xdQYECxynFi6ksxGI7UMNO+ZGD3WGgmk1Go91fwAwfsOMaTmxkRIaM61mM3NImle4KJR83n5LBWpSdZyRWJhfIMgAcAYGULcSAZC16amWhvfKH44Vccjs4qcmfx8kf193hsctieo3h7SwNl1h7MKd5rh+LFFKEVcgTVhsSUNx25SysiBz44qD5SUKwBDeLPZYBwn8a+NzIBMPCtSegRaa2xmdUEDxFXvst9dOww5iKwKhTsOU+KuSGm0BsgItgULn953fGbISg+IKmd+rxFLOSV5votmpJbbrqOW+b3z8F1XBOudKzWqD33k98bgcrOBcRYwFkgZOQpghHFIMcL3PUvtEtVOgDFwXcdpNyLJpzIjqr42vkOICbvdDmdSSDGOYxnsoTnyw18V3GJZ9rvcuCwaR9RNuX5MnCngQZ8WyFQadtr68Nmn0vz7JUhoRr6WYcqfvwWM36bFWuLg3PX3sV6fYTcMcOszQIKJxrL1FmNN24KofF+AWAEABLKudvY5X96PGHHx7ELSclzZmIEy88B6V+MTGneR/5BR0oWzZ9mcE/0bLRSa5Lw55+F9B2OsCB4WDNY4VmKZIdM5YFwLtZT5eaBnvVZOjTXYxK1Oef4a0/Dew3tf0uQhhPvQ/K0U2l9MCAHPnj/Hj/zlv4LP/NBn0Hce3lmMux0IGf2qw1e+8hX86I/+VS6bBVhIICNIeuyHf/iH8f3f/wMAeNNyYrM7E6FbnaHve7x69QpnZ2di8k/opRDDOUkP1l1D+227SSX4g0ZiNmk7kthAShkERtBlTc8SOolvCVRhcuzxaCWfkRRfa/LP1vUYVTR3IK3j2H8NM4vmMBFeX17i4x//BD77uc+h9w5IDPWOlND3PaYY8ZM/+ZP4jz/7s+x3Gyq5fgA4f/YMn/3sP0Xf97h8/Qpd16HrV5hiQMyEZy/eg/OLC2x3o3To2eK3T9MESyxQVFipji+a+NCqS4CaA9beslJT10GxMGNMYmmgmP4Ert2w1gJS91W3T4SO7l8ZjNq4Gct9PsHnd87Be1fQm3WWpTustQ+8Rod/d5jlK2nq7QMf+Hp85MMfxqBttsJnIUxYn50jKoQYSZ7HVGn4de//AD728U+wX62aABpUYim5Xq8xDKOAPziBU+5rbOHY5vAOzaKwzPBqkldTUy0WgCX+ZrNB9+IF9xAYg0xSFSYoO8tgyyHaiy4vIv6nds5l6KFs7kF/UZ2M9q73duKoFbf43PYdbOXMXaZSiXmCZlqtVtgNIz71qT+KaWCF4L1DDHUAy/nFs/JZpC5TqQex+AN/6JNcMfnxT3DEPEn9n4zp3u12IDJYrVYSbwql2441YaoZWsFGWTaS6bXb9Ky2V4cYZP9IDxQAlF4D1vZZqkJTQSWqnN9w0cKyoEY5zDX9TGocpTbAh8ydpxqjuoL5lwfm8IWM1flp/J52fWyycCcWERBigvM9P6DM/p2xnsEX9GYkgFQmGstmZvAwkTiTyPW4RumMKgobkKKiwzQTWo2fmLg6A0Ado0TE1VsESGlmBpmMrvPMoDlLlEYFgy3lv8euT9cI7TI7oNzj3DLQaLQ1ttT+hxCKWWckQBXjBO8cCIRJLaEMgCx0SjL/bGBgMI0jVuszDGMAWUbxbVueSTRb3/WIgZGA1NIpW3lAJWjar7VsOPab4R0HysjIrMAIEHXg+I+CEGrZ7FyAJQAxA+Q8pgQAhqFTiKPkLBT5L1LkQKEh0fpNqbYRZZOb864jyVsA2Wr25xLGylnPRY1ZOCkzpoxSbxJjlLFiqcloNLcjyoab3+aCp56L8mZ2hWj+niIgci7ukfZsjMOIKWq5OB0x+29gaVZwh2aBKR940E2RChFA0pkFxYxrbmrxHQdOTPn+zkGuuj+y57k8jCRWByFL8Q/mTCyHO8aAN5tLySMDMLzZFZOAC3S0fhuzv198f83tLFNQSikl7HYcMbYNGIUya0oyqTYFqXQUJqK636ygjQSx2IRVCDXvPLbDUExHHWzB+fZ6D/WJHVj7YhDK7FzkXNB3+KOo+ZwMZu3252bzhMny7O/0rOyfkWNbbOS+2zhh++YkNQxZlBJbCU2ZeJ7XoyjzxRiw3W7Qdyu51cwBv1RThJxBCAsdvrzHw+tSDjnE+GW9Eq/QLldGaaru7J19/mW0WivUiuZa5KffNlLzri0qUlgmecOs3Kw1BV+9eoXtZscMZE3zu4R33vn9kpK6C7VMU4JRqDDajG7DYBDa1KLgIquuxzjskHOEdxbOeozjAG5CEYw+SX2lGDBNI7rOYwwRKQaMAwNWbLdbJNEY3ntwT8DY9Fhcsb9NaXJ7L7JRd9ydu9OyW7KljFzOc/ULFtp44drp77bbLd555x3stjwVSaP9zvOk6u1uA4aIu7/70OunlECNyxpjRI6sANo7vZ9UX/uAm2AMGTZL3+agVWvKtXj3hPlcQH3GbQR7GAZY45BygqE2FpFLLnU5FvvG61ON35j/usctZj2DXJhqfoIRYbjNleHGdF31s+faykllIhI3l1hngZTQOVfqF9jENQg5lHLTq6iY+wvGP1Sx+DZQK1yV+ZHZVdC6/bbvpPzdQohM08SdqsaJIlFGDI0pfj+9ES3Iip4LI9aqWqP5wOi9u6f6aCHZ9eEaahiJZlpL6ZjEfQzSNE7LRCV1Y5qBFLPgC7+kuV8AsG6e6lJB0hYr3ZXK2HBhbJbgtYDGew9DxC5GzgjTKAhCO6Q4wRpe+267RSfpLaAZ4gEWbtYabDcbWEOMsxgnbDdvYA3JZ9YyZ995Fg4nkCqFlvGPpQgfm2ZmcytgW62PejaWXZLt+QAqZJ0Gno0lxqOgLLgUFWfyPtCFlxp/2RxXIO4W7wfuSfPrg201UemMOhIorAt5fAFQDmKuM9+1zFgjuEtaSnaNosonQrW+Dpd4iBy8avzWnSKtLUWG9x6//3v/D5///H/C+fk5rDUYhx2cHLpht8XLd94p/qsysqa13vn938PP/Mx/wHp9hpgSYgKc58an7W6HP/0934sXL97D/fRpbkUs11m+VyZq3UD9oqdVAIeoWChtlSVR+SqufhOVn/19Y0m2benAfMoRu2v30xHJjF/rVohILJX9lHN7ju/F528ZXw9kaaNdBP2emg4GIyW/rw+3lejl7ySvC+gB4futuHeYfd59MX8bS2ndKdWeTiLWJJr/i1/8n/ixv/U3q49afNWM1XqF3XYrDSUcm5D8BGAIX/rSl/B3fuxvYxi0/Vi+2CzAj//9D+CPf+d3QduiGQXouHWzNPVbpaB7+jZRK6TUsiqWa8ntz1Nx6g8u04IVWMYeeF2f5d3vXzV+yXIRCcJRjXkeOs/APZj9s0O5YHygPvC3gfGXVKTkARN0ycDHDmqZiSdYhLNI8D0QgfZ8fGX8VrMwwCbQSZERMz5jD1rHEW0emV4xDos2QyoCbBh2cE6n9AJA4hLrGNB5B8uIEyCigmZziEpqcmHqW2Oref0WMP+8EvPwPh+bS3jofLRafhZfaYLBAGZZjrtQm4bU61YrJV/pWl27ggossK8J29xvGyybve8JzPpjpEwUQyzr0gGhB98/i+Lyv95VQJHWx2rdBX49HshILtJV8jmzbr3W3ASDkahGajW+rq+tOzciDLhGXjQLKVwUX9sWlBhTU5wlnpFllPcEZEbLAQE5cK9EmQ8o67bO7lUkLvd6xkCmBv/0Mx6a2vXudcY12rw8y1SZSGMaS21/jLl0T/V+tTNVz4hztsSOThV8yz1aZny0hL2NSbQFV6r19bVSNJbz9WY/v7mVJosIOdFTuO03pjYFeQgY4yiRmL7ysKYwgcCFPb/0S79UHqSxOt2WNeiby9czX+squiqPfyxCriiu/PdNKnh2qKrZr8+uDUK2QqTVdkBtRiqf3qS6uICGf2xTuW2QrKQmn9jiO8XFmJnNejZwWldiS61p/zu/8ztNkxcjUWtMiYgKYg+OxJhmn6nMvNxnFf4Ns98kjnYt82sed2nilIsbntryNjzoY9RK9VZ7nqR5iuSs2l9TPV/+8q/LW5RxbYkFmBP3QmMJx/L4S8YvVYclhQbMHne5rGiwVvo379OOMcJBd1CNBvn2WB58nuLfC0g2guGpzsaVefycC65jzgAWLuAxq6altMjo6Jl6+fIlXr58FwCb+DoWj6sKq1A4dVeOCdhiedzCirqx43HQBHqLGX8vcouaNrvR5+TK0IoLWAN982AP+9WnpfnKXi4e7qFYSmGkZcp07wiJtkd1R/RvKvgGWw5aHaeQW3NfXf9+7q5wU1JjWi595UZ7vm3xnjZ4t0yNLdPRp65bg59tlL9VLMr4QH3epUDqxDUD87PRuk5Lc/9UulbztwUEumGG8uyiJ4uvRyRl9kP+8k0PIxkDyFw41bh60PdyqGp23SDwp2s7ykQHNL5em0hHaOt1a3S/+PiSyospSi0+tzTzh/DvdMBJiqEWC+UkfRcon8dnQVyVfDhI9jZVdR7M4zdnWf1hPstV47fP5KbXqVWi8/mS6v+z8DmtYetQMFLXx2vW99x8v09K9XFgaA6qqTf3NlLrJ2sVWsv4xWRuAiFXkQpA/R5iIi5zvTm1oBPy2TeIaB/K488ASFvGn5mk+36e3lUqXY2EvuvxPd/3ffjgh74B1roSp4hhQs4Jv/mV38B//vznMYwDjhou1H4jsZ80z+HfxGx+bNLn3saslElBdPM1F7eiiYc056K1AGuQkMqotlPXfJzxb7bclk7y+TmXX818BR58qiKdq2iZxz+k8W8abU4xwko3n/4dGYMKN0aM86tqUegqf7N9D3A8j9/+3N6jvl787iqdAAhOIoDOe4yCfTdOI97//vfjQx/6EGLSYaLMAN5ZbDdvMDYTb5xzmIJ0bGoLm1yqjOkWt6A19cu9vUXmPtDk8XMNlpmFElsCq1xLi+erPMJnha0jZtJ6nZr2u555NSPTPvNae8CrvC1d6/PXNFZNgbytRRpLKky+RMuZSXf195bETES+B2AA4wHiKbsxo2lDluCZoKwY64RRGHZMu8wUSlp/Vz6frsjjH0D4OYztlw98xwJgVPBTy11/mns2xjCsk/Pg/nsBSMkMS54zMCnGQrs7WT95XvBy00DZY9GVeXzV+KhCuhVgh++jwpZz96AV7tZnrn1g+lq1QGOMtQVcWogTDLKei1JcQeVrmfEpjG+uVyzXkdMDqKWAsiswzpfmA8xgjvTQk/hIp/kuj0EtEylz7IF4omUcrq++uLjAmzcbOKmd7zqeVd+vztCtLuDOn0tXW4QzliP/yHjz+l0gpZnRrSCf5Ds8e/acB0aGCBKfUn1oYzsWJikyTBP2Tf1Dqaa9nzlq16wgg1EiS8iP8/9N12IZJU6suLkvIKIiGFMT69HrymcX4At2f9Rsfqqg77yVdg7KQkSlVTs3ZjOoCqsSuGyCauXvRcsOu0EgsLgkdzeMWPU91ufP4bperB/WxFHQgrabN0gC0Gmt4XFi1oiFSOjPnqHv1xXSKyX4rsc4jvD9GiBB3YkBBDNzWUu6946Wt1P00eqzCO58U9lUA1lMc4nzdpj+t83je++x2+0QYygYZyFEXDx7hu//gT+DH/yzf05ieIkHL8pkFSLge7/nuzG8eYVcgjhAmAJABn/+hz6Dv/bX/wac6zCME6zz6FcrDLsBMSmowzjz4/fy+CfT1fufcgY1msM5B8aoB2D5+UY0Lkiu0WRG3EDpByDieXQZt4sw3zctm6oO2XAa2APECmyKdJZne0k5ZfSrHjnxOPf12RpeBnr83M//PAOBFqDYjPVqhWG7wT/73GfxU//gJxDGoeT7+T0EWI9/++/+Pd77vvdjCgld32MapzIoZLfbIUGUBg7Pc7gPKjun/OycLUxQq5lw8EG/LWb/odTYaV1jtWqt71ecyZC/ef3qNc7OzgrYYwgBr1+/Rifop7o/bdRfx18jZ8EPZFN7vV7DWovNZgNjDPquZwgpY/cYv5XwtyNCO4NguQd6v9M08ax5mWN/qAtx9re5wmmXttG2Y/MJ8/i8vLx3Htt6lNY9absZryO2zFip9Ct+biEEbDdbpFSn/mR55jyNV8BPxnEeA9I9ilEg5vhfXdcwDmIBeLY2Oj8z8++bTM3ZA84xSotzbpaW0BTI20ZtDv+2eXxF39VyTIVaIsO16zpC6/z8HH3fYxh4HsB2u23q+nl/QgjMJM2se2UuJessLi8vsV6tS238dXn8u1Ap5wTK0FIVXgzs6MugFCKa1d63GtM4N/u8tmT3bQnsFWVl5nGUo3n8EwWAc44tthCxXq2RUsLz589LYC/IxOWLi2cFNVor89iCnscQrADOehnDPY0T1mdrdF2H7W7L0Gadl1mO9GACoDjEDHfNPcgJKJrgqc26Y3RfefxWe3vvkXLGFNgEa3Pvl5eX8N5hHAasVj1evHgPpknw0Kh+FgTvT4dEnp+fY7PdwRIH2IbdgPOLcwzjcH0e/4blpafQZrPB5eUlkKkE+gAg54Ttdgs17VtPwnUdnAxJZY1vZSTZ6Xnwh6JD1mfbYt42b7V5frVmTzFeQwg4Ozsro9lCCMy8nZe0XZazwKAp2suPLBYJuN4iISNnQhwGPHv2bGYtbjdbAAxoOo0TYorinj2ccHW6Md67mQYLIc+0hlJba/xU1Kbzrszjn8A8rYDz3mMKPFnVO4/dyKa5957BH4lwdn6OzZtLgc7SwyTryvyQoxwAIioIsRp80kaMYRzw7OLZbI+P5/GPbUT9y2N+f5tujCni1atXWK/fQQyCKpsqI7x69a606LYpTVumvGgwUE3nPRDKJ6RZ34k8+7ba7raZiK7riglOILbaztbFGiDDePzWWcQQkOIkATwN7DKak6JIk7PIMRdL01i2PkeZJegFxJQHbPiDPHhf5HQEs0b2p2mSQYdvqakvNQfL4N7BPP4JErNtjR1kcm7XdcUfd84hTBO899hu2WfXceF6oKzlQQwpZcRQp9Yy4CVrgc12B4DQr3rW/mfnZQ1X5fGvJ2X8wwJgWeG2X55d6zWWB81aCyfDJxj3k6fJXDd99ylI6/NTrmCsWo9xOI+v+3D1Hu92O3iZ+9h3Pbquw263Y5dQOjynMAlyskHX9YhBWp2JGrAYyZ7EBPJs9n/wQ8+gc3N4OnLEdreFNbb8/JBUmN8YIyOogyy4RkR1f96WAB+AmWY/lMc/1VQqlV6S/yYihClgF3ZYr9fYbrZYSaCn71cwhjDstgXJFpBBImDmAPFcd7amPFLicdw5Z3Q9a5F+xUGe9jOWGv9mpt5pmh+o/d9LRuf0MufvCTx30HsP5z1CrO+3lkd3ayfcU/v7szx+FkSbnItQ36u5B3FMtHntKvLOI4ORjN9s3hSN3ObeNUofpgkh5GLuI3PjW1Ym5kOCPE3o+57Pmgz30DiFKh49Gw/pVjnnHGIMHHiYxmYOXhtJTZrovXcqB1Hq59vXl9fUh6vbQYauyeNfT4eqroyx6DpbJq6knGA9A3WmAJkCND84y89RhB+GVhLQy8DDItqe8evy+PdF6lJoWqpfddjthjLFxTYa0loLkim2gLqB+9mAx2D869KJuqacZSQ6VVwJZh75DHl/Zs4sn30d6WnT9CyAPcGp7qeVmY62TT/K6zFq6fd87SFE6Dhz4+pYc8U+eEhyNXUT9h7uQ/obSiWddMiqWMQXisn6JEUl8lCan9tn2ZZ06i9UO/KtLQo0HnHtzjlQ5sOmmjCEAO8dUsyFcVJKcNZhvV5zthAoGZDWf9b7qVL44dZ+tB1X9rnm2KtpzUt6CwLVspg9PpKW8LKnD5THv46cooHEOFX+I7B58phmKqQdYQAAGAlJREFU/rGa+Kb2vWW923TnHbxsver8dWpfFbNaECxaD5u1ymKf2jXnWjF3LKp/P0TNV3MfuY60VlJNpOlI5xzIaManRvVTShjHCSlmwLS58fbfRzwjUkPREo9kr2PTkwgmYww3oz1ZcFqeu5j9RWgaAyNr1swJnqhOwlXJLksmIL9F6T0rUfPaXMTTZW7acnmQqi04o71P1HLW5jfte3jv6gbaEh3Xl6hYK3zZh1SV+y8RESgDfd/LoasZjnamoDEG6/WazfwpSPyHkZxaplOX7JTGpTvfTvv5zfeGDMg6GYRZ3aisICWGgIeNl92IdK+cc7AiYLXDT+toHlsAuFKQUBapG/44Er2YRI1Ur+aQLVF1NffZl7Mlj3vfG5aXH5e1/PPq/dDIsXMOTgpn+LaoFHuoAHjIPP6xtREIu2GHX/zF/worTT5EBs7yBB7neV7dVgapthWT7ee0EfJT8+R3oWN+OTNRV337ks+ntyoFWZGdTIlRGSmqKuXzTxQ0dW2F35KeqsCnVM45v9dfUIAg76Nz7MRU+lW7wIwFOXgirBrGJ5o3j9woj38P1Naw55zx7rvvQptgWuY3ltB1vpT9Bg2+knksPXAyaRGNlfLpohxQrZy3qbMQkCCqsbJWSMrUPGnNzCxUvhSYj8H8e9eQ0lNrLaxzezlb4L4f7DX3SI01cMVluRCGzf3YBHOAqv2VbpfOu2KBVyyu1OPnGhTT4KS1BsZSMZ3bNGB534EzoVGOxwgIz86HMfDWwYnm1B6FWaZFv5dszFOLADIG3ommlzRpKesm86TrczpyulapAQDh2gmCrR982zNMWeqeNSSeS/WY1pvrxFhjJHhCnHpMT51jLjEvA0PiyzkvjBULlFNb/af5ZdB9C9bmCFGevVZTULXGXf9dr1el1HUYuKlEC0u0Wq4NIhYLTGIc91PsSfNv83z9bTGOBiSd3M8UAlBS0zRbT04ZphmeeuV170DKLjxzvRXE/NUGUY0xmGIsUOoH4pe3oGUQVr/Xg9f+bn4xk6Sccx7JpcqPhZo4wOwD77jsHOEcAUiw3mN9tob1DsZZxBQxjqMMNwSGcSuMn2E9l5feXXLm2VeB3sgQ85HrtYkYpz7mhAQuJGG3xKJfnbEwIsO9ATFgHKfDRSRaCKQgDncka0nGZ3HGxhgSrJAM4/jzk8z2gxggzlms1yvoARzHASFMCGHaf7S6/ia4p0g4pyIUHyfGGeBrmoaJeNgIUR2KabyXIiuLYZwQpH+iAmoYxJSkBoPz8prf31/lklFuRxkClmJQ40LEafOUIlzv0fUdXOcxTCNSTtjtdkAMsCYjpRFEdzjBmeScEqjBYmjvqzTlHYhiHzl9ra17Fd1dAIQQYCXdYcQvmkLEFCI22y1yg4BydnYGL3Po22KkW1M5bHm+b81GOeuQYkKYuBCq7YAbpxHOd+hXa/T9CsM04c3lJdKkk1j9FRe+H+LWYYu+74vVxFxuBLRDa96rMOfGHEYcGqeAEJNuRhMPUBUKKcCS8llt7GlgzO5Cmuo61JILcDbC+w7ed0iZAGN5X8kCmTCOE58FIjjnsdlsAABnZ2dXThTCEbFwU1qtVkiJ23lTitwl6SysNfBdh5QzNtsd+tUaU4hl3Lu2fN+d6j1UOVIFwNESZrqnQZ23pgw422G7HXD+4r2YphEgi74/w+Xla2hfekrANAbAcIrJyAGYpumOjy8vvt//tGma4DsPB4fdsAUR1/ITEd77vvfha7/7uxjHCcM4coq0CaaN4zgfZpkbg4yW178dWavt1xkxZoSQ5FZ4/h6abAq38HbSlANMIWEYQmPiLc1kTqexdmWmt9YhSp2/97Yg096W2DVSq0tdwOrDh8CIw123QowBwzBh2u3K+s4vnsE6rVK0haGmcSqluQ9FBGAcRvR9D7syyClwd1+YkDOByML3HcZhwJvLreyzAZyHMa4WtD6R9/q0zA8+tL5b41u+9dNSGz1h2O6wPlsx8xiHD3/4o+j7NWLKmEJEylISWVJwD/eAGdmnzlTXiPjr16/wzd/8KQwf+xiQEqbIKdNxnAAy+MQnPnF0iu1+dcJt168NRAmGmJHe+76vw7d9x3ci54gUA7yzLHSIYK20moIQUkSIbFVpUekhUhQi5z1evOe9SCljmqIYBKbGbG65/vKdfAQVeDGuKrTW4SMf+Rj+yDd9CjkmGEP8PCQYaboVYojcChsmZNRBFqelgu9ydmqFYRYkKUME5zp8wzd8BN/+6e/Am80ld4uOQbLGHPizroe1Xqyuu55fEZblVvOBrwXNFBG1JoIBYPGDn/kL+It/6UcQYZBJzMmceXZ7ivjQB78ehlJrb5xMJWIv0eVxHLDqOzjLwxynaeKOuhDY1xbGX5+dM4CC5KGtuQvzH/H92vgZCd69sbDOYLvdIKWEi4sL7LYbeEOwltszAR5pnaTW2/sOQWq6dTjG/uXutn4rLaApRu7OtNya+/zZBfv6TeluSgmMB2dBDQINgL0xX8o0hiyMNbh8s8H5+QV3fGa+TyJCiMOd1o/cQJM3UfucIlKKMEQCluELOo427MSUkMnAdV0BSHHOYRhrz8LVzL8MLt58/WQ8V0uKIhp2Wx6WmhMMGfR9j+12y8g9KcI6j+1uQCdoTq7Twap3oQoqqvdjkEA54Sd+/O/ic//kp2EkUJ6bv3mSvt3Sj58zFPh2vT5HJ8CF22GA6zoM0wTrPaKgoXrfIUYtOU0linqHlci/y6Bc/dKS3ClMUhvP0dt3330XznmMU0DKgO96GOsRc4aRKq5J2nvL5y9jMvdgtXBAlJk7hIDtbsD5xTNMIWKcIu8dWYAsyDhwA3nzs/xOX89EyFqbQBKdTsCz5y+wG0bEmGCtK2m2u9PCBsotrj4whQjf9bCuY/BTY7lCzhgJsjLi0vPnzzGOY2F8DRTe9Po3JWMMwsQB3pQyvO9k3QkxZ1xuNoBE+aeQsBsmWOuxG0acnV/c6drzezh2H/y7pa1prH185m+BOLJEzEPkCP5uGBFiwmp9higbyT6frZomMGCis5Yx0h6YtG/bGu7yC8LQXdfzWs/OEVLGFBPIWmQQphBEK2nuAHgox04rII01cN6DjMEwTog5s78ZJkwxIoNgrC+BvpTBJucs+0Ag40DGsu7IBOs8dsOA7W4AiND1PUgY6+5pvtzEPrKkSOVL8na+60DGIMSIKB2du2HEFCL61QohplLWy8jL3Hk3jEP5/iEphQAv5dzDMAj0lsVqtULX9XDOo1+tEWJibATrEFNC16+we4Tz25Kyv6bS78fnv6nwbDKGwzjg4tkFht2A9WqFEBlMhIBS4juFCCA21X4cV7t7l3FNax4jZx2maWLk1vUa1jhMI8M6pZwQIiPZalNJCEnw8XwRFOVml9eZ5YVvRyFMDCkdA0w2cN4VYInNdlei6WVuj1ZJNkG1mpIkWe58RJvvexbU0meuz4BLaW+9dHBgFND6B03jzjoIxQVJkeHafNfBgQOxo2DnTdOEMXH0PEoWyFl3fTbiHvY/poBYnrmDk2BwiAkm8xyH7XYH6zyniSNPdFbL9z50grqUrR2by7/zNNYMw/HaD86sqZ13mKZQp74W2l99W2rZ5roL2oqeGEPwHZvH1lmMOkdeEXk0CFQAL/h5ZXCRT625v+0O1pRme+DqWutX1/Wl95qj3ALXDW400luyjrXNFKQh5ugu3XHpQtyznjhNSkCInNMfp0n6CaRphEyRmCmz/8evsyQt3u/s0VYhAICx/w0bkQSd9Hv07ua3OusfocXvUrPXgoHfoC/HxN15RCSKAGKtMJCKIgtZa5r1n7CxJ+z/snlJ187VkCz8ufc+MQye7BkJlkBMCcZZqLdNlgE6UtKe/bsdAbUqW58/Zc7hZ7TPNZc0dddxT8TJmr/dAJ1youWTtPe+lnkbbLWmMaQteV36I4Wlj+zKIjSFW3fJ1ZzbrMhJhVQrqFQwVAFBRQBdpzeuFFFX3egJN5CbT44CZlrmw7U5+xmTy8/yLPbXf/UdzZ/Pafnyw7eYZ2XFOVdr7+rSXJqv49qrX0HX7H9uzkj9GciZG4javpNjW7EfVmyf2mn7d2zp9d8qqAnqbspVBCinlM1LhuKkKb0z7Ldmo6Zp4qKbhoEO7WNKas6hpOiIiKdX6abldjOu3g664qeb00ILAciUi5WeCSDR7tqoU9+cq6V88hWWdFfTr0FYziRaVLEJ5euAgNN/51r4aotu/ht97+m+1z5qUuaUpAhabY5S5aLMdWwFxW24k+tx9f4vLcIiqCQrZsxcMRyipZBSeUMnFdIdJ0KrbHUNWqVKMJmkQM5IZaeC9DLGw0nMj1w3oW5Awma7w/R6PHrTSofmo2mO/lgRxmnbsjzM90GqjWqNO1HTfglTXgcy8jVpzvtc2aG16rg0Fc4xNy2kreZvllkspSRmbQlLNLpkuXB1wWYvUPN1NbVnpFqAWYqEqnXVrru57IFrXK8k7oPmCEbVSpHfiqC6Hgvw2Ck5VoB8s/WZhdhOICSYzPiA1lg460oGhFPr480Cfkt/eLfboerIw6RQVvz3zEhlyk3z/3bp+989HqnfWQEiLIhUeMmDys3BpDaddFzyH7na4t+bExFKI1FqNH7K+rl5xsvUXK7VRPrCbEXNG9p7uM1zaS0mtU5yTqWDsKIoL2IRhdEOMX9r8D48VVi2VNabToh45it+akTxLUjPYUKFntLelAiDiJQynPPwjpBTLLBsJ5n9alaohGE3jwoTt7q7DY6UIFGDi18GfeY2KHj1jT08NZ5YCTi1q6gxi+aNUI16LZLNVb+m695wHbG9nFJGTLnZZ0JeBLpVv7QB5uWVleEPifM91lPf9+THVPe1rePPmcdkZ5kdqHutbnRuF3XoTNDVyud6uvoG9BnnrGCsss9ZYk0nX/oqQX/bsy7Wlwh6ImKIdWQgJ2SkEtkHkgCxhiKwTmJ+jUqWn4FiQix9naUAaCGUW8uhHFQ1o2f3T8UxOiWYdvtnr6Jr/8G06+X7kkhyniOvEFkcDTvdKZh3CnGfPpGBNQpjboqQnmEKQPiE6p7NhECr9a8402W/qfn51NVqGq9edTY3T1N7IBG2macAX32h21WYlg89JlTmK0fOif3oZtBnyxdXXKGRuI0To8LzPsx+U6P9RiY0c1omFX6cwiTNR7WVeMH8+wvhGuoMzRTnKGkXwXVjobOEe6qmnZFgQ9kEeb8G/rKa07OISLU2rhKuS012K8p13FbBV1dTubgo+gYJ+C2tgGMS6KSDdc3yrrEscmM2Z1lPyi0E+v4+mUUMYCn6NIZ0SPvfdr/n2r715E2BusJMkShM23UBxdsDijCMd3Uf9omaTESNS5Qrp2OQ9nl+3pH3LjETgbT8vboz++vB8jeaRWvcIOTI5zrz2HXuOpwaoFODGGdmv0hfY0XDSRw3RRhi3zfnhCRSOZf8qlSyLfLifBFqer6bB67Bvrw8ds1ScvWG7sI+KuVqXtsUZZyVUZaX30vr6S8yb+gxZ3jv4rhWAOQiCPXnulZd76G/aSflQkxmjalcT9cL1atX3byXDq+Z5uezrFn/RmMTnK2Yv1eJ+f66tuHbm/wEtThpdj5m60aCsZx9GMcRXb8uAWFrHTLxSHdrDI/rluBwihP73hKT4fkYEWRcqU1IGZzxMgYxTDCC+jOOA89RaG6vRPXz/PkazbCR8F6sjE/iFu42W/kgfS4GQOKhHS2IJ2s/A+s9Ou9gjTIqQ2cbNTFEQuScuClEzLm5VAeuBSo6dsJOteevOaEpJd6gIoTaqa31Gq3pyS8nICZp2LjFuk59P/GaZj/PmGE+yCTLXlsieG/FtG/v4YgmvC/v49DnNGtuBXs5CzmDcoIzrUDNyLlOLHoKkhO88M5qlgeZG4ymwE1aq97DO4PLy0sepxUnJElVemdh4DhLlLlYmoFWJuahHJGTdIdaxlHoV2uMYUIMgdGJcsIw7GANwVAurwPNAhcB0CzKi90SPguc7gMAniBtvUOcRnl/LpWPrvZjK8gjH54YA3791/4PfvVXfpnzsBBThec6Qc1ybiWtwzeWFsB1KZCHpkOVewBmcYglUu1Jgbx7omWM5Kr9Wloimnp6yj1ervlYzKcNnJ16vw9N+oRnOJFlj3ld3vsybUcnLukQk0/+4W/iSkQY5JwQwwTKGdY5fO3lS/zf3/1tnuMo7mRKGc53CDHjG7/xD2Iad/C+59JsIsSUYQ1h8+YSv/VbvwlnBJBlpjzm2kH3kGMRUhybE1KMyCni1770vyWdyrERQ3UqNQHILKEyijtLBCTC6uwcu+1ubr4Ws0g0pbWlsQHg6P40TezHPRIDXUlGbqrxK42iv0qwiUeVTbP3FHroe6gh7X1SWx6yz94XsM1xHBGm6en3uFnj7Gcpz233OYTA6DqCMETWspn6lGQNP3cOUIHkbCgicEoJYbsFQIB1vHYA1HX45//iX2L97AVCzDyWiwzW/QrTOODf/Ot/hc999qeBJCXrzgEhADBAt8JP/aN/jA9+6MMYJxnFTeIaxQk/97M/g3/4E38P0HL31josil+EAOmapTgqJ4QwMU5giOjXKwzbDQMf5QSRDbCW4Ao/N7zKmYyE3fY1XyA30kZ9XnnAnXNwFjBG+sbDiBzuo9XznijNmcsYC29R1jxNI3IMQGzW/Jj8dN21MvuEnXPwjkCIiCkixxFId0PRuTda3kMGvO3gZRZAzhExRMRpAtTSzBD/9ImFV9N7RQT0jmAtm9MpJ4zDDjAS+A48ablbrTDuNugckMIA73tY8oghYthtYAhwlvj5WMNnKzYdfOMWzy7WCNMOnesB4mInQ8B65dF5A4SxxphyRqknmRlKBmQ9nM1wFiBEbj0Pss+UMewuhV0NhwLkM8hItD9GDdCJEJSGDY7GS/SvAAGyhLSWfZfec4VTjKyJwlRvssVTfypqzXyGsdISx4QUA8ZhC6020/e1f/vQZumygmy5Zmstus4LdiFXZk3TJMG+/b9p6TFM6mXjlq7ZO+LCkpwwTqOkmZqZelkzKm+DW2gEZdfBWRZWjCoVQFlQeoxhyzgljDvGCewsIVFGGLcICRyky1xGa0ii7aFJRZY4MWEat3j+7BnH0hJgJX6222yRUwCgglH/fv58yTK/9p2TPeQJ24Xx0fBwzjJ5qRqaMWY4CQjK2pqxEhkgyo1grpLHGpZsTgIZITC4ZQhxJphq6uzpiMA37JyF9xZWH64UPOgaa4Q7N/uBB9dMeo32MoSaKfHewhogJ17vNA7zqrLFuZrRIwjedo+M7LNzVgJWYzkbOeXZHj/mGq8i1dLlbKQgSmyqTV0ADBLPOjCMNJVzxtm6x/mL9zLugZTQjsMAIsLZugcQ4TqHEBuXUsBhvu49L/DeF8+QsoG1jPzjnEEII97z/IK7/1JAVdeVyEAQrxg2PunZkH0GUL2FJs1IQIkt5Nzg9gOtBcB/lmKDLS4fYA3BC5iGFVx9hn0WJqI2/TN3B5+C2FBhqC3Fm4tR11ylob53xoSPsPZ2j9prWxmR7RwftEk0Uavh9W+X/PPYe67Xd84WuK0YeaT3MIzlTOh7W/fyqYn3mQUWgDKqXnnVWtOUHGufClu33/2n/iSPbgdPl3e23tt/+cJHQAYII8fMjOXUZpwmJER867f8MXzg69/Pz9Cwe98JMNUX/8d/4w9M8/MJQAaqEpx1cM4jx4wUAuI0Icdc398krUgsAAV5LUU+SSCyWuLX2pQCS21rCX3f84z5zJ1Bm81uJphaQVF+fiIyRjVRHeg4SdBJBd1Va7zPtR+KIepDyotreW/hu64EUUMIGKeprPmYsHqIdZ9K3lt0cjaSDNQYx3Hv3lp6jHW2wnH5vXOMuEPE8wM08JursiyzIVKz133fYxgGRnEGpHe+Wpk5s5LM0kYbUxSzO5XAXuctkBg9DWDBARHmljjFyDq4wVkkoHMdg7ASIU4JYRoFQLS1rOZnqp4TKj+D161iov1q38jvtNbA+46ll+DoDcP4qLGxm1JKCm1tBIIrYprCjPEfk5bMqj+rBieCWChW/LKEYRj31nyM6Z+CiMC+svNIKWMYRux2A6apiaQ9IS33u+4zw5DrmQiBO+CWSarKQLlApg3DAOccXr1+DUBdn8jPSNx0HYYTY+TgHyCBRKDrPLabNygpfLArTcTxthAmrLquxkVgYMjC2Q6GHLjQx5Rz3U7c0jXPz0fL0/Xr/wPkgRN9sAaWtgAAAABJRU5ErkJggg==;fontColor=#0000CC;fontStyle=1" vertex="1" parent="1">
          <mxGeometry x="544" y="387" width="60" height="42.59" as="geometry" />
        </mxCell>
        <mxCell id="Dfw8BtGnLvOsA7QvDN78-56" value="&lt;font style=&quot;vertical-align: inherit&quot;&gt;&lt;font style=&quot;vertical-align: inherit&quot;&gt;&lt;br&gt;&lt;/font&gt;&lt;/font&gt;" style="fontColor=#0066CC;verticalAlign=top;verticalLabelPosition=bottom;labelPosition=center;align=center;html=1;outlineConnect=0;fillColor=#CCCCCC;strokeColor=#6881B3;gradientColor=none;gradientDirection=north;strokeWidth=2;shape=mxgraph.networks.security_camera;rotation=90;flipH=0;flipV=1;" vertex="1" parent="1">
          <mxGeometry x="510" y="35" width="20" height="20" as="geometry" />
        </mxCell>
        <mxCell id="Dfw8BtGnLvOsA7QvDN78-57" value="" style="edgeStyle=elbowEdgeStyle;elbow=horizontal;endArrow=classic;html=1;exitX=0.88;exitY=0.5;exitDx=0;exitDy=0;exitPerimeter=0;strokeWidth=2;strokeColor=#FF3333;endSize=3;startSize=3;" edge="1" parent="1" source="Dfw8BtGnLvOsA7QvDN78-56" target="o995Ws5FP9cgEdBSJyOs-19">
          <mxGeometry width="50" height="50" relative="1" as="geometry">
            <mxPoint x="348.5999999999999" y="58" as="sourcePoint" />
            <mxPoint x="365" y="400" as="targetPoint" />
            <Array as="points">
              <mxPoint x="365" y="240" />
              <mxPoint x="440" y="350" />
            </Array>
          </mxGeometry>
        </mxCell>
        <mxCell id="Dfw8BtGnLvOsA7QvDN78-58" value="" style="edgeStyle=elbowEdgeStyle;elbow=horizontal;endArrow=classic;html=1;exitX=0;exitY=0.5;exitDx=0;exitDy=0;exitPerimeter=0;strokeWidth=2;strokeColor=#FF3333;startSize=3;endSize=3;dashed=1;" edge="1" parent="1" target="o995Ws5FP9cgEdBSJyOs-8">
          <mxGeometry width="50" height="50" relative="1" as="geometry">
            <mxPoint x="315" y="420" as="sourcePoint" />
            <mxPoint x="310" y="540" as="targetPoint" />
            <Array as="points" />
          </mxGeometry>
        </mxCell>
        <mxCell id="Dfw8BtGnLvOsA7QvDN78-59" value="" style="edgeStyle=elbowEdgeStyle;elbow=horizontal;endArrow=classic;html=1;strokeWidth=2;strokeColor=#FF3333;dashed=1;exitX=0.3;exitY=0;exitDx=0;exitDy=0;exitPerimeter=0;startSize=3;endSize=3;entryX=0.95;entryY=0.05;entryDx=0;entryDy=0;entryPerimeter=0;" edge="1" parent="1" source="Dfw8BtGnLvOsA7QvDN78-56" target="o995Ws5FP9cgEdBSJyOs-19">
          <mxGeometry width="50" height="50" relative="1" as="geometry">
            <mxPoint x="330" y="46" as="sourcePoint" />
            <mxPoint x="315" y="420" as="targetPoint" />
            <Array as="points">
              <mxPoint x="400" y="210" />
              <mxPoint x="600" y="340" />
            </Array>
          </mxGeometry>
        </mxCell>
      </root>
    </mxGraphModel>
  </diagram>
</mxfile>
